<svg width="893" height="252" viewBox="0 0 893 252" fill="none" xmlns="http://www.w3.org/2000/svg">
<path d="M250.954 0V81.2549L80.7045 250.948H0V170.318L89.5186 80.7391H0V0H250.954Z" fill="#1C1D26"/>
<path d="M250.953 170.211H170.21V250.95H250.953V170.211Z" fill="#1C1D26"/>
<path d="M375.975 0.440918V201.172H423.602V251.391H297.667V0.440918H375.975Z" fill="#1C1D26"/>
<path d="M526.642 0.440918V251.391H446.5V0.440918H526.642Z" fill="#1C1D26"/>
<path d="M744.166 0.458892L706.151 251.391H592.657L549.538 0.458892H628.31C637.451 69.5851 643.987 128.069 647.918 175.911C651.775 127.554 655.869 84.6266 660.199 47.1276L665.394 0.440918L744.166 0.458892Z" fill="#1C1D26"/>
<path d="M839.719 50.6902V98.2546H885.084V146.025H839.719V201.196H893V251.391H767.064V0.440918H893V50.5376H888.157V50.6902H839.719Z" fill="#1C1D26"/>
</svg>
