<svg width="136" height="89" viewBox="0 0 136 89" fill="none" xmlns="http://www.w3.org/2000/svg">
<path d="M58.7213 14.2206C59.5017 13.9805 60.2972 13.7779 61.1001 13.5903L58.8188 0.630371C57.2129 0.863004 55.6445 1.15567 54.0986 1.50087L58.7288 14.2206H58.7213Z" fill="#232323"/>
<path d="M53.6707 16.2918C54.3987 15.9166 55.1341 15.5639 55.8995 15.2412L51.1568 2.21375C49.5359 2.64899 47.945 3.12927 46.3916 3.66958L53.6783 16.2918H53.6707Z" fill="#232323"/>
<path d="M74.2101 0.270153C72.6642 0.120067 71.0958 0.0375214 69.5049 0V12.8548C70.3304 12.8923 71.1483 12.9749 71.9513 13.0724L74.2101 0.270153Z" fill="#232323"/>
<path d="M74.9072 13.5903C75.7102 13.7704 76.5056 13.973 77.2861 14.2206L81.9162 1.50087C80.3703 1.16317 78.7944 0.863004 77.196 0.630371L74.9147 13.5903H74.9072Z" fill="#232323"/>
<path d="M37.476 37.2061C37.6561 36.4032 37.8587 35.6077 38.1063 34.8273L13.0271 25.6946C10.9184 27.8333 9.03478 29.927 7.36133 31.8931L37.4835 37.2061H37.476Z" fill="#232323"/>
<path d="M41.6867 27.1881C42.1294 26.4977 42.6022 25.8223 43.0975 25.1769L28.3816 12.8324C26.6031 14.0331 24.8996 15.2863 23.2637 16.5545L41.6867 27.1881Z" fill="#232323"/>
<path d="M39.1345 32.0133C39.4496 31.2553 39.8098 30.5124 40.1851 29.7845L20.764 18.5731C18.8579 20.1565 17.0719 21.7699 15.3984 23.3684L39.142 32.0058L39.1345 32.0133Z" fill="#232323"/>
<path d="M45.0261 22.873C45.5814 22.2727 46.1593 21.6949 46.7671 21.132L35.9609 8.24719C34.2575 9.15521 32.614 10.1083 31.0156 11.1063L45.0336 22.8655L45.0261 22.873Z" fill="#232323"/>
<path d="M49.0626 19.2035C49.7155 18.7082 50.3909 18.2429 51.0738 17.7927L43.532 4.73523C41.881 5.3881 40.2676 6.10101 38.6992 6.85894L49.0551 19.2035H49.0626Z" fill="#232323"/>
<path d="M98.5232 37.2061L128.645 31.8931C126.979 29.927 125.088 27.8408 122.98 25.6946L97.9004 34.8273C98.1405 35.6077 98.3431 36.4032 98.5307 37.2061H98.5232Z" fill="#232323"/>
<path d="M36.7409 45.6185H0C0.202615 46.6091 0.600342 47.5696 1.20819 48.4251C2.25128 49.896 3.57204 51.6895 5.16294 53.6706L36.9586 48.0649C36.8535 47.2545 36.7785 46.444 36.7409 45.6185Z" fill="#232323"/>
<path d="M36.7409 42.6168C36.7785 41.7913 36.861 40.9734 36.9586 40.1704L5.16294 34.5647C3.57204 36.5458 2.25128 38.3393 1.20819 39.8102C0.600342 40.6732 0.202615 41.6262 0 42.6168H36.7409Z" fill="#232323"/>
<path d="M99.2586 45.6185C99.2211 46.444 99.1386 47.262 99.041 48.0649L130.837 53.6706C132.428 51.6895 133.748 49.896 134.791 48.4251C135.399 47.5621 135.797 46.6091 136 45.6185H99.2586Z" fill="#232323"/>
<path d="M92.9102 25.1769C93.4054 25.8298 93.8707 26.4977 94.321 27.1881L112.744 16.5545C111.108 15.2788 109.412 14.0331 107.626 12.8324L92.9102 25.1769Z" fill="#232323"/>
<path d="M95.8223 29.7845C96.1975 30.5124 96.5502 31.2478 96.8729 32.0132L120.609 23.3758C118.935 21.7699 117.149 20.164 115.243 18.5806L95.8223 29.792V29.7845Z" fill="#232323"/>
<path d="M89.2412 21.1395C89.8416 21.6949 90.4194 22.2727 90.9822 22.8805L105 11.1213C103.402 10.1233 101.758 9.17022 100.055 8.26221L89.2487 21.1471L89.2412 21.1395Z" fill="#232323"/>
<path d="M84.9255 17.8002C85.6159 18.243 86.2912 18.7158 86.9366 19.211L97.2925 6.86651C95.7241 6.10857 94.1107 5.39567 92.4598 4.7428L84.918 17.8002H84.9255Z" fill="#232323"/>
<path d="M80.1084 15.2486C80.8663 15.5638 81.6093 15.924 82.3372 16.2992L89.6238 3.67702C88.0704 3.13671 86.4795 2.65644 84.8586 2.22119L80.1159 15.2486H80.1084Z" fill="#232323"/>
<path d="M82.3294 71.936C81.6014 72.3112 80.866 72.664 80.1006 72.9866L84.8433 86.0141C86.4642 85.5788 88.0551 85.0985 89.6085 84.5582L82.3219 71.936H82.3294Z" fill="#232323"/>
<path d="M86.9447 69.0243C86.2919 69.5196 85.6165 69.9848 84.9336 70.4351L92.4754 83.4925C94.1263 82.8322 95.7398 82.1268 97.3081 81.3688L86.9522 69.0243H86.9447Z" fill="#232323"/>
<path d="M90.9822 65.3549C90.4269 65.9552 89.8491 66.533 89.2412 67.0959L100.047 79.9807C101.751 79.0727 103.394 78.1196 104.993 77.1216L90.9747 65.3624L90.9822 65.3549Z" fill="#232323"/>
<path d="M77.2861 74.0147C76.5056 74.2548 75.7102 74.4575 74.9072 74.6376L77.1885 87.5974C78.7944 87.3648 80.3628 87.0722 81.9087 86.727L77.2786 74.0072L77.2861 74.0147Z" fill="#232323"/>
<path d="M94.321 61.0398C93.8782 61.7302 93.4054 62.4056 92.9102 63.0509L107.626 75.3955C109.405 74.1948 111.108 72.9416 112.744 71.6734L94.321 61.0398Z" fill="#232323"/>
<path d="M71.9513 75.1554C71.1408 75.2605 70.3304 75.3355 69.5049 75.373V88.2278C71.0958 88.1903 72.6717 88.1078 74.2101 87.9577L71.9513 75.1554Z" fill="#232323"/>
<path d="M130.837 34.5573L99.041 40.1629C99.1461 40.9734 99.2211 41.7839 99.2586 42.6093H136C135.797 41.6188 135.399 40.6582 134.791 39.8027C133.748 38.3319 132.428 36.5384 130.837 34.5573Z" fill="#232323"/>
<path d="M98.5239 51.0216C98.3438 51.8246 98.1412 52.62 97.8936 53.4005L122.973 62.5332C125.082 60.3944 126.973 58.3008 128.639 56.3346L98.5164 51.0216H98.5239Z" fill="#232323"/>
<path d="M38.107 53.4005C37.8669 52.62 37.6643 51.8246 37.4767 51.0216L7.35449 56.3346C9.02044 58.3008 10.9115 60.3869 13.0202 62.5332L38.0995 53.4005H38.107Z" fill="#232323"/>
<path d="M96.8729 56.2219C96.5577 56.9799 96.1975 57.7228 95.8223 58.4507L115.243 69.6621C117.149 68.0787 118.935 66.4653 120.609 64.8668L96.8654 56.2294L96.8729 56.2219Z" fill="#232323"/>
<path d="M66.503 0.00756836C64.9121 0.0450897 63.3362 0.127637 61.7979 0.277723L64.0566 13.08C64.8671 12.975 65.6776 12.8999 66.503 12.8624V0.00756836Z" fill="#232323"/>
<path d="M46.759 67.0959C46.1586 66.5405 45.5808 65.9627 45.018 65.3549L31 77.1141C32.5984 78.1121 34.2418 79.0652 35.9453 79.9732L46.7515 67.0883L46.759 67.0959Z" fill="#232323"/>
<path d="M40.1779 58.4432C39.8027 57.7153 39.45 56.9799 39.1273 56.2219L15.3838 64.8593C17.0572 66.4653 18.8433 68.0712 20.7493 69.6546L40.1704 58.4432H40.1779Z" fill="#232323"/>
<path d="M51.0741 70.4351C50.3837 69.9923 49.7083 69.5196 49.0629 69.0243L38.707 81.3688C40.2754 82.1268 41.8888 82.8397 43.5398 83.4925L51.0816 70.4351H51.0741Z" fill="#232323"/>
<path d="M43.0897 63.0585C42.5944 62.4056 42.1291 61.7378 41.6789 61.0474L23.2559 71.6809C24.8918 72.9566 26.5878 74.2024 28.3738 75.403L43.0897 63.0585Z" fill="#232323"/>
<path d="M66.503 75.373C65.6776 75.3355 64.8596 75.253 64.0566 75.1554L61.7979 87.9577C63.3437 88.1078 64.9121 88.1903 66.503 88.2278V75.373Z" fill="#232323"/>
<path d="M55.8992 72.9866C55.1413 72.6715 54.3984 72.3112 53.6704 71.936L46.3838 84.5582C47.9372 85.0985 49.5281 85.5788 51.149 86.0141L55.8917 72.9866H55.8992Z" fill="#232323"/>
<path d="M61.092 74.6375C60.289 74.4574 59.4936 74.2548 58.7131 74.0146L54.083 86.7344C55.6289 87.0721 57.2048 87.3723 58.8032 87.6049L61.0845 74.645L61.092 74.6375Z" fill="#232323"/>
</svg>
