<svg width="410" height="106" viewBox="0 0 410 106" fill="none" xmlns="http://www.w3.org/2000/svg">
<path d="M55.2423 57.577C51.6362 72.0413 36.9863 80.8441 22.5203 77.2371C8.06025 73.6309 -0.742508 58.9802 2.86533 44.5168C6.4698 30.0508 21.1197 21.2472 35.5814 24.8534C50.0466 28.4595 58.8485 43.1119 55.2423 57.577Z" fill="#F7931A"/>
<path d="M40.9536 47.199C41.491 43.6064 38.7556 41.675 35.0153 40.3866L36.2286 35.5199L33.2662 34.7817L32.085 39.5201C31.3062 39.3261 30.5063 39.143 29.7115 38.9616L30.9012 34.1919L27.9405 33.4536L26.7264 38.3186C26.0818 38.1718 25.4489 38.0267 24.8347 37.874L24.8381 37.8588L20.7527 36.8387L19.9646 40.0027C19.9646 40.0027 22.1626 40.5065 22.1162 40.5377C23.316 40.8372 23.5328 41.6312 23.4965 42.2606L22.1145 47.8048C22.1972 47.8259 22.3043 47.8563 22.4224 47.9035C22.3237 47.8791 22.2183 47.8521 22.1094 47.8259L20.1722 55.5926C20.0254 55.9571 19.6533 56.5038 18.8146 56.2962C18.8441 56.3393 16.6614 55.7588 16.6614 55.7588L15.1907 59.1498L19.0458 60.1108C19.763 60.2905 20.4658 60.4787 21.1577 60.6558L19.9317 65.5782L22.8907 66.3165L24.1049 61.4464C24.9132 61.6658 25.6978 61.8683 26.4657 62.059L25.2557 66.9063L28.2181 67.6446L29.4441 62.7315C34.4956 63.6874 38.2941 63.3018 39.893 58.733C41.1814 55.0542 39.8289 52.9322 37.1711 51.5485C39.1066 51.1022 40.5646 49.829 40.9536 47.199ZM34.1851 56.6903C33.2696 60.369 27.0757 58.3803 25.0676 57.8816L26.6943 51.3603C28.7024 51.8615 35.1419 52.8538 34.1851 56.6903ZM35.1014 47.1459C34.2661 50.4921 29.1108 48.792 27.4385 48.3752L28.9134 42.4606C30.5857 42.8774 35.9713 43.6553 35.1014 47.1459Z" fill="white"/>
<path d="M81.1756 40.385C83.3651 40.385 85.2568 40.7773 86.8464 41.5476C88.4436 42.3256 89.7615 43.3735 90.8187 44.6914C91.8616 46.0161 92.6378 47.5644 93.139 49.3387C93.6368 51.1182 93.8866 53.031 93.8866 55.0787C93.8866 58.2242 93.3103 61.1958 92.1468 63.9971C90.9833 66.8025 89.4046 69.2359 87.3965 71.3115C85.3901 73.3845 83.0209 75.0189 80.2888 76.2263C77.561 77.4345 74.5952 78.0386 71.411 78.0386C70.9992 78.0386 70.2753 78.0268 69.2527 78.0057C68.2301 77.9846 67.0547 77.8791 65.7385 77.7011C64.4138 77.5163 63.0132 77.243 61.5341 76.8768C60.0559 76.5173 58.6519 76.0136 57.3298 75.3741L69.1523 25.698L79.7413 24.0569L75.5082 41.6852C76.4144 41.2768 77.3273 40.9604 78.2385 40.7301C79.1506 40.5031 80.1294 40.385 81.1756 40.385ZM72.2935 69.6383C73.8882 69.6383 75.3909 69.246 76.8025 68.4756C78.2183 67.7045 79.44 66.6633 80.4635 65.3665C81.4869 64.0637 82.2969 62.5965 82.8875 60.9571C83.4782 59.3177 83.7769 57.6074 83.7769 55.828C83.7769 53.6418 83.4115 51.9366 82.6834 50.7039C81.9552 49.4763 80.6078 48.8587 78.6511 48.8587C78.0099 48.8587 77.1838 48.981 76.1595 49.1995C75.1319 49.4316 74.2122 49.9133 73.3879 50.6381L68.8806 69.359C69.1523 69.4071 69.3927 69.4527 69.5978 69.4957C69.7986 69.5421 70.0205 69.575 70.2415 69.5978C70.4753 69.624 70.7427 69.6375 71.0659 69.6375C71.389 69.6375 71.7932 69.6383 72.2935 69.6383Z" fill="#4D4D4D"/>
<path d="M104.87 77.0835H94.7565L103.298 41.1426H113.481L104.87 77.0835ZM109.792 36.7636C108.38 36.7636 107.1 36.3434 105.965 35.5014C104.82 34.6644 104.253 33.376 104.253 31.6396C104.253 30.6845 104.447 29.7884 104.832 28.943C105.222 28.0992 105.733 27.3728 106.372 26.7552C107.011 26.1426 107.751 25.6532 108.591 25.2845C109.437 24.9217 110.336 24.7403 111.295 24.7403C112.705 24.7403 113.979 25.1605 115.118 26.0025C116.254 26.8488 116.825 28.1372 116.825 29.8644C116.825 30.8228 116.632 31.7223 116.244 32.566C115.858 33.4098 115.348 34.1362 114.708 34.7538C114.075 35.3672 113.328 35.8549 112.489 36.2203C111.643 36.589 110.747 36.7636 109.792 36.7636Z" fill="#4D4D4D"/>
<path d="M122.343 32.1897L132.936 30.5486L130.335 41.1426H141.68L139.631 49.4771H128.354L125.351 62.0489C125.074 63.0968 124.917 64.0755 124.873 64.9851C124.823 65.8989 124.939 66.6835 125.212 67.3442C125.484 68.0065 125.972 68.517 126.681 68.8781C127.387 69.2451 128.396 69.4299 129.721 69.4299C130.812 69.4299 131.875 69.3261 132.903 69.1203C133.925 68.9178 134.96 68.636 136.008 68.2672L136.762 76.06C135.395 76.5612 133.915 76.9924 132.321 77.3552C130.724 77.7231 128.833 77.9002 126.647 77.9002C123.505 77.9002 121.069 77.4336 119.334 76.5047C117.601 75.569 116.376 74.2907 115.642 72.6724C114.919 71.06 114.596 69.2013 114.687 67.1071C114.78 65.0079 115.097 62.8015 115.642 60.4778L122.343 32.1897Z" fill="#4D4D4D"/>
<path d="M141.233 62.7357C141.233 59.64 141.734 56.7206 142.736 53.9878C143.736 51.2523 145.176 48.8603 147.045 46.8075C148.907 44.7648 151.176 43.1465 153.846 41.9585C156.504 40.7773 159.48 40.1816 162.76 40.1816C164.812 40.1816 166.646 40.3757 168.259 40.7646C169.879 41.157 171.345 41.6641 172.67 42.3003L169.182 50.2314C168.271 49.8619 167.325 49.5362 166.347 49.2409C165.368 48.9397 164.174 48.7945 162.76 48.7945C159.385 48.7945 156.716 49.9581 154.73 52.2775C152.751 54.5986 151.755 57.723 151.755 61.6422C151.755 63.965 152.256 65.8432 153.262 67.2801C154.262 68.7169 156.111 69.4316 158.795 69.4316C160.12 69.4316 161.398 69.2932 162.622 69.0232C163.856 68.7499 164.945 68.4056 165.904 67.9989L166.659 76.1292C165.38 76.6253 163.969 77.0734 162.422 77.4657C160.871 77.8445 159.025 78.0411 156.885 78.0411C154.059 78.0411 151.667 77.6277 149.71 76.8135C147.753 75.9866 146.135 74.8889 144.861 73.4984C143.58 72.1046 142.661 70.477 142.092 68.609C141.523 66.7426 141.233 64.7817 141.233 62.7357Z" fill="#4D4D4D"/>
<path d="M186.161 78.0394C183.747 78.0394 181.65 77.6716 179.872 76.9434C178.098 76.2153 176.629 75.1935 175.467 73.8688C174.304 72.5509 173.433 70.9891 172.836 69.1894C172.24 67.3906 171.953 65.3985 171.953 63.2158C171.953 60.4778 172.393 57.7407 173.281 55.0112C174.165 52.2758 175.477 49.818 177.214 47.6335C178.937 45.4457 181.062 43.657 183.565 42.2623C186.065 40.8769 188.94 40.1799 192.17 40.1799C194.54 40.1799 196.626 40.5486 198.429 41.2768C200.223 42.0033 201.702 43.0335 202.87 44.3514C204.026 45.6761 204.905 47.2311 205.495 49.0333C206.09 50.8288 206.384 52.8259 206.384 55.0104C206.384 57.7399 205.95 60.477 205.089 63.2149C204.228 65.9394 202.95 68.4031 201.262 70.5926C199.578 72.777 197.472 74.5649 194.942 75.9537C192.416 77.3425 189.487 78.0394 186.161 78.0394ZM191.216 48.7937C189.716 48.7937 188.391 49.2291 187.256 50.0888C186.117 50.9587 185.16 52.0522 184.389 53.371C183.609 54.6957 183.031 56.1401 182.641 57.7103C182.253 59.2839 182.064 60.7714 182.064 62.1847C182.064 64.4653 182.431 66.2414 183.155 67.5197C183.888 68.7912 185.205 69.4308 187.119 69.4308C188.624 69.4308 189.942 68.9988 191.084 68.1297C192.216 67.2666 193.174 66.1722 193.951 64.8509C194.726 63.533 195.309 62.0843 195.699 60.5116C196.081 58.9431 196.276 57.4471 196.276 56.0364C196.276 53.7616 195.91 51.9813 195.18 50.7048C194.451 49.4332 193.128 48.7937 191.216 48.7937Z" fill="#4D4D4D"/>
<path d="M217.408 77.0835H207.286L215.827 41.1426H226.015L217.408 77.0835ZM222.322 36.7636C220.911 36.7636 219.632 36.3434 218.498 35.5014C217.359 34.6644 216.787 33.376 216.787 31.6396C216.787 30.6845 216.984 29.7884 217.369 28.943C217.755 28.0992 218.269 27.3728 218.908 26.7552C219.543 26.1426 220.29 25.6532 221.129 25.2845C221.969 24.9217 222.869 24.7403 223.824 24.7403C225.238 24.7403 226.515 25.1605 227.653 26.0025C228.791 26.8488 229.365 28.1372 229.365 29.8644C229.365 30.8228 229.161 31.7223 228.779 32.566C228.397 33.4098 227.883 34.1362 227.246 34.7538C226.605 35.3672 225.867 35.8549 225.027 36.2203C224.18 36.589 223.282 36.7636 222.322 36.7636Z" fill="#4D4D4D"/>
<path d="M233.3 42.7803C234.068 42.5559 234.925 42.2859 235.857 41.9923C236.793 41.6987 237.838 41.4253 239.006 41.1789C240.161 40.925 241.465 40.7191 242.898 40.5596C244.332 40.3968 245.965 40.3175 247.78 40.3175C253.114 40.3175 256.791 41.8708 258.821 44.9682C260.85 48.0655 261.201 52.3045 259.884 57.6774L255.232 77.0835H245.051L249.56 58.0858C249.835 56.8995 250.051 55.7529 250.211 54.6324C250.372 53.522 250.363 52.5433 250.175 51.6962C249.995 50.8592 249.571 50.174 248.914 49.6433C248.247 49.1211 247.238 48.8587 245.871 48.8587C244.552 48.8587 243.21 49.0004 241.841 49.2738L235.212 77.0827H225.027L233.3 42.7803Z" fill="#4D4D4D"/>
</svg>
