<svg width="53" height="46" viewBox="0 0 53 46" fill="none" xmlns="http://www.w3.org/2000/svg">
<path d="M3.55861 15.7599C4.77105 15.7599 5.75393 14.758 5.75393 13.5221C5.75393 12.2862 4.77105 11.2843 3.55861 11.2843C2.34616 11.2843 1.36328 12.2862 1.36328 13.5221C1.36328 14.758 2.34616 15.7599 3.55861 15.7599Z" stroke="#FFCCD5" stroke-width="2" stroke-miterlimit="10"/>
<path d="M10.2818 19.6351H8.12284L4.80078 15.3966" stroke="#FFCCD5" stroke-width="2" stroke-miterlimit="10"/>
<path d="M3.55861 25.2375C4.77105 25.2375 5.75393 24.2356 5.75393 22.9997C5.75393 21.7638 4.77105 20.7619 3.55861 20.7619C2.34616 20.7619 1.36328 21.7638 1.36328 22.9997C1.36328 24.2356 2.34616 25.2375 3.55861 25.2375Z" stroke="#FFCCD5" stroke-width="2" stroke-miterlimit="10"/>
<path d="M10.2832 22.9992H5.76172" stroke="#FFCCD5" stroke-width="2" stroke-miterlimit="10"/>
<path d="M3.55861 34.716C4.77105 34.716 5.75393 33.7141 5.75393 32.4782C5.75393 31.2423 4.77105 30.2404 3.55861 30.2404C2.34616 30.2404 1.36328 31.2423 1.36328 32.4782C1.36328 33.7141 2.34616 34.716 3.55861 34.716Z" stroke="#FFCCD5" stroke-width="2" stroke-miterlimit="10"/>
<path d="M10.2818 26.3644H8.12284L4.80078 30.6029" stroke="#FFCCD5" stroke-width="2" stroke-miterlimit="10"/>
<path d="M49.2305 15.7599C50.4429 15.7599 51.4258 14.758 51.4258 13.5221C51.4258 12.2862 50.4429 11.2843 49.2305 11.2843C48.018 11.2843 47.0352 12.2862 47.0352 13.5221C47.0352 14.758 48.018 15.7599 49.2305 15.7599Z" stroke="#FFCCD5" stroke-width="2" stroke-miterlimit="10"/>
<path d="M42.0117 19.6352H44.665L47.9943 15.3967" stroke="#FFCCD5" stroke-width="2" stroke-miterlimit="10"/>
<path d="M49.2305 34.716C50.4429 34.716 51.4258 33.7141 51.4258 32.4782C51.4258 31.2423 50.4429 30.2404 49.2305 30.2404C48.018 30.2404 47.0352 31.2423 47.0352 32.4782C47.0352 33.7141 48.018 34.716 49.2305 34.716Z" stroke="#FFCCD5" stroke-width="2" stroke-miterlimit="10"/>
<path d="M42.0117 26.3644H44.665L47.9943 30.6029" stroke="#FFCCD5" stroke-width="2" stroke-miterlimit="10"/>
<path d="M49.2305 25.2375C50.4429 25.2375 51.4258 24.2356 51.4258 22.9997C51.4258 21.7638 50.4429 20.7619 49.2305 20.7619C48.018 20.7619 47.0352 21.7638 47.0352 22.9997C47.0352 24.2356 48.018 25.2375 49.2305 25.2375Z" stroke="#FFCCD5" stroke-width="2" stroke-miterlimit="10"/>
<path d="M42.0117 22.9993H47.0348" stroke="#FFCCD5" stroke-width="2" stroke-miterlimit="10"/>
<path d="M17.067 1.37125H42.1678V44.6303H10.4883V8.04016L17.067 1.37125Z" stroke="#7A7A7A" stroke-width="2" stroke-miterlimit="10"/>
<path d="M10.4883 8.04016H17.067V1.37125" stroke="#7A7A7A" stroke-width="2" stroke-miterlimit="10"/>
<path d="M22.3867 11.166V26.6305" stroke="#E62058" stroke-width="2" stroke-linecap="round" stroke-linejoin="round"/>
<path d="M19.0273 14.5894L22.3858 11.166L25.7514 14.5894" stroke="#E62058" stroke-width="2" stroke-linecap="round" stroke-linejoin="round"/>
<path d="M31.1367 34.8342V19.3623" stroke="#E62058" stroke-width="2" stroke-linecap="round" stroke-linejoin="round"/>
<path d="M34.5053 31.4033L31.1397 34.8341L27.7812 31.4033" stroke="#E62058" stroke-width="2" stroke-linecap="round" stroke-linejoin="round"/>
</svg>
