<svg width="31" height="52" viewBox="0 0 31 52" fill="none" xmlns="http://www.w3.org/2000/svg">
<path d="M3.96484 24.7539H8.65973" stroke="#FFCCD5" stroke-width="2" stroke-linecap="round" stroke-linejoin="round"/>
<path d="M3.96484 14.0103H8.65973" stroke="#FFCCD5" stroke-width="2" stroke-linecap="round" stroke-linejoin="round"/>
<path d="M3.96484 19.3818H8.65973" stroke="#FFCCD5" stroke-width="2" stroke-linecap="round" stroke-linejoin="round"/>
<path d="M21.5527 24.7539H26.2476" stroke="#FFCCD5" stroke-width="2" stroke-linecap="round" stroke-linejoin="round"/>
<path d="M21.5527 14.0103H26.2476" stroke="#FFCCD5" stroke-width="2" stroke-linecap="round" stroke-linejoin="round"/>
<path d="M21.5527 19.3818H26.2476" stroke="#FFCCD5" stroke-width="2" stroke-linecap="round" stroke-linejoin="round"/>
<path d="M26.236 12.141C26.236 5.98797 21.2504 1 15.1004 1C8.95041 1 3.96484 5.98797 3.96484 12.141V26.1074C3.96484 32.2604 8.95041 37.2484 15.1004 37.2484C21.2504 37.2484 26.236 32.2604 26.236 26.1074V12.141Z" stroke="#777777" stroke-width="2" stroke-linecap="round" stroke-linejoin="round"/>
<path d="M29.223 27.2998C29.223 34.8524 23.2067 40.987 15.7937 40.987H14.4293C7.01633 40.987 1 34.8632 1 27.2998" stroke="#777777" stroke-width="2" stroke-linecap="round" stroke-linejoin="round"/>
<path d="M15.1055 40.9873V50.7209" stroke="#777777" stroke-width="2" stroke-linecap="round" stroke-linejoin="round"/>
<path d="M24.5823 50.7207H5.63086" stroke="#777777" stroke-width="2" stroke-linecap="round" stroke-linejoin="round"/>
</svg>
