<svg width="46" height="45" viewBox="0 0 46 45" fill="none" xmlns="http://www.w3.org/2000/svg">
<path d="M26.4961 14.5146L41.7807 39.2928" stroke="#FFCCD5" stroke-width="2" stroke-miterlimit="10"/>
<path d="M19.9409 14.5146L4.65625 39.2928" stroke="#FFCCD5" stroke-width="2" stroke-miterlimit="10"/>
<path d="M3.48124 43.6998C4.68764 43.6998 5.66561 42.7133 5.66561 41.4964C5.66561 40.2795 4.68764 39.293 3.48124 39.293C2.27485 39.293 1.29688 40.2795 1.29688 41.4964C1.29688 42.7133 2.27485 43.6998 3.48124 43.6998Z" stroke="#7A7A7A" stroke-width="2" stroke-miterlimit="10"/>
<path d="M42.782 43.6998C43.9884 43.6998 44.9664 42.7133 44.9664 41.4964C44.9664 40.2795 43.9884 39.293 42.782 39.293C41.5756 39.293 40.5977 40.2795 40.5977 41.4964C40.5977 42.7133 41.5756 43.6998 42.782 43.6998Z" stroke="#7A7A7A" stroke-width="2" stroke-miterlimit="10"/>
<path d="M19.9409 30.4852L4.65625 5.70703" stroke="#FFCCD5" stroke-width="2" stroke-miterlimit="10"/>
<path d="M26.4961 30.4852L41.7807 5.70703" stroke="#FFCCD5" stroke-width="2" stroke-miterlimit="10"/>
<path d="M42.782 5.70667C43.9884 5.70667 44.9664 4.72016 44.9664 3.50324C44.9664 2.28632 43.9884 1.2998 42.782 1.2998C41.5756 1.2998 40.5977 2.28632 40.5977 3.50324C40.5977 4.72016 41.5756 5.70667 42.782 5.70667Z" stroke="#7A7A7A" stroke-width="2" stroke-miterlimit="10"/>
<path d="M3.48124 5.70667C4.68764 5.70667 5.66561 4.72016 5.66561 3.50324C5.66561 2.28632 4.68764 1.2998 3.48124 1.2998C2.27485 1.2998 1.29688 2.28632 1.29688 3.50324C1.29688 4.72016 2.27485 5.70667 3.48124 5.70667Z" stroke="#7A7A7A" stroke-width="2" stroke-miterlimit="10"/>
<path d="M23.2148 16.166V28.8343" stroke="#7A7A7A" stroke-width="2" stroke-miterlimit="10"/>
<path d="M29.4904 11.7109V6.30739C29.4904 5.71901 29.1809 5.17265 28.669 4.87846L24.0265 2.1767C23.5205 1.88251 22.8956 1.88251 22.3897 2.1767L17.7472 4.87846C17.2412 5.17265 16.9258 5.71901 16.9258 6.30739V11.7109C16.9258 12.2993 17.2353 12.8456 17.7472 13.1398L22.3897 15.8416C22.8956 16.1358 23.5205 16.1358 24.0265 15.8416L28.669 13.1398C29.1749 12.8456 29.4904 12.2993 29.4904 11.7109Z" stroke="#E62058" stroke-width="2" stroke-miterlimit="10"/>
<path d="M29.4904 38.6923V33.2888C29.4904 32.7004 29.1809 32.1541 28.669 31.8599L24.0265 29.1581C23.5205 28.864 22.8956 28.864 22.3897 29.1581L17.7472 31.8599C17.2412 32.1541 16.9258 32.7004 16.9258 33.2888V38.6923C16.9258 39.2807 17.2353 39.8271 17.7472 40.1213L22.3897 42.823C22.8956 43.1172 23.5205 43.1172 24.0265 42.823L28.669 40.1213C29.1749 39.8271 29.4904 39.2807 29.4904 38.6923Z" stroke="#E62058" stroke-width="2" stroke-miterlimit="10"/>
<path d="M23.2122 7.1115L22.9087 8.34831C23.2539 8.43836 24.3252 8.7926 24.4978 8.09014C24.6764 7.35766 23.5634 7.19556 23.2122 7.1115ZM22.748 8.97271L22.4087 10.3356C22.8253 10.4377 24.111 10.8579 24.3014 10.0834C24.4978 9.27891 23.1646 9.07478 22.748 8.96671V8.97271ZM25.7061 8.10215C25.6228 8.65451 25.3252 8.91868 24.9204 9.01474C25.474 9.30293 25.7537 9.74722 25.4859 10.5157C25.1526 11.4703 24.3669 11.5544 23.3194 11.3503L23.0634 12.3769L22.4504 12.2208L22.7004 11.2062C22.5397 11.1641 22.3789 11.1221 22.2123 11.0801L21.9623 12.1007L21.3493 11.9446L21.6052 10.918C21.4623 10.882 21.3135 10.8399 21.1647 10.8039L20.3672 10.6058L20.6707 9.89731C20.6707 9.89731 21.1231 10.0174 21.1171 10.0114C21.2897 10.0534 21.3671 9.93934 21.3969 9.86129L21.7957 8.23423C21.7957 8.23423 21.8373 8.24624 21.8611 8.25224C21.8373 8.24024 21.8135 8.23423 21.7957 8.23423L22.0813 7.07548C22.0873 6.94339 22.0456 6.77528 21.7957 6.71524C21.8076 6.70924 21.3493 6.60117 21.3493 6.60117L21.51 5.94074L22.3551 6.15688C22.4801 6.1929 22.6111 6.22292 22.748 6.25294L22.998 5.23828L23.611 5.39438L23.367 6.39103C23.5336 6.42706 23.7003 6.46908 23.861 6.50511L24.105 5.51446L24.7181 5.67056L24.4681 6.69123C25.2418 6.9614 25.8132 7.36367 25.7001 8.11415L25.7061 8.10215Z" fill="#232323"/>
<path d="M20.6757 33.2051L22.2411 34.7661C22.7172 35.2404 23.4791 35.2404 23.9493 34.7661L25.5147 33.2051H26.5027L24.4433 35.2584C23.6993 36.0029 22.4911 36.0029 21.7411 35.2584L19.6817 33.2051H20.6698H20.6757ZM25.5266 38.9208L23.9493 37.3478C23.4731 36.8735 22.7113 36.8735 22.2411 37.3478L20.6638 38.9208H19.6758L21.7471 36.8495C22.4911 36.105 23.6993 36.105 24.4493 36.8495L26.5205 38.9208H25.5325H25.5266Z" fill="#232323"/>
</svg>
