<svg width="62" height="49" viewBox="0 0 62 49" fill="none" xmlns="http://www.w3.org/2000/svg">
<path d="M45.8238 11.627H40.6016V16.8492H45.8238V11.627Z" stroke="#FFCCD5" stroke-width="2" stroke-miterlimit="10"/>
<path d="M21.8867 14.2383H28.8497" stroke="#FFCCD5" stroke-width="2" stroke-miterlimit="10"/>
<path d="M33.2031 14.2383H41.0365" stroke="#FFCCD5" stroke-width="2" stroke-miterlimit="10"/>
<path d="M21.0195 23.8125H27.9825" stroke="#FFCCD5" stroke-width="2" stroke-miterlimit="10"/>
<path d="M34.9453 23.8125H41.0379" stroke="#FFCCD5" stroke-width="2" stroke-miterlimit="10"/>
<path d="M21.0195 33.3867H28.8529" stroke="#FFCCD5" stroke-width="2" stroke-miterlimit="10"/>
<path d="M34.0742 33.3867H40.1668" stroke="#FFCCD5" stroke-width="2" stroke-miterlimit="10"/>
<path d="M21.7123 14.3227L18.1797 10.79L14.647 14.3227L18.1797 17.8553L21.7123 14.3227Z" stroke="#FFCCD5" stroke-width="2" stroke-miterlimit="10"/>
<path d="M31.0291 16.8492C32.4712 16.8492 33.6402 15.6801 33.6402 14.2381C33.6402 12.796 32.4712 11.627 31.0291 11.627C29.587 11.627 28.418 12.796 28.418 14.2381C28.418 15.6801 29.587 16.8492 31.0291 16.8492Z" stroke="#E62058" stroke-width="2" stroke-miterlimit="10"/>
<path d="M17.9705 26.4234C19.4126 26.4234 20.5816 25.2544 20.5816 23.8123C20.5816 22.3702 19.4126 21.2012 17.9705 21.2012C16.5284 21.2012 15.3594 22.3702 15.3594 23.8123C15.3594 25.2544 16.5284 26.4234 17.9705 26.4234Z" stroke="#E62058" stroke-width="2" stroke-miterlimit="10"/>
<path d="M43.2127 26.4234C44.6548 26.4234 45.8238 25.2544 45.8238 23.8123C45.8238 22.3702 44.6548 21.2012 43.2127 21.2012C41.7706 21.2012 40.6016 22.3702 40.6016 23.8123C40.6016 25.2544 41.7706 26.4234 43.2127 26.4234Z" stroke="#E62058" stroke-width="2" stroke-miterlimit="10"/>
<path d="M47.0912 33.769L43.5586 30.2363L40.0259 33.769L43.5586 37.3016L47.0912 33.769Z" stroke="#FFCCD5" stroke-width="2" stroke-miterlimit="10"/>
<path d="M34.6108 23.9946L31.0781 20.4619L27.5455 23.9946L31.0781 27.5272L34.6108 23.9946Z" stroke="#FFCCD5" stroke-width="2" stroke-miterlimit="10"/>
<path d="M20.5816 30.7754H15.3594V35.9976H20.5816V30.7754Z" stroke="#FFCCD5" stroke-width="2" stroke-miterlimit="10"/>
<path d="M31.0291 35.9976C32.4712 35.9976 33.6402 34.8286 33.6402 33.3865C33.6402 31.9444 32.4712 30.7754 31.0291 30.7754C29.587 30.7754 28.418 31.9444 28.418 33.3865C28.418 34.8286 29.587 35.9976 31.0291 35.9976Z" stroke="#E62058" stroke-width="2" stroke-miterlimit="10"/>
<path d="M30.9648 7.03976C30.9648 7.03976 37.2663 1.43457 55.3961 1.43457V41.5499C55.3961 41.5499 44.8734 39.5655 30.9648 47.5642" stroke="#7A7A7A" stroke-width="2" stroke-linecap="round" stroke-linejoin="round"/>
<path d="M31.5039 47.2766C31.5039 47.2766 48.1367 42.6637 60.6178 45.8144V3.81906C60.6178 3.81906 58.8074 3.36646 55.7002 4.02795" stroke="#7A7A7A" stroke-width="2" stroke-linecap="round" stroke-linejoin="round"/>
<path d="M31.0875 7.03976C31.0875 7.03976 24.7861 1.43457 6.65625 1.43457V41.5499C6.65625 41.5499 17.179 39.5655 31.0875 47.5642" stroke="#7A7A7A" stroke-width="2" stroke-linecap="round" stroke-linejoin="round"/>
<path d="M30.5475 47.2766C30.5475 47.2766 13.9147 42.6637 1.43359 45.8144V3.81906C1.43359 3.81906 3.24396 3.36646 6.35119 4.02795" stroke="#7A7A7A" stroke-width="2" stroke-linecap="round" stroke-linejoin="round"/>
</svg>
