<svg width="168" height="56" viewBox="0 0 168 56" fill="none" xmlns="http://www.w3.org/2000/svg">
<path d="M77.758 30.018V35.6204C77.7547 35.7352 77.7075 35.8445 77.6263 35.9257C77.545 36.007 77.4358 36.0541 77.3209 36.0574C77.2631 36.0591 77.2055 36.0489 77.1517 36.0275C77.098 36.0061 77.0491 35.974 77.0082 35.9331C76.9673 35.8922 76.9352 35.8433 76.9138 35.7896C76.8924 35.7358 76.8822 35.6782 76.8839 35.6204V30.018C76.8839 28.124 75.8111 26.2433 73.7052 26.2433C71.0033 26.2433 69.8378 28.6008 69.9967 31.0245C69.9967 31.0618 70.0051 31.166 70.0124 31.2571C70.0181 31.3278 70.0232 31.3913 70.0232 31.4086V35.6071C70.023 35.719 69.9829 35.8272 69.91 35.9122C69.8372 35.9971 69.7364 36.0534 69.6259 36.0707C69.5641 36.0789 69.5012 36.0737 69.4416 36.0554C69.382 36.037 69.3271 36.0061 69.2806 35.9646C69.2341 35.9231 69.197 35.872 69.1721 35.8149C69.1471 35.7578 69.1347 35.696 69.1358 35.6336V17.2106C69.1369 17.095 69.1832 16.9844 69.265 16.9026C69.3467 16.8209 69.4573 16.7745 69.5729 16.7735C69.6878 16.7768 69.797 16.8239 69.8783 16.9052C69.9595 16.9864 70.0066 17.0957 70.01 17.2106V27.6207C70.7649 26.2698 72.1158 25.3559 73.6919 25.3559C76.2878 25.3559 77.758 27.6207 77.758 30.018Z" fill="#393939"/>
<path d="M63.693 25.6731C63.6118 25.5918 63.5025 25.5447 63.3877 25.5414H61.0434V22.1375C61.0445 22.0752 61.0322 22.0134 61.0072 21.9562C60.9822 21.8991 60.9452 21.8481 60.8986 21.8066C60.8521 21.7651 60.7972 21.7341 60.7376 21.7158C60.678 21.6975 60.6152 21.6923 60.5533 21.7005C60.4428 21.7178 60.342 21.774 60.2692 21.859C60.1964 21.944 60.1562 22.0521 60.156 22.164V25.5414H57.8912C57.7756 25.5424 57.665 25.5888 57.5833 25.6705C57.5016 25.7523 57.4552 25.8628 57.4541 25.9784C57.4525 26.0363 57.4627 26.0939 57.4841 26.1476C57.5054 26.2014 57.5376 26.2502 57.5785 26.2912C57.6194 26.3321 57.6682 26.3642 57.722 26.3856C57.7758 26.407 57.8334 26.4172 57.8912 26.4155H60.156V35.6734C60.1593 35.7883 60.2065 35.8975 60.2877 35.9788C60.369 36.06 60.4782 36.1071 60.5931 36.1105C60.7087 36.1094 60.8192 36.063 60.901 35.9813C60.9827 35.8996 61.0291 35.789 61.0302 35.6734V26.4155H63.3877C63.4455 26.4172 63.5031 26.407 63.5569 26.3856C63.6106 26.3642 63.6595 26.3321 63.7004 26.2912C63.7413 26.2502 63.7734 26.2014 63.7948 26.1476C63.8162 26.0939 63.8264 26.0363 63.8247 25.9784C63.8214 25.8636 63.7743 25.7543 63.693 25.6731Z" fill="#393939"/>
<path fill-rule="evenodd" clip-rule="evenodd" d="M52.5698 31.1031C52.6592 31.0162 52.7105 30.8975 52.7126 30.7729C52.6993 27.9519 50.5802 25.3295 47.6135 25.3295C44.6467 25.3295 42.5408 27.9784 42.5408 30.7994C42.5408 33.6205 44.6599 36.2694 47.6135 36.2694C49.3352 36.2694 51.0968 35.5145 51.9841 33.9781C52.0276 33.9111 52.0507 33.8328 52.0504 33.753C52.052 33.6951 52.0418 33.6375 52.0204 33.5838C51.9991 33.53 51.9669 33.4812 51.926 33.4402C51.8851 33.3993 51.8362 33.3672 51.7825 33.3458C51.7287 33.3244 51.6711 33.3142 51.6133 33.3159C51.5357 33.3191 51.4601 33.3413 51.3932 33.3806C51.3262 33.4198 51.2699 33.4749 51.2292 33.541C50.3551 34.7993 49.1896 35.3953 47.6135 35.3953C45.3089 35.3953 43.6798 33.4086 43.4547 31.2365H52.2358C52.3604 31.2379 52.4805 31.19 52.5698 31.1031ZM47.6135 26.2036C49.918 26.2036 51.5868 28.1903 51.7722 30.3624H43.4547C43.6798 28.1903 45.3089 26.2036 47.6135 26.2036Z" fill="#393939"/>
<path fill-rule="evenodd" clip-rule="evenodd" d="M93.3893 31.1031C93.4787 31.0162 93.53 30.8975 93.5321 30.7729C93.5189 27.9519 91.3733 25.3295 88.433 25.3295C85.4662 25.3295 83.3603 27.9784 83.3603 30.7994C83.3603 33.6205 85.4795 36.2694 88.433 36.2694C90.1548 36.2694 91.9163 35.5145 92.8036 33.9781C92.8472 33.9111 92.8702 33.8328 92.8699 33.753C92.8715 33.6951 92.8613 33.6375 92.84 33.5838C92.8186 33.53 92.7864 33.4812 92.7455 33.4402C92.7046 33.3993 92.6558 33.3672 92.602 33.3458C92.5482 33.3244 92.4906 33.3142 92.4328 33.3159C92.3552 33.3191 92.2796 33.3413 92.2127 33.3806C92.1457 33.4198 92.0894 33.4749 92.0487 33.541C91.1746 34.7993 90.0091 35.3953 88.433 35.3953C86.1284 35.3953 84.4994 33.4086 84.2742 31.2365H93.0553C93.1799 31.2379 93.3 31.19 93.3893 31.1031ZM88.4197 26.2036C90.7243 26.2036 92.3931 28.1903 92.5785 30.3624H84.261C84.4861 28.1903 86.1152 26.2036 88.4197 26.2036Z" fill="#393939"/>
<path d="M104.326 25.9519C104.335 26.0695 104.296 26.1856 104.219 26.275C104.142 26.3643 104.033 26.4196 103.916 26.4287C101.333 26.8128 100.168 28.9187 100.168 31.3689V35.5674C100.167 35.6793 100.127 35.7875 100.054 35.8724C99.9816 35.9574 99.8808 36.0136 99.7703 36.031C99.7085 36.0392 99.6456 36.0339 99.586 36.0156C99.5265 35.9973 99.4715 35.9664 99.425 35.9249C99.3785 35.8834 99.3414 35.8323 99.3165 35.7752C99.2915 35.7181 99.2791 35.6562 99.2802 35.5939V26.0181C99.2805 25.9062 99.3206 25.7981 99.3934 25.7131C99.4663 25.6281 99.567 25.5719 99.6776 25.5546C99.7394 25.5464 99.8022 25.5516 99.8618 25.5699C99.9214 25.5882 99.9763 25.6192 100.023 25.6607C100.069 25.7022 100.106 25.7532 100.131 25.8104C100.156 25.8675 100.169 25.9293 100.168 25.9916V27.9386C100.896 26.7069 102.34 25.5413 103.85 25.5413C104.075 25.5413 104.326 25.7003 104.326 25.9519Z" fill="#393939"/>
<path fill-rule="evenodd" clip-rule="evenodd" d="M118.62 31.1031C118.709 31.0162 118.761 30.8975 118.763 30.7729C118.75 27.9519 116.63 25.3295 113.664 25.3295C110.697 25.3295 108.591 27.9784 108.591 30.7994C108.591 33.6205 110.71 36.2694 113.664 36.2694C115.386 36.2694 117.147 35.5145 118.034 33.9781C118.078 33.9111 118.101 33.8328 118.101 33.753C118.102 33.6951 118.092 33.6375 118.071 33.5838C118.049 33.53 118.017 33.4812 117.976 33.4402C117.935 33.3993 117.886 33.3672 117.833 33.3458C117.779 33.3244 117.721 33.3142 117.664 33.3159C117.586 33.3191 117.51 33.3413 117.443 33.3806C117.376 33.4198 117.32 33.4749 117.279 33.541C116.405 34.7993 115.24 35.3953 113.664 35.3953C111.359 35.3953 109.73 33.4086 109.505 31.2365H118.286C118.411 31.2379 118.531 31.19 118.62 31.1031ZM113.664 26.2036C115.968 26.2036 117.637 28.1903 117.822 30.3624H109.505C109.73 28.1903 111.359 26.2036 113.664 26.2036Z" fill="#393939"/>
<path d="M132.961 26.0579V35.6734C132.958 35.7882 132.911 35.8975 132.829 35.9787C132.748 36.06 132.639 36.1071 132.524 36.1104C132.466 36.1121 132.408 36.1019 132.355 36.0805C132.301 36.0591 132.252 36.027 132.211 35.9861C132.17 35.9452 132.138 35.8963 132.117 35.8425C132.095 35.7888 132.085 35.7312 132.087 35.6734V33.8456C131.358 35.2893 130.074 36.3356 128.431 36.3356C125.822 36.3356 124.379 34.0708 124.379 31.6735V26.0446C124.38 25.929 124.426 25.8185 124.508 25.7367C124.589 25.655 124.7 25.6086 124.816 25.6075C124.93 25.6109 125.04 25.658 125.121 25.7393C125.202 25.8205 125.249 25.9298 125.253 26.0446V31.6735C125.253 33.5675 126.325 35.4482 128.431 35.4482C131.385 35.4482 132.087 32.6801 132.087 29.6206V26.0314C132.088 25.9605 132.106 25.8909 132.139 25.8284C132.173 25.7659 132.22 25.7123 132.279 25.6721C132.337 25.6319 132.404 25.6063 132.475 25.5974C132.545 25.5884 132.616 25.5965 132.683 25.6208C132.766 25.6595 132.837 25.7212 132.886 25.7987C132.935 25.8761 132.961 25.9661 132.961 26.0579Z" fill="#393939"/>
<path d="M155.198 35.6071V29.9782C155.198 27.5942 153.728 25.3559 151.146 25.3559C149.331 25.3559 147.914 26.5082 147.186 28.1505C146.616 26.4949 145.225 25.3559 143.437 25.3559C141.861 25.3559 140.51 26.2433 139.755 27.5942V25.9916C139.757 25.9293 139.744 25.8675 139.719 25.8103C139.694 25.7532 139.657 25.7022 139.611 25.6607C139.564 25.6192 139.509 25.5882 139.45 25.5699C139.39 25.5516 139.327 25.5464 139.265 25.5546C139.155 25.5719 139.054 25.6281 138.981 25.7131C138.908 25.798 138.868 25.9062 138.868 26.0181V35.6204C138.867 35.6827 138.879 35.7445 138.904 35.8017C138.929 35.8588 138.966 35.9098 139.013 35.9513C139.059 35.9928 139.114 36.0238 139.174 36.0421C139.233 36.0604 139.296 36.0656 139.358 36.0574C139.469 36.0401 139.569 35.9839 139.642 35.8989C139.715 35.814 139.755 35.7058 139.755 35.5939V31.3689C139.773 31.3419 139.767 31.2781 139.761 31.2192C139.758 31.1915 139.755 31.1649 139.755 31.1437C139.663 28.3359 140.762 26.23 143.437 26.23C145.543 26.23 146.616 28.0843 146.616 29.9782V35.6071C146.614 35.665 146.625 35.7225 146.646 35.7763C146.667 35.8301 146.699 35.8789 146.74 35.9198C146.781 35.9608 146.83 35.9929 146.884 36.0143C146.938 36.0357 146.995 36.0458 147.053 36.0442C147.168 36.0409 147.277 35.9937 147.358 35.9125C147.44 35.8312 147.487 35.722 147.49 35.6071V31.2629C147.49 29.0644 148.497 26.23 151.146 26.23C153.252 26.23 154.324 28.0843 154.324 29.9782V35.6071C154.323 35.665 154.333 35.7225 154.354 35.7763C154.376 35.8301 154.408 35.8789 154.449 35.9198C154.49 35.9608 154.538 35.9929 154.592 36.0143C154.646 36.0357 154.704 36.0458 154.761 36.0442C154.876 36.0409 154.986 35.9937 155.067 35.9125C155.148 35.8312 155.195 35.722 155.198 35.6071Z" fill="#393939"/>
<path d="M23.3092 34.7387C23.2021 34.7752 23.141 34.682 23.0682 34.6391C19.4978 32.5319 15.9314 30.4232 12.3688 28.3131C12.3343 28.2957 12.2985 28.281 12.2617 28.2692V28.2221L12.3249 28.1857C12.4146 28.1621 12.503 28.1335 12.5895 28.1L21.0031 24.2718C21.7529 23.9302 22.5026 23.5938 23.2524 23.2554H23.306C23.306 23.3625 23.306 23.4578 23.306 23.5596C23.3088 27.2863 23.3099 31.0127 23.3092 34.7387Z" fill="#343535"/>
<path d="M23.3145 23.258H23.2609C23.2609 23.1508 23.2717 23.0437 23.2717 22.9313C23.2717 18.7454 23.2717 14.5591 23.2717 10.3725C23.2593 10.265 23.2666 10.1561 23.2931 10.0512H23.3156C23.7558 10.7013 24.1393 11.3868 24.5441 12.0584C27.7518 17.379 30.9576 22.6988 34.1617 28.018C34.1927 28.0705 34.2174 28.1251 34.2452 28.1829C34.1545 28.1635 34.0653 28.1374 33.9785 28.1047C33.3905 27.8391 32.8003 27.5692 32.2176 27.2982C31.305 26.8805 30.3921 26.4634 29.4788 26.0471L25.0786 24.0538C24.4927 23.7839 23.9036 23.5215 23.3145 23.258Z" fill="#2F3030"/>
<path d="M23.2966 10.0456C23.2701 10.1506 23.2629 10.2594 23.2752 10.367C23.2752 14.5529 23.2752 18.7391 23.2752 22.9257C23.2752 23.0328 23.2688 23.14 23.2645 23.2524C22.5147 23.5909 21.7649 23.9272 21.0151 24.2689L12.6015 28.0971C12.515 28.1306 12.4267 28.1592 12.337 28.1827C12.5801 27.6772 12.8961 27.2187 13.1842 26.7346C16.5225 21.1855 19.8633 15.6375 23.2066 10.0906C23.2287 10.0599 23.2527 10.0305 23.2784 10.0028L23.2966 10.0456Z" fill="#828384"/>
<path d="M23.3145 23.258C23.9036 23.5215 24.4929 23.784 25.0809 24.0496L29.4811 26.0429C30.3951 26.4585 31.308 26.8756 32.2199 27.294C32.8069 27.5629 33.3981 27.8349 33.9808 28.1005C34.0677 28.1332 34.1568 28.1594 34.2475 28.1787C34.3546 28.3126 34.1961 28.318 34.1479 28.3469C33.2343 28.8932 32.3163 29.4319 31.4005 29.9739C28.772 31.5292 26.1442 33.0841 23.5171 34.6386C23.4507 34.6772 23.3788 34.7055 23.3092 34.7387C23.3092 31.0134 23.3093 27.2883 23.3093 23.5622C23.3104 23.4605 23.3134 23.3597 23.3145 23.258Z" fill="#131313"/>
<path d="M23.2715 36.8549L30.1534 32.7986C31.4673 32.0231 32.7805 31.2469 34.093 30.47L34.2119 30.4047C34.2237 30.5118 34.1498 30.5686 34.1048 30.6307C31.1057 34.8587 28.1066 39.0853 25.1074 43.3105C24.5397 44.1117 23.9731 44.9172 23.4001 45.7119C23.3701 45.7537 23.324 45.9497 23.2319 45.7419C23.3048 45.6798 23.2726 45.5963 23.2726 45.5277C23.2733 42.6357 23.273 39.7448 23.2715 36.8549Z" fill="#2F3030"/>
<path d="M23.271 36.8555C23.271 39.7453 23.271 42.6345 23.271 45.5229C23.271 45.5968 23.3031 45.6803 23.2303 45.7371C23.0771 45.645 23.0107 45.48 22.9089 45.344C19.4314 40.4455 15.9556 35.5462 12.4816 30.6462C12.4377 30.5841 12.397 30.5177 12.352 30.4491C12.442 30.3967 12.4902 30.4684 12.5427 30.4995C16.0595 32.576 19.5756 34.6543 23.091 36.7344C23.1563 36.7751 23.212 36.8169 23.271 36.8555Z" fill="#828384"/>
<path d="M23.2974 10.0456L23.2717 10.0059C23.3188 9.97594 23.3124 10.0199 23.3199 10.0423L23.2974 10.0456Z" fill="#393939"/>
</svg>
