<svg width="106" height="106" viewBox="0 0 106 106" fill="none" xmlns="http://www.w3.org/2000/svg">
<path d="M48.8759 23.5967C49.6324 23.4987 50.3889 23.4286 51.1594 23.3936V14.5259C50.1717 14.3228 49.2121 13.9095 48.3646 13.2791L46.8516 12.1514L48.8689 23.6037L48.8759 23.5967Z" fill="black"/>
<path d="M74.0157 72.3972C73.4973 72.9576 72.958 73.4969 72.3906 74.0223L89.9439 94.9377L94.9311 89.9505L74.0157 72.3972Z" fill="black"/>
<path d="M59.0117 24.08C59.7612 24.2481 60.5037 24.4372 61.2322 24.6683L68.6009 4.42529L61.5473 9.69969L59.0117 24.08Z" fill="black"/>
<path d="M68.3625 28.0095C69.0069 28.4228 69.6373 28.864 70.2397 29.3263L87.9471 8.22174L82.7708 3.04541L68.3555 28.0095H68.3625Z" fill="black"/>
<path d="M53.9679 23.3935C54.7384 23.4286 55.5019 23.5056 56.2514 23.5967L58.2687 12.1443L56.7557 13.272C55.9082 13.9094 54.9486 14.3157 53.9609 14.5188V23.3865L53.9679 23.3935Z" fill="black"/>
<path d="M92.9836 46.8656L81.5312 48.8829C81.6293 49.6394 81.6993 50.3959 81.7344 51.1664H90.6021C90.8052 50.1788 91.2185 49.2192 91.8489 48.3716L92.9766 46.8586L92.9836 46.8656Z" fill="black"/>
<path d="M81.0552 59.0186C80.8871 59.768 80.6979 60.5105 80.4668 61.239L100.71 68.6077L95.4354 61.5542L81.0552 59.0186Z" fill="black"/>
<path d="M77.1313 68.3696C76.718 69.014 76.2768 69.6444 75.8145 70.2468L96.919 87.9542L102.095 82.7778L77.1313 68.3625V68.3696Z" fill="black"/>
<path d="M70.2463 75.8225C69.637 76.2848 69.0066 76.7191 68.3691 77.1394L82.7844 102.103L87.9607 96.9271L70.2534 75.8225H70.2463Z" fill="black"/>
<path d="M78.5324 65.9461L104.001 80.6485C105.556 78.246 105.521 75.0799 103.77 72.6984L79.506 63.8657C79.2118 64.5732 78.8756 65.2666 78.5254 65.9391L78.5324 65.9461Z" fill="black"/>
<path d="M65.9397 78.54C65.2603 78.8903 64.5738 79.2195 63.8594 79.5207L72.6921 103.784C75.0736 105.535 78.2466 105.57 80.6422 104.015L65.9397 78.547V78.54Z" fill="black"/>
<path d="M61.2322 80.4802C60.5037 80.7044 59.7612 80.8935 59.0117 81.0616L61.5473 95.4489L68.6009 100.723L61.2322 80.4802Z" fill="black"/>
<path d="M81.5391 56.2587L92.9914 58.276L91.8637 56.7631C91.2263 55.9155 90.82 54.9559 90.6169 53.9683H81.7492C81.7142 54.7388 81.6371 55.5022 81.5461 56.2517L81.5391 56.2587Z" fill="black"/>
<path d="M65.9397 26.6017L80.6422 1.13331C78.2396 -0.421687 75.0736 -0.386665 72.6921 1.36446L63.8594 25.6281C64.5668 25.9223 65.2603 26.2585 65.9397 26.6087V26.6017Z" fill="black"/>
<path d="M75.8145 34.8951C76.2768 35.5045 76.711 36.1279 77.1313 36.7723L102.095 22.357L96.919 17.1807L75.8145 34.8881V34.8951Z" fill="black"/>
<path d="M95.4354 43.5877L100.71 36.5342L80.4668 43.9029C80.6909 44.6314 80.8801 45.3739 81.0552 46.1234L95.4424 43.5877H95.4354Z" fill="black"/>
<path d="M72.3906 31.1267C72.951 31.645 73.4903 32.1843 74.0157 32.7517L94.9311 15.1984L89.9439 10.2112L72.3906 31.1267Z" fill="black"/>
<path d="M79.5068 41.276L103.77 32.4433C105.522 30.0617 105.557 26.8887 104.002 24.4932L78.5332 39.1956C78.8834 39.8751 79.2127 40.5615 79.5139 41.276H79.5068Z" fill="black"/>
<path d="M31.1186 32.7446C31.6369 32.1843 32.1763 31.6449 32.7436 31.1196L15.1903 10.2041L10.2031 15.1913L31.1186 32.7446Z" fill="black"/>
<path d="M29.3122 70.2539C28.8499 69.6445 28.4156 69.0211 27.9953 68.3767L3.03125 82.792L8.20759 87.9683L29.3122 70.2609V70.2539Z" fill="black"/>
<path d="M36.5332 100.716L43.5868 95.442L46.1224 81.0548C45.3729 80.8867 44.6304 80.6975 43.9019 80.4734L36.5332 100.716Z" fill="black"/>
<path d="M32.7378 74.0223C32.1775 73.5039 31.6381 72.9646 31.1128 72.3972L10.1973 89.9505L15.1845 94.9377L32.7378 74.0223Z" fill="black"/>
<path d="M24.0726 46.1234C24.2407 45.3739 24.4299 44.6314 24.661 43.9029L4.41797 36.5342L9.69239 43.5877L24.0796 46.1234H24.0726Z" fill="black"/>
<path d="M24.661 61.239C24.4369 60.5105 24.2477 59.768 24.0726 59.0186L9.69239 61.5542L4.41797 68.6077L24.661 61.239Z" fill="black"/>
<path d="M43.8961 24.6683C44.6246 24.4442 45.367 24.2551 46.1165 24.08L43.5809 9.69969L36.5273 4.42529L43.8961 24.6683Z" fill="black"/>
<path d="M56.2522 81.5451C55.4957 81.6432 54.7392 81.7132 53.9688 81.7482V90.6159C54.9564 90.8191 55.916 91.2323 56.7635 91.8627L58.2765 92.9905L56.2592 81.5381L56.2522 81.5451Z" fill="black"/>
<path d="M51.166 81.7481C50.3955 81.713 49.632 81.636 48.8825 81.5449L46.8652 92.9973L48.3782 91.8696C49.2257 91.2322 50.1853 90.8259 51.173 90.6228V81.7551L51.166 81.7481Z" fill="black"/>
<path d="M36.7643 77.1394C36.1199 76.7261 35.4895 76.2848 34.8871 75.8225L17.1797 96.9271L22.356 102.103L36.7713 77.1394H36.7643Z" fill="black"/>
<path d="M25.621 63.8726L1.35737 72.7052C-0.393761 75.0868 -0.428753 78.2528 1.12625 80.6554L26.5946 65.9529C26.2444 65.2735 25.9152 64.587 25.614 63.8796L25.621 63.8726Z" fill="black"/>
<path d="M23.5891 48.883L12.1367 46.8657L13.2644 48.3787C13.9018 49.2262 14.3081 50.1859 14.5113 51.1735H23.379C23.414 50.403 23.4911 49.6395 23.5821 48.89L23.5891 48.883Z" fill="black"/>
<path d="M28.0032 36.7721C28.4164 36.1277 28.8577 35.4973 29.32 34.8949L8.21541 17.1875L3.03906 22.3638L28.0032 36.7791V36.7721Z" fill="black"/>
<path d="M39.1888 78.5402L24.4863 104.009C26.8889 105.564 30.0549 105.529 32.4364 103.777L41.2692 79.5138C40.5617 79.2196 39.8682 78.8834 39.1888 78.5332V78.5402Z" fill="black"/>
<path d="M23.5899 56.2588C23.4918 55.5023 23.4218 54.7458 23.3868 53.9753H14.5191C14.3159 54.963 13.9027 55.9226 13.2722 56.7701L12.1445 58.2831L23.5969 56.2658L23.5899 56.2588Z" fill="black"/>
<path d="M34.8805 29.3195C35.4898 28.8572 36.1202 28.4229 36.7577 28.0027L22.3424 3.03857L17.166 8.21491L34.8734 29.3195H34.8805Z" fill="black"/>
<path d="M39.1888 26.6016C39.8682 26.2514 40.5547 25.9222 41.2692 25.621L32.4364 1.35738C30.0549 -0.393745 26.8819 -0.428768 24.4863 1.12623L39.1888 26.5946V26.6016Z" fill="black"/>
<path d="M26.5946 39.1956L1.12625 24.4932C-0.428753 26.8957 -0.393761 30.0617 1.35737 32.4433L25.621 41.276C25.9152 40.5685 26.2514 39.8751 26.6017 39.1956H26.5946Z" fill="black"/>
</svg>
