<svg width="122" height="127" viewBox="0 0 122 127" fill="none" xmlns="http://www.w3.org/2000/svg">
<path d="M37.9114 71.8163C37.6527 70.9758 37.4345 70.1191 37.2325 69.2544L2.98242 75.2914C3.91989 78.1119 5.08367 80.7788 6.38482 83.2841L37.9114 71.8082V71.8163Z" fill="black"/>
<path d="M40.1424 77.2471C39.7383 76.4632 39.3584 75.6712 39.0109 74.855L7.95312 86.1612C9.43207 88.6908 11.0161 91.0264 12.6082 93.1518L40.1424 77.2552V77.2471Z" fill="black"/>
<path d="M37.233 54.376C37.427 53.5113 37.6452 52.6547 37.9119 51.8142L6.10248 40.2332C4.75284 42.6981 3.56486 45.3731 2.64355 48.2744L37.2411 54.376H37.233Z" fill="black"/>
<path d="M36.6746 66.0702C36.5614 65.1973 36.4806 64.3245 36.4402 63.4355H0.703125C0.864758 66.4662 1.34157 69.3917 2.06084 72.1718L36.6746 66.0702Z" fill="black"/>
<path d="M62.6655 94.6875C61.8008 94.4935 60.9441 94.2753 60.1036 94.0167L49.1934 123.983C51.6987 124.856 54.3576 125.535 57.1538 125.939L62.6655 94.6875Z" fill="black"/>
<path d="M39.0188 48.7835C39.3582 47.9673 39.7461 47.1672 40.1502 46.3832L12.8585 30.624C11.1209 32.6283 9.38337 34.8911 7.7832 37.4045L39.0269 48.7754L39.0188 48.7835Z" fill="black"/>
<path d="M57.0646 92.9095C56.2483 92.5701 55.4482 92.1822 54.6643 91.7781L38.9697 118.965C41.2164 120.395 43.6167 121.696 46.1785 122.804L57.0646 92.9014V92.9095Z" fill="black"/>
<path d="M43.2782 82.2174C42.7448 81.5143 42.2438 80.795 41.7589 80.0515L14.6045 95.7299C16.5118 98.0978 18.3463 100.143 19.898 101.832L43.2701 82.2174H43.2782Z" fill="black"/>
<path d="M51.8769 90.1617C51.1334 89.6849 50.4061 89.1757 49.711 88.6423L30.0322 112.095C31.9476 113.817 34.0407 115.53 36.2955 117.146L51.8769 90.1536V90.1617Z" fill="black"/>
<path d="M36.4407 60.203C36.4811 59.314 36.57 58.4331 36.675 57.5684L1.76226 51.4102C1.40667 52.9053 1.12384 54.4569 0.929877 56.0652C0.760162 57.4633 0.663186 58.8453 0.630859 60.203H36.4326H36.4407Z" fill="black"/>
<path d="M45.3544 84.6904L22.1035 104.2C23.736 105.945 25.5786 107.893 27.6475 109.889L47.2213 86.5654C46.5747 85.9673 45.9525 85.345 45.3464 84.6904H45.3544Z" fill="black"/>
<path d="M90.5067 88.6421C89.8036 89.1755 89.0843 89.6765 88.3408 90.1614L99.5905 109.638C101.158 108.07 102.653 106.446 104.06 104.781L90.5148 88.6421H90.5067Z" fill="black"/>
<path d="M41.7589 43.5871C42.2357 42.8436 42.7448 42.1163 43.2782 41.4213L20.8597 22.6072C19.2191 24.0942 17.1987 25.9449 15.0732 28.1754L41.7669 43.5871H41.7589Z" fill="black"/>
<path d="M54.673 31.8526C55.4569 31.4485 56.2489 31.0687 57.0732 30.7212L47.949 5.6438C45.6862 6.57319 43.4637 7.5834 41.2979 8.67442L54.6811 31.8445L54.673 31.8526Z" fill="black"/>
<path d="M49.7025 34.9881C50.4056 34.4548 51.1249 33.9537 51.8684 33.4688L38.4206 10.1855C36.2224 11.3897 34.0969 12.6585 32.0684 13.9839L49.6944 34.9881H49.7025Z" fill="black"/>
<path d="M45.3548 38.9403C45.9528 38.2938 46.5751 37.6715 47.2297 37.0653L29.3855 15.7944C27.2357 17.3057 25.1992 18.8655 23.3242 20.4414L45.3629 38.9322L45.3548 38.9403Z" fill="black"/>
<path d="M62.6654 28.9432L57.9619 2.25757C55.6021 2.88794 53.2583 3.63145 50.9551 4.48002L60.1035 29.622C60.944 29.3634 61.8007 29.1452 62.6654 28.9432Z" fill="black"/>
<path d="M68.484 28.1511V0.301758C66.0191 0.552289 63.5623 0.956372 61.1055 1.49784L65.8494 28.3855C66.7222 28.2724 67.595 28.1915 68.484 28.1511Z" fill="black"/>
<path d="M85.5367 91.7781C84.7528 92.1822 83.9608 92.562 83.1445 92.9095L91.703 116.411C93.6103 115.013 95.4367 113.518 97.1824 111.934L85.5448 91.7781H85.5367Z" fill="black"/>
<path d="M98.4432 80.0435C97.9664 80.787 97.4572 81.5143 96.9238 82.2093L111.463 94.4126C112.513 92.667 113.467 90.9294 114.324 89.2161L98.4432 80.0435Z" fill="black"/>
<path d="M101.191 74.855C100.852 75.6712 100.464 76.4713 100.06 77.2552L115.698 86.2824C116.49 84.4721 117.185 82.678 117.783 80.9001L101.183 74.8631L101.191 74.855Z" fill="black"/>
<path d="M94.8466 84.6904C94.2486 85.337 93.6263 85.9592 92.9717 86.5654L106.112 102.228C107.397 100.563 108.61 98.8818 109.725 97.1847L94.8466 84.6985V84.6904Z" fill="black"/>
<path d="M102.977 69.2544C102.783 70.1191 102.565 70.9758 102.298 71.8163L118.744 77.8048C119.269 75.9298 119.698 74.0791 120.045 72.2688L102.969 69.2544H102.977Z" fill="black"/>
<path d="M71.7168 28.1511C72.6058 28.1915 73.4867 28.2804 74.3514 28.3855L79.3136 0.253254C76.8083 0.00272302 74.2706 -0.06193 71.7168 0.0592948V28.1511Z" fill="black"/>
<path d="M68.4848 95.4792C67.5958 95.4388 66.7149 95.3499 65.8502 95.2449L60.3789 126.278C60.6618 126.295 60.9446 126.327 61.2275 126.335C63.7005 126.456 66.1169 126.351 68.4848 126.06V95.4792Z" fill="black"/>
<path d="M103.769 63.4355C103.728 64.3245 103.639 65.2054 103.534 66.0702L120.578 69.0765C120.853 67.1369 121.031 65.2539 121.136 63.4355H103.769Z" fill="black"/>
<path d="M121.079 54.4731L103.534 57.5684C103.647 58.4412 103.728 59.3141 103.769 60.203H121.241C121.265 58.1907 121.201 56.2754 121.079 54.4731Z" fill="black"/>
<path d="M96.9316 41.4212C97.465 42.1243 97.9661 42.8435 98.451 43.5871L116.635 33.089C115.972 31.1251 115.188 29.0401 114.234 26.8984L96.9316 41.4131V41.4212Z" fill="black"/>
<path d="M85.537 31.8526L99.4374 7.76931C98.7909 7.30057 98.1363 6.83992 97.4493 6.39542C95.9704 5.44987 94.451 4.61746 92.8994 3.89819L83.1367 30.7212C83.953 31.0606 84.7531 31.4485 85.5289 31.8526H85.537Z" fill="black"/>
<path d="M90.507 34.9881L107.155 15.1476C105.636 13.2727 103.923 11.4705 101.999 9.80566L88.333 33.4687C89.0765 33.9456 89.8039 34.4547 90.4989 34.9881H90.507Z" fill="black"/>
<path d="M80.1058 94.0166C79.2653 94.2752 78.4087 94.4934 77.5439 94.6874L82.3525 121.979C84.6316 120.912 86.8297 119.676 88.9391 118.302L80.0978 94.0085L80.1058 94.0166Z" fill="black"/>
<path d="M101.191 48.7834L119.197 42.2292C119.173 42.1403 119.157 42.0514 119.132 41.9706C118.752 40.4189 118.259 38.4632 117.613 36.2488L100.06 46.3832C100.464 47.1671 100.844 47.9591 101.191 48.7834Z" fill="black"/>
<path d="M92.9795 37.0733C93.626 37.6713 94.2483 38.2936 94.8544 38.9482L112.796 23.8921C111.753 21.8555 110.541 19.8028 109.151 17.8066L92.9876 37.0733H92.9795Z" fill="black"/>
<path d="M120.789 51.2404C120.547 49.0584 120.224 47.1026 119.9 45.4136L102.307 51.8223C102.565 52.6628 102.783 53.5195 102.985 54.3842L120.797 51.2404H120.789Z" fill="black"/>
<path d="M77.5439 28.9432C78.4087 29.1371 79.2653 29.3553 80.1058 29.622L89.917 2.6697C87.5086 1.78072 85.0437 1.12611 82.5303 0.689697L77.552 28.9432H77.5439Z" fill="black"/>
<path d="M74.3602 95.2449C73.4874 95.358 72.6146 95.4388 71.7256 95.4792V125.519C74.3279 124.993 76.8655 124.25 79.3062 123.296L74.3602 95.2449Z" fill="black"/>
</svg>
