<svg width="49" height="49" viewBox="0 0 49 49" fill="none" xmlns="http://www.w3.org/2000/svg">
<path d="M22.5003 10.8632C22.8485 10.818 23.1968 10.7858 23.5515 10.7697V6.68728C23.0968 6.59376 22.6551 6.40351 22.2649 6.1133L21.5684 5.59413L22.4971 10.8664L22.5003 10.8632Z" fill="#232323"/>
<path d="M34.0733 33.3291C33.8347 33.5871 33.5864 33.8354 33.3252 34.0772L41.4061 43.706L43.702 41.41L34.0733 33.3291Z" fill="#232323"/>
<path d="M27.167 11.0857C27.512 11.1631 27.8539 11.2501 28.1892 11.3565L31.5815 2.03738L28.3343 4.46552L27.167 11.0857Z" fill="#232323"/>
<path d="M31.472 12.8947C31.7686 13.0849 32.0589 13.2881 32.3362 13.5009L40.488 3.78512L38.105 1.40212L31.4688 12.8947H31.472Z" fill="#232323"/>
<path d="M24.845 10.7697C25.1997 10.7858 25.5512 10.8212 25.8962 10.8632L26.8249 5.5909L26.1284 6.11007C25.7382 6.40351 25.2965 6.59054 24.8418 6.68405V10.7664L24.845 10.7697Z" fill="#232323"/>
<path d="M42.8064 21.5754L37.5342 22.5041C37.5793 22.8523 37.6116 23.2006 37.6277 23.5553H41.7101C41.8036 23.1006 41.9938 22.6588 42.284 22.2687L42.8032 21.5722L42.8064 21.5754Z" fill="#232323"/>
<path d="M37.3148 27.1701C37.2374 27.5151 37.1504 27.8569 37.0439 28.1923L46.3631 31.5846L43.935 28.3374L37.3148 27.1701Z" fill="#232323"/>
<path d="M35.5095 31.475C35.3193 31.7716 35.1161 32.0619 34.9033 32.3392L44.6191 40.491L47.0021 38.108L35.5095 31.4717V31.475Z" fill="#232323"/>
<path d="M32.3388 34.906C32.0583 35.1188 31.7681 35.3187 31.4746 35.5122L38.1109 47.0048L40.4939 44.6218L32.342 34.906H32.3388Z" fill="#232323"/>
<path d="M36.1536 30.3593L47.8783 37.1277C48.5942 36.0217 48.5781 34.5642 47.7719 33.4678L36.6018 29.4015C36.4664 29.7272 36.3116 30.0465 36.1504 30.356L36.1536 30.3593Z" fill="#232323"/>
<path d="M30.3561 36.1571C30.0434 36.3184 29.7273 36.4699 29.3984 36.6086L33.4647 47.7787C34.5611 48.5848 36.0218 48.601 37.1246 47.8851L30.3561 36.1604V36.1571Z" fill="#232323"/>
<path d="M28.1892 37.0503C27.8539 37.1535 27.512 37.2406 27.167 37.318L28.3343 43.9414L31.5815 46.3695L28.1892 37.0503Z" fill="#232323"/>
<path d="M37.5371 25.8996L42.8094 26.8283L42.2902 26.1318C41.9968 25.7416 41.8097 25.2998 41.7162 24.8451H37.6338C37.6177 25.1998 37.5823 25.5513 37.5403 25.8964L37.5371 25.8996Z" fill="#232323"/>
<path d="M30.3561 12.2465L37.1246 0.521796C36.0186 -0.19407 34.5611 -0.177947 33.4647 0.628209L29.3984 11.7983C29.7241 11.9337 30.0434 12.0885 30.3561 12.2498V12.2465Z" fill="#232323"/>
<path d="M34.9033 16.0645C35.1161 16.345 35.3161 16.632 35.5095 16.9287L47.0021 10.2924L44.6191 7.90941L34.9033 16.0613V16.0645Z" fill="#232323"/>
<path d="M43.935 20.0663L46.3631 16.8191L37.0439 20.2114C37.1471 20.5467 37.2342 20.8885 37.3148 21.2336L43.9382 20.0663H43.935Z" fill="#232323"/>
<path d="M33.3252 14.3296C33.5832 14.5683 33.8315 14.8166 34.0733 15.0778L43.702 6.99684L41.4061 4.70091L33.3252 14.3296Z" fill="#232323"/>
<path d="M36.6015 19.0021L47.7717 14.9359C48.5778 13.8395 48.5939 12.3787 47.8781 11.2759L36.1533 18.0444C36.3146 18.3572 36.4661 18.6732 36.6048 19.0021H36.6015Z" fill="#232323"/>
<path d="M14.326 15.0745C14.5646 14.8166 14.8129 14.5683 15.0741 14.3264L6.9932 4.69769L4.69727 6.99362L14.326 15.0745Z" fill="#232323"/>
<path d="M13.4943 32.3424C13.2815 32.0619 13.0816 31.7749 12.8881 31.4782L1.39551 38.1145L3.77851 40.4975L13.4943 32.3456V32.3424Z" fill="#232323"/>
<path d="M16.8193 46.3663L20.0665 43.9381L21.2338 37.3148C20.8888 37.2374 20.547 37.1503 20.2116 37.0471L16.8193 46.3663Z" fill="#232323"/>
<path d="M15.0712 34.0772C14.8132 33.8386 14.5649 33.5903 14.3231 33.3291L4.69434 41.41L6.99027 43.706L15.0712 34.0772Z" fill="#232323"/>
<path d="M11.0825 21.2336C11.1599 20.8885 11.2469 20.5467 11.3534 20.2114L2.03418 16.8191L4.46233 20.0663L11.0857 21.2336H11.0825Z" fill="#232323"/>
<path d="M11.3534 28.1923C11.2502 27.8569 11.1631 27.5151 11.0825 27.1701L4.46233 28.3374L2.03418 31.5846L11.3534 28.1923Z" fill="#232323"/>
<path d="M20.2077 11.3565C20.5431 11.2534 20.8849 11.1663 21.2299 11.0857L20.0626 4.46552L16.8154 2.03738L20.2077 11.3565Z" fill="#232323"/>
<path d="M25.8959 37.5405C25.5477 37.5856 25.1994 37.6179 24.8447 37.634V41.7164C25.2994 41.8099 25.7412 42.0001 26.1313 42.2904L26.8279 42.8095L25.8992 37.5373L25.8959 37.5405Z" fill="#232323"/>
<path d="M23.5551 37.634C23.2004 37.6179 22.8489 37.5824 22.5039 37.5405L21.5752 42.8128L22.2717 42.2936C22.6619 42.0001 23.1037 41.8131 23.5583 41.7196V37.6372L23.5551 37.634Z" fill="#232323"/>
<path d="M16.9252 35.5122C16.6286 35.322 16.3383 35.1188 16.061 34.906L7.90918 44.6218L10.2922 47.0048L16.9284 35.5122H16.9252Z" fill="#232323"/>
<path d="M11.795 29.4048L0.624883 33.471C-0.181273 34.5674 -0.197382 36.0249 0.518484 37.131L12.2432 30.3625C12.082 30.0497 11.9304 29.7337 11.7918 29.408L11.795 29.4048Z" fill="#232323"/>
<path d="M10.8601 22.5041L5.58789 21.5754L6.10705 22.2719C6.40049 22.6621 6.58753 23.1038 6.68104 23.5585H10.7634C10.7795 23.2038 10.815 22.8523 10.8569 22.5073L10.8601 22.5041Z" fill="#232323"/>
<path d="M12.892 16.9287C13.0822 16.632 13.2854 16.3418 13.4982 16.0645L3.78242 7.91264L1.39941 10.2956L12.892 16.9319V16.9287Z" fill="#232323"/>
<path d="M18.0409 36.1571L11.2725 47.8819C12.3785 48.5977 13.836 48.5816 14.9324 47.7754L18.9987 36.6053C18.673 36.4699 18.3537 36.3151 18.0409 36.1539V36.1571Z" fill="#232323"/>
<path d="M10.8598 25.8996C10.8147 25.5513 10.7825 25.2031 10.7663 24.8484H6.68397C6.59046 25.303 6.4002 25.7448 6.10998 26.135L5.59082 26.8315L10.8631 25.9028L10.8598 25.8996Z" fill="#232323"/>
<path d="M16.0584 13.4977C16.339 13.2849 16.6292 13.0849 16.9226 12.8915L10.2863 1.3989L7.90332 3.78189L16.0552 13.4977H16.0584Z" fill="#232323"/>
<path d="M18.0409 12.2465C18.3537 12.0853 18.6698 11.9337 18.9987 11.7951L14.9324 0.624989C13.836 -0.181167 12.3753 -0.19729 11.2725 0.518577L18.0409 12.2433V12.2465Z" fill="#232323"/>
<path d="M12.2432 18.0444L0.518484 11.2759C-0.197382 12.382 -0.181273 13.8395 0.624883 14.9359L11.795 19.0021C11.9304 18.6764 12.0852 18.3572 12.2464 18.0444H12.2432Z" fill="#232323"/>
</svg>
