<svg width="50" height="50" viewBox="0 0 50 50" fill="none" xmlns="http://www.w3.org/2000/svg">
<path d="M11.7685 28.9625L1.27504 32.7818C0.954576 31.8303 0.692975 30.8525 0.490234 29.8519L11.5134 27.9063C11.5821 28.266 11.6704 28.6159 11.7685 28.9625Z" fill="#232323"/>
<path d="M12.6285 31.2057L3.00484 36.7615C2.52088 35.8785 2.09251 34.9597 1.71973 34.0114L12.187 30.2018C12.3211 30.5419 12.4715 30.8787 12.6285 31.2057Z" fill="#232323"/>
<path d="M13.877 33.2658L5.40112 40.3781C4.77001 39.5867 4.18795 38.7594 3.6582 37.8929L13.2622 32.3502C13.4552 32.6641 13.6612 32.9715 13.877 33.2658Z" fill="#232323"/>
<path d="M15.4734 35.0807L8.38732 43.5271C7.63194 42.8535 6.91581 42.1374 6.24219 41.382L14.7017 34.2828C14.947 34.5575 15.2053 34.8256 15.4734 35.0807Z" fill="#232323"/>
<path d="M17.3704 36.5914L11.8768 46.1104C11.0103 45.5807 10.1829 44.9986 9.3916 44.3675L16.4614 35.9374C16.7557 36.1663 17.0598 36.3854 17.3704 36.5914Z" fill="#232323"/>
<path d="M19.5086 37.7457L15.7579 48.0495C14.8096 47.6768 13.8907 47.2484 13.0078 46.7644L18.4949 37.2618C18.8252 37.4351 19.162 37.5986 19.5086 37.7457Z" fill="#232323"/>
<path d="M21.8204 38.5011L19.9172 49.2791C18.9166 49.0763 17.9389 48.8147 16.9873 48.4943L20.7315 38.2035C21.0879 38.318 21.4509 38.4161 21.8204 38.5011Z" fill="#232323"/>
<path d="M24.2308 38.8346V49.7696C23.204 49.7401 22.1936 49.6518 21.2061 49.5047L23.1059 38.73C23.4754 38.7823 23.8515 38.815 24.2308 38.8346Z" fill="#232323"/>
<path d="M28.5628 49.5047C27.5753 49.6518 26.5649 49.7401 25.5381 49.7696V38.8346C25.9174 38.815 26.2935 38.7823 26.663 38.73L28.5628 49.5047Z" fill="#232323"/>
<path d="M32.7813 48.4943C31.8297 48.8147 30.852 49.0763 29.8514 49.2791L27.9482 38.5011C28.3178 38.4161 28.6807 38.318 29.0372 38.2035L32.7813 48.4943Z" fill="#232323"/>
<path d="M36.7615 46.7644C35.8786 47.2484 34.9598 47.6768 34.0114 48.0495L30.2607 37.7457C30.6074 37.5986 30.9442 37.4351 31.2744 37.2618L36.7615 46.7644Z" fill="#232323"/>
<path d="M40.3782 44.3675C39.5869 44.9986 38.7596 45.5807 37.893 46.1104L32.3994 36.5914C32.7101 36.3854 33.0142 36.1663 33.3085 35.9374L40.3782 44.3675Z" fill="#232323"/>
<path d="M43.5262 41.382C42.8525 42.1374 42.1364 42.8535 41.381 43.5271L34.2949 35.0807C34.5631 34.8256 34.8181 34.5575 35.0666 34.2828L43.5262 41.382Z" fill="#232323"/>
<path d="M46.1094 37.8929C45.5797 38.7594 44.9976 39.5867 44.3665 40.3781L35.8906 33.2658C36.1064 32.9682 36.3125 32.6641 36.5021 32.3469L46.1094 37.8929Z" fill="#232323"/>
<path d="M48.0497 34.0114C47.6769 34.9597 47.2486 35.8785 46.7646 36.7615L37.1377 31.2057C37.2979 30.8787 37.4451 30.5419 37.5791 30.2018L48.0497 34.0114Z" fill="#232323"/>
<path d="M49.2786 29.8519C49.0759 30.8525 48.8143 31.8303 48.4938 32.7818L37.9971 28.9625C38.0952 28.6159 38.1835 28.266 38.2521 27.9063L49.2786 29.8519Z" fill="#232323"/>
<path d="M49.77 25.5388C49.7406 26.5656 49.6523 27.576 49.5051 28.5635L38.4492 26.6113C38.4852 26.2582 38.5081 25.8985 38.5179 25.5388H49.77Z" fill="#232323"/>
<path d="M49.7687 24.2308H38.4839C38.461 23.8743 38.4218 23.5212 38.3662 23.1713L49.5039 21.206C49.651 22.1936 49.7393 23.204 49.7687 24.2308Z" fill="#232323"/>
<path d="M49.2791 19.9176L38.112 21.8894C38.027 21.5461 37.9256 21.2093 37.8145 20.8757L48.4943 16.9877C48.8148 17.9393 49.0764 18.917 49.2791 19.9176Z" fill="#232323"/>
<path d="M48.0502 15.7582L37.341 19.656C37.1971 19.3356 37.0434 19.0216 36.8799 18.7143L46.7651 13.0081C47.2491 13.891 47.6775 14.8099 48.0502 15.7582Z" fill="#232323"/>
<path d="M46.1108 11.8767L36.1994 17.5959C36.0065 17.3114 35.8004 17.0302 35.5879 16.7588L44.3679 9.39145C44.999 10.1828 45.581 11.0101 46.1108 11.8767Z" fill="#232323"/>
<path d="M43.5273 8.38755L34.7276 15.7712C34.4857 15.5227 34.2404 15.284 33.9854 15.0551L41.3789 6.24242C42.1375 6.91278 42.8536 7.62891 43.5273 8.38755Z" fill="#232323"/>
<path d="M40.3775 5.40203L32.971 14.2311C32.6963 14.0283 32.4151 13.8354 32.124 13.6523L37.8923 3.65911C38.7589 4.18885 39.5862 4.77092 40.3775 5.40203Z" fill="#232323"/>
<path d="M36.7615 3.00512L30.9866 13.0114C30.6825 12.8577 30.3719 12.7171 30.0547 12.5895L34.0114 1.72C34.9597 2.09278 35.8786 2.52115 36.7615 3.00512Z" fill="#232323"/>
<path d="M32.7818 1.272L28.8218 12.1513C28.5014 12.0532 28.1711 11.9682 27.8408 11.8963L29.8519 0.490471C30.8525 0.693212 31.8302 0.954813 32.7818 1.272Z" fill="#232323"/>
<path d="M28.5596 0.264841L26.5485 11.6772C26.215 11.6314 25.8782 11.6052 25.5381 11.5856V-3.05176e-05C26.5649 0.0293996 27.572 0.11769 28.5596 0.264841Z" fill="#232323"/>
<path d="M24.2305 -3.05176e-05V11.5856C23.8904 11.6052 23.5536 11.6314 23.22 11.6772L21.209 0.264841C22.1965 0.11769 23.2037 0.0293996 24.2305 -3.05176e-05Z" fill="#232323"/>
<path d="M21.9283 11.8963C21.598 11.9682 21.2678 12.0532 20.9473 12.1513L16.9873 1.272C17.9389 0.954813 18.9166 0.693212 19.9172 0.490471L21.9283 11.8963Z" fill="#232323"/>
<path d="M19.7146 12.5895C19.3974 12.7171 19.0868 12.8577 18.7827 13.0114L13.0078 3.00512C13.8907 2.52115 14.8096 2.09278 15.7579 1.72L19.7146 12.5895Z" fill="#232323"/>
<path d="M17.6451 13.6523C17.3541 13.8354 17.0729 14.0283 16.7982 14.2311L9.3916 5.40203C10.1829 4.77092 11.0103 4.18885 11.8768 3.65911L17.6451 13.6523Z" fill="#232323"/>
<path d="M15.7841 15.0551C15.529 15.284 15.2805 15.5227 15.0418 15.7712L6.24219 8.38755C6.91581 7.62891 7.63194 6.91278 8.39059 6.24242L15.7841 15.0551Z" fill="#232323"/>
<path d="M14.1811 16.7588C13.9653 17.0302 13.7625 17.3114 13.5696 17.5959L3.6582 11.8767C4.18795 11.0101 4.77001 10.1828 5.40112 9.39145L14.1811 16.7588Z" fill="#232323"/>
<path d="M12.8901 18.7143C12.7233 19.0216 12.5696 19.3356 12.429 19.656L1.71973 15.7582C2.09251 14.8099 2.52088 13.891 3.00484 13.0081L12.8901 18.7143Z" fill="#232323"/>
<path d="M11.9516 20.8725C11.8404 21.206 11.7391 21.5428 11.6541 21.8862L0.490234 19.9176C0.692975 18.917 0.954576 17.9393 1.27504 16.9877L11.9516 20.8725Z" fill="#232323"/>
<path d="M11.3993 23.1713C11.3437 23.5212 11.3044 23.8743 11.2815 24.2308H0C0.0294301 23.204 0.11772 22.1936 0.264871 21.206L11.3993 23.1713Z" fill="#232323"/>
<path d="M11.3175 26.6113L0.264871 28.5635C0.11772 27.576 0.0294301 26.5656 0 25.5388H11.2488C11.2587 25.8985 11.2815 26.2582 11.3175 26.6113Z" fill="#232323"/>
</svg>
