<svg width="103" height="33" viewBox="0 0 103 33" fill="none" xmlns="http://www.w3.org/2000/svg">
<path d="M24.2492 12.5469L8.15327 12.5343C3.76445 12.5343 0.116094 16.0047 0.0010716 20.4654C-0.00252284 20.5841 0.0963243 20.6829 0.214941 20.6829L16.3109 20.6937C20.6997 20.6955 24.348 17.225 24.4631 12.7661C24.4666 12.6475 24.3678 12.5487 24.2492 12.5487V12.5469Z" fill="#E62058"/>
<path d="M32.4076 0.326545L8.15229 0.313965C3.76348 0.313965 0.115117 3.7844 9.50418e-05 8.2451C-0.0034994 8.36372 0.0953479 8.46257 0.213965 8.46257L24.4693 8.47335C28.8581 8.47515 32.5064 5.00471 32.6215 0.545806C32.6251 0.42719 32.5262 0.328343 32.4076 0.328343V0.326545Z" fill="#E62058"/>
<path d="M4.08067 32.8613C6.33382 32.8613 8.16036 31.0347 8.16036 28.7816C8.16036 26.5284 6.33382 24.7019 4.08067 24.7019C1.82752 24.7019 0.000976563 26.5284 0.000976563 28.7816C0.000976563 31.0347 1.82752 32.8613 4.08067 32.8613Z" fill="#E62058"/>
<path d="M54.0225 4.40503H49.6553V28.7951H54.0225V4.40503Z" fill="#E62058"/>
<path d="M103 20.496C103 15.9599 99.8083 12.1641 95.3063 12.1641C90.4682 12.1641 87.377 16.1288 87.377 20.665C87.377 25.7709 91.0397 29.1317 95.9102 29.1317C98.4299 29.1317 101.016 28.0911 102.596 26.2094L100.11 23.7239C99.3375 24.5632 97.8583 25.6055 96.0108 25.6055C93.6924 25.6055 91.8448 24.0258 91.6094 21.7415H102.898C102.964 21.3713 102.998 20.9346 102.998 20.4978L103 20.496ZM91.8125 18.5479C92.0138 17.0687 93.4929 15.6921 95.3063 15.6921C97.1197 15.6921 98.3975 17.1029 98.5323 18.5479H91.8125Z" fill="#E62058"/>
<path d="M69.3131 14.0431L69.0039 13.7915C67.6866 12.7168 66.0385 12.1489 64.2377 12.1489C59.7519 12.1489 56.2383 15.8889 56.2383 20.6641C56.2383 22.7974 56.9787 24.8301 58.3249 26.3883C59.8094 28.1136 62.108 29.1434 64.4767 29.1434C66.1967 29.1434 67.7171 28.5916 68.9986 27.5025L69.3095 27.2383V28.8001H73.231V12.4921H69.3095V14.0431H69.3131ZM64.7733 25.6909C62.1547 25.6909 60.0232 23.4534 60.0232 20.7018C60.0232 17.9503 62.1547 15.7128 64.7733 15.7128C67.3918 15.7128 69.5233 17.9503 69.5233 20.7018C69.5233 23.4534 67.3918 25.6909 64.7733 25.6909Z" fill="#E62058"/>
<path d="M84.6268 12.1507C82.826 12.1507 81.1779 12.7186 79.8605 13.7933L79.5514 14.0449V12.4939H75.6299V28.8019H79.546V20.3029C79.546 18.9909 80.0798 17.7185 81.0701 16.8576C81.8914 16.1441 82.9446 15.7146 84.0912 15.7146C84.8514 15.7146 85.5685 15.9033 86.2065 16.2375L87.5023 12.6988C86.6127 12.3448 85.644 12.1489 84.625 12.1489L84.6268 12.1507Z" fill="#E62058"/>
<path d="M38.1428 28.7946H42.2405V15.8815H46.8953V12.4722H42.2405V11.7659C42.2405 10.161 42.4939 9.51577 42.9001 8.99817L42.9036 8.99277C43.4806 8.30803 44.3738 7.96117 45.5617 7.96117C45.9248 7.96117 46.3867 8.01329 46.7533 8.09237L47.3751 4.6417C46.6149 4.45838 45.8763 4.3811 44.9417 4.3811C42.9414 4.3811 41.1424 5.05866 39.8735 6.28975C38.6748 7.45256 38.141 9.08982 38.141 11.5952V12.474H35.1396V15.8833H38.141V28.7964L38.1428 28.7946Z" fill="#E62058"/>
</svg>
