<svg width="410" height="106" viewBox="0 0 410 106" fill="none" xmlns="http://www.w3.org/2000/svg">
<path d="M135.434 24.994V44H132.106V24.994H135.434ZM143.858 28.062H132.366V24.994H143.858V28.062ZM142.506 36.226H132.314V33.236H142.506V36.226ZM152.786 24.994V44H149.458V24.994H152.786ZM150.03 44V40.932H160.716V44H150.03ZM168.168 44H164.736L171.6 24.994H175.006L181.87 44H178.36L176.826 39.606H169.728L168.168 44ZM172.874 30.662L170.69 36.798H175.864L173.68 30.662C173.611 30.402 173.533 30.142 173.446 29.882C173.359 29.622 173.307 29.3967 173.29 29.206C173.255 29.3793 173.195 29.6047 173.108 29.882C173.039 30.142 172.961 30.402 172.874 30.662ZM190.181 44H186.853V24.994H194.107C196.257 24.994 197.929 25.514 199.125 26.554C200.339 27.594 200.945 29.05 200.945 30.922C200.945 32.1873 200.651 33.2707 200.061 34.172C199.489 35.056 198.64 35.732 197.513 36.2L201.127 44H197.487L194.263 36.902H190.181V44ZM190.181 27.958V33.964H194.107C195.165 33.964 195.988 33.6953 196.577 33.158C197.167 32.6207 197.461 31.8753 197.461 30.922C197.461 29.9687 197.167 29.2407 196.577 28.738C195.988 28.218 195.165 27.958 194.107 27.958H190.181ZM218.675 44H206.871V24.994H218.675V28.062H209.029L210.199 26.996V32.95H217.791V35.888H210.199V41.998L209.029 40.932H218.675V44ZM241.694 26.58V44H238.366V26.58H241.694ZM232.802 28.062V24.994H247.258V28.062H232.802ZM255.73 24.994V44H252.402V24.994H255.73ZM265.767 44H262.543V24.994H265.767L271.903 40.126L278.039 24.994H281.315V44H278.091V38.15C278.091 37.1967 278.091 36.3993 278.091 35.758C278.091 35.0993 278.099 34.5447 278.117 34.094C278.134 33.6433 278.151 33.2447 278.169 32.898C278.186 32.5513 278.221 32.2047 278.273 31.858L273.437 44H270.369L265.559 31.884C265.645 32.456 265.697 33.184 265.715 34.068C265.749 34.952 265.767 35.992 265.767 37.188V44ZM299.925 44H288.121V24.994H299.925V28.062H290.279L291.449 26.996V32.95H299.041V35.888H291.449V41.998L290.279 40.932H299.925V44ZM131.014 65.298C131.014 64.1887 131.3 63.2093 131.872 62.36C132.444 61.5107 133.233 60.852 134.238 60.384C135.261 59.8987 136.439 59.656 137.774 59.656C139.057 59.656 140.166 59.8813 141.102 60.332C142.055 60.7827 142.792 61.424 143.312 62.256C143.849 63.088 144.135 64.076 144.17 65.22H140.842C140.807 64.4053 140.513 63.7727 139.958 63.322C139.403 62.854 138.658 62.62 137.722 62.62C136.699 62.62 135.876 62.854 135.252 63.322C134.645 63.7727 134.342 64.3967 134.342 65.194C134.342 65.87 134.524 66.4073 134.888 66.806C135.269 67.1873 135.859 67.4733 136.656 67.664L139.646 68.34C141.275 68.6867 142.489 69.2847 143.286 70.134C144.083 70.966 144.482 72.0927 144.482 73.514C144.482 74.6753 144.196 75.698 143.624 76.582C143.052 77.466 142.237 78.1507 141.18 78.636C140.14 79.104 138.918 79.338 137.514 79.338C136.179 79.338 135.009 79.1127 134.004 78.662C132.999 78.194 132.21 77.544 131.638 76.712C131.083 75.88 130.789 74.9007 130.754 73.774H134.082C134.099 74.5713 134.411 75.204 135.018 75.672C135.642 76.1227 136.483 76.348 137.54 76.348C138.649 76.348 139.525 76.1227 140.166 75.672C140.825 75.204 141.154 74.5887 141.154 73.826C141.154 73.1673 140.981 72.6473 140.634 72.266C140.287 71.8673 139.724 71.59 138.944 71.434L135.928 70.758C134.316 70.4113 133.094 69.7873 132.262 68.886C131.43 67.9673 131.014 66.7713 131.014 65.298ZM161.897 79H150.093V59.994H161.897V63.062H152.251L153.421 61.996V67.95H161.013V70.888H153.421V76.998L152.251 75.932H161.897V79ZM171.407 79H168.079V59.994H175.333C177.483 59.994 179.155 60.514 180.351 61.554C181.565 62.594 182.171 64.05 182.171 65.922C182.171 67.1873 181.877 68.2707 181.287 69.172C180.715 70.056 179.866 70.732 178.739 71.2L182.353 79H178.713L175.489 71.902H171.407V79ZM171.407 62.958V68.964H175.333C176.391 68.964 177.214 68.6953 177.803 68.158C178.393 67.6207 178.687 66.8753 178.687 65.922C178.687 64.9687 178.393 64.2407 177.803 63.738C177.214 63.218 176.391 62.958 175.333 62.958H171.407ZM191.425 59.994V79H188.097V59.994H191.425ZM210.042 79H198.238V59.994H210.042V63.062H200.396L201.566 61.996V67.95H209.158V70.888H201.566V76.998L200.396 75.932H210.042V79ZM215.133 65.298C215.133 64.1887 215.419 63.2093 215.991 62.36C216.563 61.5107 217.352 60.852 218.357 60.384C219.38 59.8987 220.558 59.656 221.893 59.656C223.176 59.656 224.285 59.8813 225.221 60.332C226.174 60.7827 226.911 61.424 227.431 62.256C227.968 63.088 228.254 64.076 228.289 65.22H224.961C224.926 64.4053 224.632 63.7727 224.077 63.322C223.522 62.854 222.777 62.62 221.841 62.62C220.818 62.62 219.995 62.854 219.371 63.322C218.764 63.7727 218.461 64.3967 218.461 65.194C218.461 65.87 218.643 66.4073 219.007 66.806C219.388 67.1873 219.978 67.4733 220.775 67.664L223.765 68.34C225.394 68.6867 226.608 69.2847 227.405 70.134C228.202 70.966 228.601 72.0927 228.601 73.514C228.601 74.6753 228.315 75.698 227.743 76.582C227.171 77.466 226.356 78.1507 225.299 78.636C224.259 79.104 223.037 79.338 221.633 79.338C220.298 79.338 219.128 79.1127 218.123 78.662C217.118 78.194 216.329 77.544 215.757 76.712C215.202 75.88 214.908 74.9007 214.873 73.774H218.201C218.218 74.5713 218.53 75.204 219.137 75.672C219.761 76.1227 220.602 76.348 221.659 76.348C222.768 76.348 223.644 76.1227 224.285 75.672C224.944 75.204 225.273 74.5887 225.273 73.826C225.273 73.1673 225.1 72.6473 224.753 72.266C224.406 71.8673 223.843 71.59 223.063 71.434L220.047 70.758C218.435 70.4113 217.213 69.7873 216.381 68.886C215.549 67.9673 215.133 66.7713 215.133 65.298ZM261.136 69.484C261.136 71.408 260.746 73.1153 259.966 74.606C259.186 76.0793 258.102 77.232 256.716 78.064C255.329 78.896 253.726 79.312 251.906 79.312C250.103 79.312 248.508 78.896 247.122 78.064C245.735 77.232 244.652 76.0793 243.872 74.606C243.109 73.1327 242.728 71.434 242.728 69.51C242.728 67.5687 243.118 65.8613 243.898 64.388C244.678 62.8973 245.752 61.736 247.122 60.904C248.508 60.072 250.112 59.656 251.932 59.656C253.752 59.656 255.346 60.072 256.716 60.904C258.102 61.736 259.186 62.8887 259.966 64.362C260.746 65.8353 261.136 67.5427 261.136 69.484ZM257.652 69.484C257.652 68.132 257.418 66.962 256.95 65.974C256.482 64.986 255.823 64.2233 254.974 63.686C254.124 63.1313 253.11 62.854 251.932 62.854C250.77 62.854 249.756 63.1313 248.89 63.686C248.04 64.2233 247.382 64.986 246.914 65.974C246.446 66.962 246.212 68.132 246.212 69.484C246.212 70.836 246.446 72.0147 246.914 73.02C247.382 74.008 248.04 74.7707 248.89 75.308C249.756 75.8453 250.77 76.114 251.932 76.114C253.11 76.114 254.124 75.8453 254.974 75.308C255.823 74.7533 256.482 73.982 256.95 72.994C257.418 71.9887 257.652 70.8187 257.652 69.484ZM270.187 79H266.859V59.994H274.113C276.262 59.994 277.935 60.514 279.131 61.554C280.344 62.594 280.951 64.05 280.951 65.922C280.951 67.1873 280.656 68.2707 280.067 69.172C279.495 70.056 278.646 70.732 277.519 71.2L281.133 79H277.493L274.269 71.902H270.187V79ZM270.187 62.958V68.964H274.113C275.17 68.964 275.994 68.6953 276.583 68.158C277.172 67.6207 277.467 66.8753 277.467 65.922C277.467 64.9687 277.172 64.2407 276.583 63.738C275.994 63.218 275.17 62.958 274.113 62.958H270.187ZM288.489 79H285.057L291.921 59.994H295.327L302.191 79H298.681L297.147 74.606H290.049L288.489 79ZM293.195 65.662L291.011 71.798H296.185L294.001 65.662C293.932 65.402 293.854 65.142 293.767 64.882C293.68 64.622 293.628 64.3967 293.611 64.206C293.576 64.3793 293.516 64.6047 293.429 64.882C293.36 65.142 293.282 65.402 293.195 65.662ZM314.294 79.312C312.44 79.312 310.828 78.9133 309.458 78.116C308.106 77.3013 307.049 76.166 306.286 74.71C305.541 73.2367 305.168 71.5033 305.168 69.51C305.168 67.534 305.55 65.8093 306.312 64.336C307.092 62.8627 308.184 61.7187 309.588 60.904C310.992 60.0893 312.613 59.682 314.45 59.682C315.958 59.682 317.31 59.9593 318.506 60.514C319.702 61.0687 320.69 61.8487 321.47 62.854C322.25 63.842 322.744 65.0207 322.952 66.39H319.442C319.113 65.2807 318.498 64.4227 317.596 63.816C316.712 63.192 315.629 62.88 314.346 62.88C313.202 62.88 312.197 63.1487 311.33 63.686C310.481 64.2233 309.822 64.986 309.354 65.974C308.886 66.962 308.652 68.1407 308.652 69.51C308.652 70.8273 308.886 71.9887 309.354 72.994C309.822 73.982 310.481 74.7533 311.33 75.308C312.197 75.8453 313.202 76.114 314.346 76.114C315.646 76.114 316.756 75.802 317.674 75.178C318.61 74.554 319.234 73.7133 319.546 72.656H323.004C322.762 73.9733 322.233 75.1347 321.418 76.14C320.621 77.1453 319.607 77.9253 318.376 78.48C317.163 79.0347 315.802 79.312 314.294 79.312ZM331.917 59.994V79H328.589V59.994H331.917ZM329.161 79V75.932H339.847V79H329.161ZM356.983 79H345.179V59.994H356.983V63.062H347.337L348.507 61.996V67.95H356.099V70.888H348.507V76.998L347.337 75.932H356.983V79Z" fill="#232323"/>
<path d="M53.448 25.5732C54.1452 25.3609 54.8557 25.1817 55.5729 25.0159L53.5352 13.5588C52.1007 13.7645 50.6997 14.0232 49.3188 14.3284L53.4547 25.5732H53.448Z" fill="#232323"/>
<path d="M48.9411 27.4026C49.5913 27.0709 50.2482 26.7591 50.9319 26.4738L46.6955 14.957C45.2476 15.3418 43.8265 15.7664 42.439 16.244L48.9478 27.4026H48.9411Z" fill="#232323"/>
<path d="M67.284 13.2388C65.9031 13.1061 64.5021 13.0332 63.0811 13V24.3642C63.8184 24.3973 64.5491 24.4703 65.2663 24.5566L67.284 13.2388Z" fill="#232323"/>
<path d="M67.9146 25.0159C68.6318 25.1751 69.3423 25.3542 70.0395 25.5732L74.1753 14.3284C72.7945 14.0299 71.3868 13.7645 69.959 13.5588L67.9213 25.0159H67.9146Z" fill="#232323"/>
<path d="M34.4768 45.893C34.6377 45.1831 34.8187 44.4799 35.0399 43.79L12.6378 35.7163C10.7542 37.607 9.07172 39.4579 7.5769 41.1961L34.4835 45.893H34.4768Z" fill="#232323"/>
<path d="M38.2356 37.0343C38.6311 36.4239 39.0534 35.8268 39.4958 35.2563L26.3509 24.3433C24.7622 25.4047 23.2406 26.5126 21.7793 27.6338L38.2356 37.0343Z" fill="#232323"/>
<path d="M35.9566 41.3001C36.2381 40.63 36.5599 39.9733 36.8951 39.3298L19.5472 29.4185C17.8446 30.8182 16.2492 32.2446 14.7544 33.6576L35.9633 41.2935L35.9566 41.3001Z" fill="#232323"/>
<path d="M41.2165 33.2199C41.7126 32.6891 42.2287 32.1783 42.7717 31.6808L33.1191 20.29C31.5974 21.0928 30.1294 21.9353 28.7017 22.8176L41.2232 33.2132L41.2165 33.2199Z" fill="#232323"/>
<path d="M44.8289 29.977C45.4121 29.5392 46.0154 29.1279 46.6253 28.7298L39.8886 17.1865C38.4139 17.7637 36.9727 18.3939 35.5718 19.064L44.8222 29.977H44.8289Z" fill="#232323"/>
<path d="M89.0075 45.893L115.914 41.1961C114.426 39.4579 112.737 37.6137 110.853 35.7163L88.4512 43.79C88.6657 44.4799 88.8467 45.1831 89.0142 45.893H89.0075Z" fill="#232323"/>
<path d="M33.8189 53.3264H1C1.18099 54.2021 1.53626 55.0513 2.07921 55.8076C3.01096 57.1078 4.19072 58.6934 5.6118 60.4448L34.0132 55.4891C33.9194 54.7726 33.8524 54.0562 33.8189 53.3264Z" fill="#232323"/>
<path d="M33.8189 50.6735C33.8524 49.9438 33.9261 49.2207 34.0132 48.5108L5.6118 43.5552C4.19072 45.3066 3.01096 46.8921 2.07921 48.1924C1.53626 48.9553 1.18099 49.7978 1 50.6735H33.8189Z" fill="#232323"/>
<path d="M89.6588 53.3271C89.6252 54.0569 89.5515 54.78 89.4644 55.4899L117.866 60.4455C119.287 58.6941 120.467 57.1086 121.398 55.8083C121.941 55.0454 122.297 54.2028 122.478 53.3271H89.6588Z" fill="#232323"/>
<path d="M83.9941 35.2563C84.4366 35.8335 84.8522 36.4239 85.2543 37.0343L101.711 27.6338C100.249 26.506 98.7345 25.4047 97.1391 24.3433L83.9941 35.2563Z" fill="#232323"/>
<path d="M86.5933 39.3309C86.9284 39.9745 87.2435 40.6246 87.5317 41.3013L108.734 33.6654C107.239 32.2458 105.644 30.8261 103.941 29.4263L86.5933 39.3376V39.3309Z" fill="#232323"/>
<path d="M80.7109 31.6888C81.2472 32.1797 81.7633 32.6905 82.2661 33.2279L94.7877 22.8323C93.3599 21.9499 91.8919 21.1074 90.3702 20.3047L80.7176 31.6954L80.7109 31.6888Z" fill="#232323"/>
<path d="M76.8622 28.7376C77.4789 29.129 78.0822 29.547 78.6586 29.9848L87.909 19.0718C86.5081 18.4017 85.0669 17.7715 83.5922 17.1943L76.8555 28.7376H76.8622Z" fill="#232323"/>
<path d="M72.5596 26.4814C73.2366 26.76 73.9002 27.0784 74.5504 27.4101L81.0592 16.2516C79.6717 15.774 78.2506 15.3494 76.8027 14.9646L72.5663 26.4814H72.5596Z" fill="#232323"/>
<path d="M74.5416 76.5942C73.8914 76.9259 73.2345 77.2377 72.5508 77.523L76.7872 89.0398C78.2351 88.655 79.6562 88.2304 81.0437 87.7528L74.5349 76.5942H74.5416Z" fill="#232323"/>
<path d="M78.6617 74.0195C78.0785 74.4574 77.4752 74.8687 76.8652 75.2667L83.602 86.81C85.0767 86.2262 86.5178 85.6026 87.9188 84.9326L78.6684 74.0195H78.6617Z" fill="#232323"/>
<path d="M82.2661 70.7747C81.77 71.3054 81.2539 71.8162 80.7109 72.3138L90.3635 83.7045C91.8852 82.9017 93.3532 82.0592 94.781 81.1769L82.2594 70.7813L82.2661 70.7747Z" fill="#232323"/>
<path d="M70.0395 78.4327C69.3423 78.645 68.6318 78.8241 67.9146 78.9833L69.9523 90.4403C71.3868 90.2347 72.7878 89.976 74.1686 89.6708L70.0328 78.426L70.0395 78.4327Z" fill="#232323"/>
<path d="M85.2543 66.9617C84.8589 67.572 84.4366 68.1691 83.9941 68.7396L97.1391 79.6527C98.7278 78.5912 100.249 77.4833 101.711 76.3622L85.2543 66.9617Z" fill="#232323"/>
<path d="M65.2663 79.4434C64.5423 79.5362 63.8184 79.6026 63.0811 79.6357V90.9999C64.5021 90.9668 65.9098 90.8938 67.284 90.7611L65.2663 79.4434Z" fill="#232323"/>
<path d="M117.866 43.5481L89.4644 48.5038C89.5582 49.2202 89.6252 49.9367 89.6588 50.6665H122.478C122.297 49.7908 121.941 48.9416 121.398 48.1853C120.467 46.885 119.287 45.2995 117.866 43.5481Z" fill="#232323"/>
<path d="M89.0064 58.105C88.8455 58.8148 88.6646 59.518 88.4434 60.208L110.845 68.2817C112.729 66.3909 114.418 64.54 115.906 62.8019L88.9997 58.105H89.0064Z" fill="#232323"/>
<path d="M35.0415 60.208C34.827 59.518 34.646 58.8148 34.4784 58.105L7.57178 62.8019C9.05989 64.54 10.7491 66.3843 12.6327 68.2817L35.0348 60.208H35.0415Z" fill="#232323"/>
<path d="M87.5317 62.7019C87.2502 63.3719 86.9284 64.0287 86.5933 64.6722L103.941 74.5835C105.644 73.1837 107.239 71.7574 108.734 70.3444L87.525 62.7085L87.5317 62.7019Z" fill="#232323"/>
<path d="M60.4036 13.0044C58.9825 13.0376 57.5748 13.1105 56.2007 13.2432L58.2183 24.561C58.9423 24.4681 59.6662 24.4017 60.4036 24.3686V13.0044Z" fill="#232323"/>
<path d="M42.7691 72.3138C42.2328 71.8228 41.7167 71.312 41.214 70.7747L28.6924 81.1703C30.1202 82.0526 31.5882 82.8951 33.1098 83.6978L42.7624 72.3071L42.7691 72.3138Z" fill="#232323"/>
<path d="M36.8891 64.6656C36.5539 64.0221 36.2389 63.3719 35.9506 62.7019L14.7417 70.3377C16.2365 71.7574 17.8319 73.1771 19.5345 74.5769L36.8824 64.6656H36.8891Z" fill="#232323"/>
<path d="M46.6206 75.2667C46.0039 74.8753 45.4006 74.4574 44.8241 74.0195L35.5737 84.9326C36.9747 85.6026 38.4159 86.2329 39.8906 86.81L46.6273 75.2667H46.6206Z" fill="#232323"/>
<path d="M39.4934 68.7447C39.051 68.1676 38.6354 67.5771 38.2332 66.9668L21.7769 76.3673C23.2382 77.4951 24.7531 78.5963 26.3484 79.6578L39.4934 68.7447Z" fill="#232323"/>
<path d="M60.4036 79.6357C59.6662 79.6026 58.9356 79.5296 58.2183 79.4434L56.2007 90.7611C57.5815 90.8938 58.9825 90.9668 60.4036 90.9999V79.6357Z" fill="#232323"/>
<path d="M50.9357 77.523C50.2587 77.2444 49.595 76.9259 48.9448 76.5942L42.436 87.7528C43.8236 88.2304 45.2447 88.655 46.6926 89.0398L50.929 77.523H50.9357Z" fill="#232323"/>
<path d="M55.5669 78.9842C54.8497 78.825 54.1392 78.6459 53.442 78.4336L49.3062 89.6784C50.687 89.9769 52.0947 90.2423 53.5225 90.4479L55.5602 78.9909L55.5669 78.9842Z" fill="#232323"/>
</svg>
