<svg width="410" height="106" viewBox="0 0 410 106" fill="none" xmlns="http://www.w3.org/2000/svg">
<path d="M54.9221 44.0601L19.3154 44.0322C9.60665 44.0322 1.53591 51.7094 1.28146 61.5771C1.27351 61.8395 1.49217 62.0582 1.75457 62.0582L37.3613 62.0821C47.07 62.086 55.1407 54.4089 55.3952 44.5451C55.4031 44.2827 55.1845 44.064 54.9221 44.064V44.0601Z" fill="#E62058"/>
<path d="M72.9719 17.0278L19.3154 17C9.60665 17 1.53591 24.6771 1.28146 34.5449C1.27351 34.8073 1.49217 35.026 1.75457 35.026L55.4111 35.0498C65.1198 35.0538 73.1906 27.3767 73.445 17.5129C73.453 17.2505 73.2343 17.0318 72.9719 17.0318V17.0278Z" fill="#E62058"/>
<path d="M10.3062 89C15.2905 89 19.3311 84.9594 19.3311 79.9751C19.3311 74.9908 15.2905 70.9502 10.3062 70.9502C5.32184 70.9502 1.28125 74.9908 1.28125 79.9751C1.28125 84.9594 5.32184 89 10.3062 89Z" fill="#E62058"/>
<path d="M120.795 26.051H111.134V80.0057H120.795V26.051Z" fill="#E62058"/>
<path d="M229.122 61.6476C229.122 51.6128 222.061 43.2161 212.101 43.2161C201.399 43.2161 194.561 51.9865 194.561 62.0213C194.561 73.3164 202.663 80.751 213.437 80.751C219.011 80.751 224.732 78.449 228.227 74.2864L222.729 68.788C221.019 70.6447 217.747 72.9506 213.66 72.9506C208.531 72.9506 204.444 69.4559 203.923 64.4028H228.895C229.042 63.5838 229.118 62.6177 229.118 61.6516L229.122 61.6476ZM204.373 57.3379C204.818 54.0658 208.09 51.0204 212.101 51.0204C216.113 51.0204 218.94 54.1414 219.238 57.3379H204.373Z" fill="#E62058"/>
<path d="M154.601 47.3708L153.917 46.8142C151.003 44.4368 147.357 43.1804 143.373 43.1804C133.45 43.1804 125.677 51.4539 125.677 62.0175C125.677 66.7367 127.315 71.2332 130.293 74.6802C133.577 78.4969 138.662 80.775 143.902 80.775C147.707 80.775 151.071 79.5544 153.905 77.1451L154.593 76.5607V80.0156H163.268V43.9398H154.593V47.3708H154.601ZM144.558 73.1376C138.766 73.1376 134.05 68.1878 134.05 62.1009C134.05 56.0141 138.766 51.0643 144.558 51.0643C150.351 51.0643 155.066 56.0141 155.066 62.1009C155.066 68.1878 150.351 73.1376 144.558 73.1376Z" fill="#E62058"/>
<path d="M188.508 43.1844C184.524 43.1844 180.878 44.4407 177.964 46.8182L177.28 47.3748V43.9438H168.605V80.0196H177.268V61.2183C177.268 58.316 178.449 55.5012 180.64 53.5968C182.457 52.0185 184.786 51.0683 187.323 51.0683C189.005 51.0683 190.591 51.4857 192.002 52.2252L194.869 44.397C192.901 43.6138 190.758 43.1804 188.504 43.1804L188.508 43.1844Z" fill="#E62058"/>
<path d="M85.6596 80.002H94.7242V51.4363H105.021V43.8944H94.7242V42.3319C94.7242 38.7816 95.2848 37.3543 96.1833 36.2093L96.1913 36.1973C97.4675 34.6826 99.4434 33.9153 102.071 33.9153C102.874 33.9153 103.896 34.0306 104.707 34.2055L106.083 26.5721C104.401 26.1666 102.767 25.9956 100.7 25.9956C96.2748 25.9956 92.2951 27.4945 89.4882 30.2178C86.8364 32.7901 85.6556 36.412 85.6556 41.9542V43.8983H79.0161V51.4403H85.6556V80.006L85.6596 80.002Z" fill="#E62058"/>
<path d="M258.044 55.984H253.884V52.994H261.216V72H258.044V55.984ZM267.077 62.536C267.077 60.56 267.407 58.8353 268.065 57.362C268.741 55.8887 269.677 54.736 270.873 53.904C272.087 53.0547 273.499 52.63 275.111 52.63C276.741 52.63 278.153 53.0547 279.349 53.904C280.563 54.736 281.499 55.8887 282.157 57.362C282.833 58.8353 283.171 60.56 283.171 62.536C283.171 64.4947 282.851 66.2107 282.209 67.684C281.568 69.1573 280.649 70.3013 279.453 71.116C278.257 71.9307 276.81 72.338 275.111 72.338C273.447 72.338 272.009 71.9307 270.795 71.116C269.599 70.3013 268.681 69.1573 268.039 67.684C267.398 66.2107 267.077 64.4947 267.077 62.536ZM270.353 62.536C270.353 63.992 270.544 65.24 270.925 66.28C271.307 67.3027 271.853 68.0827 272.563 68.62C273.274 69.14 274.123 69.4 275.111 69.4C276.134 69.4 276.992 69.14 277.685 68.62C278.396 68.0827 278.942 67.3027 279.323 66.28C279.705 65.24 279.895 63.992 279.895 62.536C279.895 61.028 279.705 59.7627 279.323 58.74C278.942 57.7 278.396 56.9113 277.685 56.374C276.992 55.8367 276.134 55.568 275.111 55.568C274.123 55.568 273.274 55.8367 272.563 56.374C271.853 56.9113 271.307 57.7 270.925 58.74C270.544 59.7627 270.353 61.028 270.353 62.536ZM291.935 55.984H287.775V52.994H295.107V72H291.935V55.984Z" fill="black"/>
</svg>
