<svg width="410" height="106" viewBox="0 0 410 106" fill="none" xmlns="http://www.w3.org/2000/svg">
<path d="M54.9221 44.0601L19.3154 44.0322C9.60665 44.0322 1.53591 51.7094 1.28146 61.5771C1.27351 61.8395 1.49217 62.0582 1.75457 62.0582L37.3613 62.0821C47.07 62.086 55.1407 54.4089 55.3952 44.5451C55.4031 44.2827 55.1845 44.064 54.9221 44.064V44.0601Z" fill="#E62058"/>
<path d="M72.9719 17.0278L19.3154 17C9.60665 17 1.53591 24.6771 1.28146 34.5449C1.27351 34.8073 1.49217 35.026 1.75457 35.026L55.4111 35.0498C65.1198 35.0538 73.1906 27.3767 73.445 17.5129C73.453 17.2505 73.2343 17.0318 72.9719 17.0318V17.0278Z" fill="#E62058"/>
<path d="M10.3062 89C15.2905 89 19.3311 84.9594 19.3311 79.9751C19.3311 74.9908 15.2905 70.9502 10.3062 70.9502C5.32184 70.9502 1.28125 74.9908 1.28125 79.9751C1.28125 84.9594 5.32184 89 10.3062 89Z" fill="#E62058"/>
<path d="M120.795 26.051H111.134V80.0057H120.795V26.051Z" fill="#E62058"/>
<path d="M229.122 61.6476C229.122 51.6128 222.061 43.2161 212.101 43.2161C201.399 43.2161 194.561 51.9865 194.561 62.0213C194.561 73.3164 202.663 80.751 213.437 80.751C219.011 80.751 224.732 78.449 228.227 74.2864L222.729 68.788C221.019 70.6447 217.747 72.9506 213.66 72.9506C208.531 72.9506 204.444 69.4559 203.923 64.4028H228.895C229.042 63.5838 229.118 62.6177 229.118 61.6516L229.122 61.6476ZM204.373 57.3379C204.818 54.0658 208.09 51.0204 212.101 51.0204C216.113 51.0204 218.94 54.1414 219.238 57.3379H204.373Z" fill="#E62058"/>
<path d="M154.601 47.3708L153.917 46.8142C151.003 44.4368 147.357 43.1804 143.373 43.1804C133.45 43.1804 125.677 51.4539 125.677 62.0175C125.677 66.7367 127.315 71.2332 130.293 74.6802C133.577 78.4969 138.662 80.775 143.902 80.775C147.707 80.775 151.071 79.5544 153.905 77.1451L154.593 76.5607V80.0156H163.268V43.9398H154.593V47.3708H154.601ZM144.558 73.1376C138.766 73.1376 134.05 68.1878 134.05 62.1009C134.05 56.0141 138.766 51.0643 144.558 51.0643C150.351 51.0643 155.066 56.0141 155.066 62.1009C155.066 68.1878 150.351 73.1376 144.558 73.1376Z" fill="#E62058"/>
<path d="M188.508 43.1844C184.524 43.1844 180.878 44.4407 177.964 46.8182L177.28 47.3748V43.9438H168.605V80.0196H177.268V61.2183C177.268 58.316 178.449 55.5012 180.64 53.5968C182.457 52.0185 184.786 51.0683 187.323 51.0683C189.005 51.0683 190.591 51.4857 192.002 52.2252L194.869 44.397C192.901 43.6138 190.758 43.1804 188.504 43.1804L188.508 43.1844Z" fill="#E62058"/>
<path d="M85.6596 80.002H94.7242V51.4363H105.021V43.8944H94.7242V42.3319C94.7242 38.7816 95.2848 37.3543 96.1833 36.2093L96.1913 36.1973C97.4675 34.6826 99.4434 33.9153 102.071 33.9153C102.874 33.9153 103.896 34.0306 104.707 34.2055L106.083 26.5721C104.401 26.1666 102.767 25.9956 100.7 25.9956C96.2748 25.9956 92.2951 27.4945 89.4882 30.2178C86.8364 32.7901 85.6556 36.412 85.6556 41.9542V43.8983H79.0161V51.4403H85.6556V80.006L85.6596 80.002Z" fill="#E62058"/>
<path d="M262.944 72H256.106V52.994H262.762C264.634 52.994 266.281 53.4013 267.702 54.216C269.123 55.0133 270.233 56.1313 271.03 57.57C271.845 58.9913 272.252 60.6467 272.252 62.536C272.252 64.3907 271.853 66.0373 271.056 67.476C270.276 68.8973 269.184 70.0067 267.78 70.804C266.393 71.6013 264.781 72 262.944 72ZM259.434 54.528V70.492L257.848 68.932H262.632C263.897 68.932 264.989 68.672 265.908 68.152C266.827 67.632 267.529 66.8953 268.014 65.942C268.499 64.9887 268.742 63.8533 268.742 62.536C268.742 61.184 268.491 60.0313 267.988 59.078C267.485 58.1073 266.766 57.362 265.83 56.842C264.894 56.322 263.767 56.062 262.45 56.062H257.848L259.434 54.528ZM289.756 72H277.952V52.994H289.756V56.062H280.11L281.28 54.996V60.95H288.872V63.888H281.28V69.998L280.11 68.932H289.756V72ZM299.267 52.994V72H295.939V52.994H299.267ZM307.691 56.062H296.199V52.994H307.691V56.062ZM306.339 64.226H296.147V61.236H306.339V64.226ZM316.619 52.994V72H313.291V52.994H316.619ZM335.978 55.984H331.818V52.994H339.15V72H335.978V55.984ZM345.011 62.536C345.011 60.56 345.34 58.8353 345.999 57.362C346.675 55.8887 347.611 54.736 348.807 53.904C350.02 53.0547 351.433 52.63 353.045 52.63C354.674 52.63 356.087 53.0547 357.283 53.904C358.496 54.736 359.432 55.8887 360.091 57.362C360.767 58.8353 361.105 60.56 361.105 62.536C361.105 64.4947 360.784 66.2107 360.143 67.684C359.502 69.1573 358.583 70.3013 357.387 71.116C356.191 71.9307 354.744 72.338 353.045 72.338C351.381 72.338 349.942 71.9307 348.729 71.116C347.533 70.3013 346.614 69.1573 345.973 67.684C345.332 66.2107 345.011 64.4947 345.011 62.536ZM348.287 62.536C348.287 63.992 348.478 65.24 348.859 66.28C349.24 67.3027 349.786 68.0827 350.497 68.62C351.208 69.14 352.057 69.4 353.045 69.4C354.068 69.4 354.926 69.14 355.619 68.62C356.33 68.0827 356.876 67.3027 357.257 66.28C357.638 65.24 357.829 63.992 357.829 62.536C357.829 61.028 357.638 59.7627 357.257 58.74C356.876 57.7 356.33 56.9113 355.619 56.374C354.926 55.8367 354.068 55.568 353.045 55.568C352.057 55.568 351.208 55.8367 350.497 56.374C349.786 56.9113 349.24 57.7 348.859 58.74C348.478 59.7627 348.287 61.028 348.287 62.536ZM369.869 55.984H365.709V52.994H373.041V72H369.869V55.984Z" fill="black"/>
</svg>
