<svg width="410" height="106" viewBox="0 0 410 106" fill="none" xmlns="http://www.w3.org/2000/svg">
<path d="M49.4944 38.6725H51.7596L58.2154 32.26L58.5326 29.5375C54.8343 26.2952 50.3649 24.0428 45.5466 22.9933C40.7282 21.9437 35.7201 22.1315 30.9952 23.539C26.2703 24.9466 21.9846 27.5273 18.543 31.0374C15.1014 34.5476 12.6175 38.8713 11.3259 43.6C12.0451 43.3072 12.8418 43.2598 13.5911 43.465L26.5027 41.35C26.5027 41.35 27.1596 40.27 27.4994 40.3375C30.266 37.3195 34.0893 35.4661 38.1866 35.1565C42.284 34.847 46.3455 36.1048 49.5397 38.6725H49.4944Z" fill="#EA4335"/>
<path d="M67.4121 43.6001C65.9282 38.1722 62.8815 33.2927 58.6458 29.5601L49.5851 38.5601C51.4734 40.0927 52.9867 42.0312 54.0109 44.2295C55.035 46.4277 55.5432 48.8283 55.4972 51.2501V52.8476C56.5562 52.8476 57.6048 53.0547 58.5832 53.4573C59.5616 53.8598 60.4506 54.4498 61.1994 55.1936C61.9482 55.9374 62.5422 56.8204 62.9475 57.7923C63.3527 58.7641 63.5613 59.8057 63.5613 60.8576C63.5613 61.9094 63.3527 62.951 62.9475 63.9229C62.5422 64.8947 61.9482 65.7777 61.1994 66.5215C60.4506 67.2653 59.5616 67.8553 58.5832 68.2578C57.6048 68.6604 56.5562 68.8676 55.4972 68.8676H39.369L37.7607 70.4876V80.0951L39.369 81.6926H55.4972C60.0009 81.7274 64.3964 80.3214 68.0333 77.6825C71.6702 75.0437 74.3554 71.3122 75.6917 67.04C77.028 62.7677 76.9444 58.1817 75.4533 53.9604C73.9622 49.739 71.1428 46.1064 67.4121 43.6001Z" fill="#4285F4"/>
<path d="M23.2183 81.6026H39.3465V68.7776H23.2183C22.0693 68.7774 20.9337 68.5318 19.8885 68.0576L17.6233 68.7551L11.1222 75.1676L10.5559 77.4176C14.2016 80.1521 18.6501 81.6223 23.2183 81.6026Z" fill="#34A853"/>
<path d="M23.2183 40.0001C18.8483 40.0261 14.5957 41.4071 11.0542 43.9502C7.51276 46.4934 4.85942 50.0718 3.46477 54.1855C2.07013 58.2993 2.00383 62.743 3.27513 66.896C4.54644 71.0489 7.09186 74.7038 10.5559 77.3501L19.9111 68.0576C18.7223 67.5241 17.6815 66.7121 16.878 65.6912C16.0746 64.6703 15.5325 63.471 15.2983 62.1962C15.0641 60.9215 15.1447 59.6093 15.5332 58.3723C15.9218 57.1353 16.6067 56.0104 17.5292 55.0941C18.4516 54.1779 19.5841 53.4976 20.8295 53.1116C22.0748 52.7257 23.3958 52.6456 24.6792 52.8782C25.9626 53.1109 27.1699 53.6493 28.1977 54.4474C29.2255 55.2454 30.0431 56.2793 30.5802 57.4601L39.9354 48.1676C37.9719 45.6178 35.4411 43.5538 32.541 42.1369C29.6409 40.72 26.4502 39.9887 23.2183 40.0001Z" fill="#FBBC05"/>
<path d="M119.579 72.6473C116.803 72.6825 114.047 72.1605 111.478 71.1128C108.909 70.0651 106.58 68.5131 104.629 66.5498C102.617 64.6699 101.02 62.395 99.9401 59.8697C98.86 57.3443 98.32 54.6234 98.3546 51.8798C98.3214 49.1364 98.862 46.416 99.942 43.8908C101.022 41.3656 102.618 39.0906 104.629 37.2098C106.57 35.2262 108.896 33.6534 111.465 32.5862C114.034 31.5189 116.795 30.9793 119.579 30.9998C122.233 30.9647 124.867 31.4538 127.329 32.4388C129.79 33.4238 132.03 34.8849 133.918 36.7373L129.886 40.8098C127.125 38.1592 123.419 36.703 119.579 36.7598C117.588 36.7355 115.613 37.123 113.78 37.8977C111.947 38.6724 110.296 39.8174 108.933 41.2598C107.516 42.6561 106.398 44.3228 105.647 46.1595C104.896 47.9963 104.526 49.9651 104.561 51.9473C104.545 53.907 104.923 55.8501 105.674 57.6624C106.424 59.4746 107.533 61.1194 108.933 62.4998C111.738 65.2765 115.524 66.8561 119.484 66.9023C123.443 66.9486 127.265 65.4578 130.135 62.7473C131.912 60.8146 133.002 58.3566 133.239 55.7498H119.647V49.9898H138.879C139.068 51.1499 139.144 52.3253 139.105 53.4998C139.225 55.9307 138.847 58.3605 137.994 60.6422C137.142 62.9239 135.832 65.0102 134.145 66.7748C132.268 68.7151 130.002 70.2409 127.492 71.2527C124.982 72.2646 122.286 72.7398 119.579 72.6473ZM164.294 68.8223C161.713 71.2797 158.276 72.6517 154.701 72.6517C151.126 72.6517 147.689 71.2797 145.108 68.8223C143.824 67.5851 142.812 66.0962 142.137 64.4501C141.463 62.8039 141.14 61.0364 141.189 59.2598C141.141 57.4834 141.465 55.7163 142.139 54.0704C142.814 52.4244 143.825 50.9353 145.108 49.6973C147.692 47.245 151.128 45.8766 154.701 45.8766C158.275 45.8766 161.711 47.245 164.294 49.6973C165.578 50.9353 166.589 52.4244 167.263 54.0704C167.938 55.7163 168.261 57.4834 168.213 59.2598C168.26 61.0381 167.933 62.8065 167.255 64.4528C166.576 66.099 165.56 67.5871 164.272 68.8223H164.294ZM149.344 65.0648C150.031 65.793 150.86 66.3735 151.782 66.7704C152.703 67.1672 153.697 67.372 154.701 67.372C155.706 67.372 156.699 67.1672 157.621 66.7704C158.542 66.3735 159.372 65.793 160.058 65.0648C160.807 64.2964 161.393 63.3868 161.782 62.3899C162.171 61.3929 162.355 60.3286 162.324 59.2598C162.357 58.1874 162.174 57.1193 161.785 56.1184C161.396 55.1175 160.809 54.2042 160.058 53.4323C159.363 52.7116 158.528 52.138 157.603 51.7462C156.679 51.3544 155.684 51.1524 154.679 51.1524C153.673 51.1524 152.679 51.3544 151.754 51.7462C150.83 52.138 149.994 52.7116 149.299 53.4323C148.549 54.2042 147.962 55.1175 147.573 56.1184C147.183 57.1193 147 58.1874 147.034 59.2598C147.005 60.3302 147.193 61.3954 147.586 62.3925C147.979 63.3895 148.569 64.2982 149.321 65.0648H149.344ZM193.787 68.8223C191.206 71.2797 187.769 72.6517 184.194 72.6517C180.619 72.6517 177.182 71.2797 174.601 68.8223C173.316 67.5851 172.305 66.0962 171.63 64.4501C170.955 62.8039 170.633 61.0364 170.682 59.2598C170.634 57.4834 170.957 55.7163 171.632 54.0704C172.307 52.4244 173.317 50.9353 174.601 49.6973C177.182 47.2399 180.619 45.8679 184.194 45.8679C187.769 45.8679 191.206 47.2399 193.787 49.6973C195.071 50.9353 196.082 52.4244 196.756 54.0704C197.431 55.7163 197.754 57.4834 197.706 59.2598C197.755 61.0364 197.433 62.8039 196.758 64.4501C196.083 66.0962 195.072 67.5851 193.787 68.8223ZM178.837 65.0648C179.523 65.793 180.353 66.3735 181.275 66.7704C182.196 67.1672 183.19 67.372 184.194 67.372C185.198 67.372 186.192 67.1672 187.114 66.7704C188.035 66.3735 188.865 65.793 189.551 65.0648C190.3 64.2964 190.886 63.3868 191.275 62.3899C191.664 61.3929 191.848 60.3286 191.816 59.2598C191.85 58.1874 191.667 57.1193 191.278 56.1184C190.889 55.1175 190.302 54.2042 189.551 53.4323C188.856 52.7116 188.02 52.138 187.096 51.7462C186.171 51.3544 185.177 51.1524 184.171 51.1524C183.166 51.1524 182.171 51.3544 181.247 51.7462C180.322 52.138 179.487 52.7116 178.792 53.4323C178.041 54.2042 177.454 55.1175 177.065 56.1184C176.676 57.1193 176.493 58.1874 176.526 59.2598C176.498 60.3302 176.685 61.3954 177.078 62.3925C177.471 63.3895 178.062 64.2982 178.814 65.0648H178.837ZM213.177 84.6623C210.462 84.7481 207.8 83.9062 205.634 82.2773C203.711 80.8416 202.197 78.9343 201.24 76.7423L206.404 74.6048C206.966 75.9148 207.846 77.0664 208.964 77.9573C210.161 78.9158 211.663 79.4184 213.2 79.3748C214.174 79.4337 215.15 79.2833 216.061 78.9339C216.972 78.5844 217.796 78.0441 218.478 77.3498C219.842 75.7147 220.516 73.6179 220.358 71.4998V69.5648H220.154C219.291 70.5832 218.201 71.3879 216.97 71.9151C215.739 72.4423 214.402 72.6776 213.064 72.6023C211.363 72.6074 209.68 72.2621 208.12 71.5883C206.561 70.9144 205.159 69.9266 204.003 68.6873C202.749 67.4579 201.759 65.9884 201.093 64.368C200.428 62.7475 200.1 61.0098 200.13 59.2598C200.098 57.4996 200.425 55.7513 201.091 54.1197C201.757 52.4881 202.747 51.0069 204.003 49.7648C205.156 48.5203 206.557 47.5276 208.117 46.8497C209.677 46.1719 211.361 45.8237 213.064 45.8273C214.505 45.8248 215.928 46.1399 217.232 46.7498C218.36 47.239 219.365 47.9687 220.177 48.8873H220.381V46.7498H225.998V70.7123C226.146 72.6079 225.903 74.5135 225.284 76.3125C224.664 78.1115 223.682 79.766 222.397 81.1748C221.172 82.3383 219.726 83.2463 218.142 83.8453C216.559 84.4443 214.871 84.7221 213.177 84.6623ZM213.585 67.3823C214.552 67.4034 215.512 67.2128 216.397 66.8239C217.282 66.4351 218.07 65.8575 218.704 65.1323C220.102 63.5414 220.839 61.4825 220.766 59.3723C220.85 57.2265 220.113 55.1286 218.704 53.4998C218.071 52.7734 217.283 52.195 216.398 51.806C215.513 51.4171 214.552 51.2271 213.585 51.2498C212.591 51.2295 211.605 51.4197 210.691 51.8077C209.777 52.1956 208.956 52.7725 208.284 53.4998C206.786 55.0701 205.972 57.1643 206.019 59.3273C205.996 60.3883 206.184 61.4433 206.573 62.4318C206.962 63.4203 207.543 64.3228 208.284 65.0873C208.953 65.8217 209.772 66.4062 210.686 66.8019C211.6 67.1976 212.588 67.3955 213.585 67.3823ZM235.988 32.5073V71.8373H230.076V32.5073H235.988ZM252.207 72.6473C250.436 72.6925 248.675 72.3741 247.034 71.7121C245.393 71.05 243.907 70.0586 242.67 68.7998C241.414 67.5503 240.428 66.0603 239.77 64.4203C239.112 62.7804 238.796 61.0247 238.842 59.2598C238.775 57.4906 239.067 55.7262 239.702 54.0717C240.336 52.4172 241.299 50.9065 242.534 49.6298C243.698 48.4114 245.105 47.4477 246.665 46.8007C248.225 46.1537 249.904 45.8374 251.595 45.8723C253.149 45.856 254.691 46.1546 256.125 46.7498C257.417 47.2678 258.595 48.0322 259.591 48.9998C260.446 49.8201 261.206 50.7333 261.856 51.7223C262.382 52.5573 262.829 53.4385 263.193 54.3548L263.804 55.8848L245.683 63.2873C246.231 64.5381 247.148 65.5946 248.312 66.3176C249.477 67.0405 250.834 67.3961 252.207 67.3373C253.541 67.3409 254.855 67.0008 256.018 66.3502C257.181 65.6995 258.155 64.7605 258.844 63.6248L263.374 66.6623C262.218 68.3053 260.738 69.6984 259.025 70.7573C256.987 72.0361 254.616 72.6932 252.207 72.6473ZM244.641 58.8548L256.692 53.8823C256.32 53.0055 255.656 52.2825 254.811 51.8348C253.865 51.3042 252.795 51.0324 251.708 51.0473C249.865 51.0947 248.115 51.8629 246.838 53.1848C246.074 53.9109 245.481 54.7957 245.101 55.7758C244.721 56.756 244.564 57.8073 244.641 58.8548Z" fill="#5F6368"/>
<path d="M294.77 72.6473C292.255 72.6904 289.758 72.2284 287.428 71.289C285.098 70.3496 282.983 68.9523 281.21 67.1808C279.437 65.4093 278.043 63.3002 277.111 60.9802C276.179 58.6601 275.729 56.177 275.787 53.6798C275.729 51.1826 276.179 48.6995 277.111 46.3794C278.043 44.0594 279.437 41.9503 281.21 40.1788C282.983 38.4073 285.098 37.0099 287.428 36.0706C289.758 35.1312 292.255 34.6692 294.77 34.7123C297.314 34.6333 299.844 35.1265 302.17 36.155C304.496 37.1836 306.558 38.721 308.202 40.6523L304.94 43.8023C303.733 42.2946 302.185 41.091 300.422 40.2895C298.659 39.4881 296.73 39.1113 294.792 39.1898C292.927 39.1481 291.073 39.4813 289.34 40.1696C287.608 40.8578 286.034 41.8869 284.712 43.1948C283.338 44.5673 282.264 46.2073 281.559 48.0116C280.853 49.816 280.531 51.7458 280.612 53.6798C280.531 55.6138 280.853 57.5436 281.559 59.348C282.264 61.1523 283.338 62.7923 284.712 64.1648C286.034 65.4728 287.608 66.5018 289.34 67.19C291.073 67.8783 292.927 68.2115 294.792 68.1698C296.957 68.1939 299.099 67.7331 301.06 66.8216C303.021 65.91 304.75 64.5713 306.118 62.9048L309.38 66.1448C307.672 68.1734 305.528 69.7957 303.105 70.8923C300.494 72.0898 297.645 72.6896 294.77 72.6473Z" fill="#5F6368"/>
<path d="M318.146 71.8375H313.458V35.5H318.146V71.8375Z" fill="#5F6368"/>
<path d="M325.803 49.9675C328.26 47.5438 331.582 46.1836 335.045 46.1836C338.508 46.1836 341.83 47.5438 344.287 49.9675C345.488 51.2276 346.427 52.7112 347.049 54.333C347.671 55.9548 347.964 57.6828 347.911 59.4175C347.964 61.1523 347.671 62.8802 347.049 64.5021C346.427 66.1239 345.488 67.6075 344.287 68.8675C341.83 71.2913 338.508 72.6515 335.045 72.6515C331.582 72.6515 328.26 71.2913 325.803 68.8675C324.601 67.6075 323.663 66.1239 323.041 64.5021C322.419 62.8802 322.126 61.1523 322.178 59.4175C322.126 57.6828 322.419 55.9548 323.041 54.333C323.663 52.7112 324.601 51.2276 325.803 49.9675ZM329.291 65.9425C330.03 66.7181 330.92 67.3358 331.908 67.758C332.895 68.1802 333.959 68.3979 335.033 68.3979C336.108 68.3979 337.172 68.1802 338.159 67.758C339.147 67.3358 340.037 66.7181 340.776 65.9425C341.595 65.069 342.232 64.0422 342.648 62.922C343.064 61.8018 343.251 60.6105 343.199 59.4175C343.251 58.2246 343.064 57.0333 342.648 55.9131C342.232 54.7929 341.595 53.7661 340.776 52.8925C340.037 52.117 339.147 51.4993 338.159 51.0771C337.172 50.6549 336.108 50.4372 335.033 50.4372C333.959 50.4372 332.895 50.6549 331.908 51.0771C330.92 51.4993 330.03 52.117 329.291 52.8925C328.472 53.7661 327.835 54.7929 327.419 55.9131C327.003 57.0333 326.815 58.2246 326.867 59.4175C326.821 60.6083 327.014 61.7963 327.434 62.9125C327.854 64.0287 328.493 65.051 329.314 65.92L329.291 65.9425Z" fill="#5F6368"/>
<path d="M373.893 71.8376H369.363V68.3951H369.227C368.42 69.7025 367.279 70.774 365.919 71.5001C364.509 72.3123 362.907 72.7392 361.276 72.7376C359.952 72.8275 358.624 72.6193 357.393 72.1284C356.161 71.6375 355.057 70.8766 354.163 69.9026C352.447 67.7467 351.585 65.0415 351.739 62.2976V46.9976H356.428V61.4426C356.428 66.0776 358.49 68.3951 362.612 68.3951C363.528 68.4234 364.438 68.234 365.265 67.8427C366.093 67.4513 366.814 66.8693 367.369 66.1451C368.585 64.6151 369.232 62.7162 369.204 60.7676V46.9976H373.893V71.8376Z" fill="#5F6368"/>
<path d="M389.817 72.6475C388.227 72.6527 386.654 72.3155 385.207 71.6591C383.76 71.0027 382.474 70.0426 381.436 68.845C379.088 66.2686 377.83 62.8918 377.925 59.4175C377.83 55.9432 379.088 52.5664 381.436 49.99C382.474 48.7924 383.76 47.8323 385.207 47.1759C386.654 46.5195 388.227 46.1823 389.817 46.1875C391.599 46.1596 393.36 46.5774 394.937 47.4025C396.322 48.0951 397.495 49.144 398.334 50.44H398.538L398.334 46.9975V35.5H403.023V71.8375H398.493V68.395H398.289C397.45 69.691 396.277 70.7399 394.891 71.4325C393.328 72.2503 391.584 72.6679 389.817 72.6475ZM390.587 68.395C391.647 68.4103 392.698 68.2016 393.671 67.7826C394.643 67.3637 395.515 66.7441 396.228 65.965C397.821 64.1635 398.634 61.811 398.493 59.4175C398.634 57.024 397.821 54.6715 396.228 52.87C395.51 52.0867 394.636 51.4608 393.661 51.0326C392.685 50.6043 391.631 50.3831 390.565 50.3831C389.498 50.3831 388.444 50.6043 387.469 51.0326C386.494 51.4608 385.619 52.0867 384.902 52.87C384.11 53.7561 383.503 54.7885 383.114 55.9082C382.726 57.0279 382.563 58.2128 382.637 59.395C382.563 60.5772 382.726 61.7621 383.114 62.8818C383.503 64.0015 384.11 65.0339 384.902 65.92C385.616 66.713 386.493 67.3444 387.474 67.7715C388.455 68.1985 389.516 68.4111 390.587 68.395Z" fill="#5F6368"/>
</svg>
