<svg width="57" height="52" viewBox="0 0 57 52" fill="none" xmlns="http://www.w3.org/2000/svg">
<path d="M38.56 50.9839C47.7647 50.9839 55.2266 43.5256 55.2266 34.3253C55.2266 25.125 47.7647 17.6667 38.56 17.6667L17.6664 17.6667C8.46172 17.6667 0.999836 25.125 0.999836 34.3253C0.999836 43.5256 8.46172 50.9839 17.6664 50.9839H38.56Z" stroke="#FFCCD5" stroke-width="2" stroke-linecap="round" stroke-linejoin="round"/>
<path d="M32.4527 34.3332C41.6574 34.3332 49.1193 26.8713 49.1193 17.6666C49.1193 8.46189 41.6574 1 32.4527 1C23.248 1 15.7861 8.46189 15.7861 17.6666C15.7861 26.8713 23.248 34.3332 32.4527 34.3332Z" stroke="#777777" stroke-width="2" stroke-linecap="round" stroke-linejoin="round"/>
<path d="M38.5748 51C47.7795 51 55.2414 43.5381 55.2414 34.3334C55.2414 25.1286 47.7795 17.6667 38.5748 17.6667C29.3701 17.6667 21.9082 25.1286 21.9082 34.3334C21.9082 43.5381 29.3701 51 38.5748 51Z" stroke="#FFCCD5" stroke-width="2" stroke-linecap="round" stroke-linejoin="round"/>
</svg>
