<svg width="52" height="51" viewBox="0 0 52 51" fill="none" xmlns="http://www.w3.org/2000/svg">
<path d="M22.6066 51.0001V46.5801C22.6066 44.3105 22.252 41.7888 19.4154 39.4071C16.7418 37.1586 10.9054 32.2483 10.1821 31.6388C9.44455 31.0224 7.98367 30.9243 7.10431 32.1362C5.89873 33.7963 7.45889 35.1062 7.45889 35.1062L14.1818 40.7661" stroke="#777777" stroke-width="2" stroke-miterlimit="10"/>
<path d="M7.10436 32.136C7.10436 32.136 6.03352 23.303 5.76404 21.4537C5.59384 20.2769 4.37408 19.4503 3.13305 19.5484C1.82109 19.6605 0.920458 20.9354 1.00556 21.9651C1.11193 23.289 1.96293 33.4529 2.01257 34.8469C2.06221 36.2408 2.33878 38.1111 3.82802 39.3089L11.3239 45.6132C11.7352 45.9635 13.0755 46.8741 13.0755 48.6183V50.9929" stroke="#777777" stroke-width="2" stroke-miterlimit="10"/>
<path d="M29.3934 51.0001V46.5801C29.3934 44.3105 29.748 41.7888 32.5847 39.4071C35.2582 37.1586 41.0946 32.2483 41.818 31.6388C42.5555 31.0224 44.0164 30.9243 44.8957 32.1362C46.1013 33.7963 44.5412 35.1062 44.5412 35.1062L37.8183 40.7661" stroke="#777777" stroke-width="2" stroke-miterlimit="10"/>
<path d="M44.8954 32.136C44.8954 32.136 45.9662 23.303 46.2357 21.4537C46.4059 20.2769 47.6257 19.4503 48.8667 19.5484C50.1787 19.6605 51.0793 20.9354 50.9942 21.9651C50.8878 23.289 50.0368 33.4529 49.9872 34.8469C49.9376 36.2478 49.661 38.1111 48.1717 39.3089L40.6759 45.6132C40.2646 45.9635 38.9243 46.8741 38.9243 48.6183V50.9929" stroke="#777777" stroke-width="2" stroke-miterlimit="10"/>
<path d="M18.2422 1H13.171V6.00913H18.2422V1Z" stroke="#FFCCD5" stroke-width="2" stroke-linejoin="round"/>
<path d="M34.8326 6.68789C36.4227 6.68789 37.7118 5.41461 37.7118 3.84394C37.7118 2.27328 36.4227 1 34.8326 1C33.2424 1 31.9534 2.27328 31.9534 3.84394C31.9534 5.41461 33.2424 6.68789 34.8326 6.68789Z" stroke="#E62058" stroke-width="2" stroke-miterlimit="10"/>
<path d="M24.6204 5.76353L26.5422 3.86523L24.6487 2.00195" stroke="#777777" stroke-miterlimit="10"/>
<path d="M18.2422 20.0347H13.171V25.0438H18.2422V20.0347Z" stroke="#FFCCD5" stroke-width="2" stroke-linejoin="round"/>
<path d="M34.8326 25.7226C36.4227 25.7226 37.7118 24.4493 37.7118 22.8786C37.7118 21.3079 36.4227 20.0347 34.8326 20.0347C33.2424 20.0347 31.9534 21.3079 31.9534 22.8786C31.9534 24.4493 33.2424 25.7226 34.8326 25.7226Z" stroke="#E62058" stroke-width="2" stroke-miterlimit="10"/>
<path d="M24.6204 24.7984L26.5422 22.9001L24.6487 21.0369" stroke="#777777" stroke-miterlimit="10"/>
<path d="M32.6407 15.7043L37.7119 15.7043L37.7119 10.6952L32.6407 10.6952L32.6407 15.7043Z" stroke="#FFCCD5" stroke-width="2" stroke-linejoin="round"/>
<path d="M16.0504 10.0165C14.4602 10.0165 13.1712 11.2897 13.1712 12.8604C13.1712 14.4311 14.4602 15.7043 16.0504 15.7043C17.6405 15.7043 18.9296 14.4311 18.9296 12.8604C18.9296 11.2897 17.6405 10.0165 16.0504 10.0165Z" stroke="#E62058" stroke-width="2" stroke-miterlimit="10"/>
<path d="M26.2625 10.9406L24.3407 12.8389L26.2341 14.7021" stroke="#777777" stroke-miterlimit="10"/>
</svg>
