<svg width="56" height="53" viewBox="0 0 56 53" fill="none" xmlns="http://www.w3.org/2000/svg">
<path d="M13.4999 12.1791C15.2085 12.1791 16.5936 10.4693 16.5936 8.36029C16.5936 6.25123 15.2085 4.5415 13.4999 4.5415C11.7913 4.5415 10.4062 6.25123 10.4062 8.36029C10.4062 10.4693 11.7913 12.1791 13.4999 12.1791Z" stroke="#FFCCD5" stroke-width="2" stroke-miterlimit="10"/>
<path d="M9.76953 25.4547V18.9048" stroke="#FFCCD5" stroke-width="2" stroke-miterlimit="10"/>
<path d="M12 12C11.5 15 6.70215 14.4762 6.70215 17.0277V24.0045" stroke="#FFCCD5" stroke-width="2" stroke-miterlimit="10"/>
<path d="M15 12C15.5 15 20.2979 14.4762 20.2979 17.0277V24.0045" stroke="#FFCCD5" stroke-width="2" stroke-miterlimit="10"/>
<path d="M17.2305 25.4547V18.9048" stroke="#FFCCD5" stroke-width="2" stroke-miterlimit="10"/>
<path d="M13.5 26C20.4036 26 26 20.4036 26 13.5C26 6.59644 20.4036 1 13.5 1C6.59644 1 1 6.59644 1 13.5C1 20.4036 6.59644 26 13.5 26Z" stroke="#777777" stroke-width="2" stroke-miterlimit="10"/>
<path d="M42.4999 12.1791C44.2085 12.1791 45.5936 10.4693 45.5936 8.36029C45.5936 6.25123 44.2085 4.5415 42.4999 4.5415C40.7913 4.5415 39.4062 6.25123 39.4062 8.36029C39.4062 10.4693 40.7913 12.1791 42.4999 12.1791Z" stroke="#FFCCD5" stroke-width="2" stroke-miterlimit="10"/>
<path d="M38.7695 25.4547V18.9048" stroke="#FFCCD5" stroke-width="2" stroke-miterlimit="10"/>
<path d="M41 12C40.5 15 35.7021 14.4762 35.7021 17.0277V24.0045" stroke="#FFCCD5" stroke-width="2" stroke-miterlimit="10"/>
<path d="M44 12C44.5 15 49.2979 14.4762 49.2979 17.0277V24.0045" stroke="#FFCCD5" stroke-width="2" stroke-miterlimit="10"/>
<path d="M46.2305 25.4547V18.9048" stroke="#FFCCD5" stroke-width="2" stroke-miterlimit="10"/>
<path d="M42.5 26C49.4036 26 55 20.4036 55 13.5C55 6.59644 49.4036 1 42.5 1C35.5964 1 30 6.59644 30 13.5C30 20.4036 35.5964 26 42.5 26Z" stroke="#777777" stroke-width="2" stroke-miterlimit="10"/>
<path d="M27.4999 37.1791C29.2085 37.1791 30.5936 35.4693 30.5936 33.3603C30.5936 31.2512 29.2085 29.5415 27.4999 29.5415C25.7913 29.5415 24.4062 31.2512 24.4062 33.3603C24.4062 35.4693 25.7913 37.1791 27.4999 37.1791Z" stroke="#FFCCD5" stroke-width="2" stroke-miterlimit="10"/>
<path d="M23.7695 50.4547V43.9048" stroke="#FFCCD5" stroke-width="2" stroke-miterlimit="10"/>
<path d="M26 37C25.5 40 20.7021 39.4762 20.7021 42.0277V49.0045" stroke="#FFCCD5" stroke-width="2" stroke-miterlimit="10"/>
<path d="M29 37C29.5 40 34.2979 39.4762 34.2979 42.0277V49.0045" stroke="#FFCCD5" stroke-width="2" stroke-miterlimit="10"/>
<path d="M31.2305 50.4547V43.9048" stroke="#FFCCD5" stroke-width="2" stroke-miterlimit="10"/>
<path d="M27.5 52C34.4036 52 40 46.4036 40 39.5C40 32.5964 34.4036 27 27.5 27C20.5964 27 15 32.5964 15 39.5C15 46.4036 20.5964 52 27.5 52Z" stroke="#777777" stroke-width="2" stroke-miterlimit="10"/>
<path d="M28.0003 22.9999L23.5529 20.8941" stroke="#777777" stroke-width="2"/>
<path d="M32.5 20.5L28 23" stroke="#777777" stroke-width="2"/>
<path d="M28 23V27.5" stroke="#777777" stroke-width="2"/>
</svg>
