<svg width="52" height="52" viewBox="0 0 52 52" fill="none" xmlns="http://www.w3.org/2000/svg">
<path d="M26 23.3567C29.4172 23.3567 32.1873 19.9372 32.1873 15.7191C32.1873 11.501 29.4172 8.08154 26 8.08154C22.5828 8.08154 19.8127 11.501 19.8127 15.7191C19.8127 19.9372 22.5828 23.3567 26 23.3567Z" stroke="#E62058" stroke-width="2" stroke-miterlimit="10"/>
<path d="M18.5386 49.9088V36.8091" stroke="#E62058" stroke-width="2" stroke-miterlimit="10"/>
<path d="M26.1016 28.8056H26.0068C23.2553 28.8056 21.6695 27.6129 21.2155 25.9661C19.1892 27.5993 12.4055 27.9517 12.4055 33.0547V47.0084" stroke="#E62058" stroke-width="2" stroke-miterlimit="10"/>
<path d="M21.29 26.1893C21.29 26.1893 22.5844 24.4544 22.6048 21.9944" stroke="#E62058" stroke-width="2" stroke-miterlimit="10"/>
<path d="M33.4613 49.9088V36.8091" stroke="#E62058" stroke-width="2" stroke-miterlimit="10"/>
<path d="M25.9052 28.8056H26C28.7515 28.8056 30.3372 27.6129 30.7913 25.9661C32.8176 27.5993 39.6013 27.9517 39.6013 33.0547C39.6013 37.8256 39.6013 47.0084 39.6013 47.0084" stroke="#E62058" stroke-width="2" stroke-miterlimit="10"/>
<path d="M30.7099 26.1893C30.7099 26.1893 29.4155 24.4544 29.3951 21.9944" stroke="#E62058" stroke-width="2" stroke-miterlimit="10"/>
<path d="M26 50.9998C39.8071 50.9998 51 39.8069 51 25.9998C51 12.1926 39.8071 0.999756 26 0.999756C12.1929 0.999756 1 12.1926 1 25.9998C1 39.8069 12.1929 50.9998 26 50.9998Z" stroke="#777777" stroke-width="2" stroke-miterlimit="10"/>
</svg>
