<svg width="24" height="24" viewBox="0 0 24 24" fill="none" xmlns="http://www.w3.org/2000/svg">
<mask id="mask0_1893_9487" style="mask-type:alpha" maskUnits="userSpaceOnUse" x="0" y="0" width="24" height="24">
<rect width="24" height="24" fill="#D9D9D9"/>
</mask>
<g mask="url(#mask0_1893_9487)">
<path d="M8.99975 16.8652C9.24475 16.8652 9.45025 16.7824 9.61625 16.6168C9.78225 16.4509 9.86525 16.2454 9.86525 16.0003C9.86525 15.7553 9.78242 15.5498 9.61675 15.3837C9.45092 15.2177 9.24542 15.1348 9.00025 15.1348C8.75525 15.1348 8.54975 15.2176 8.38375 15.3832C8.21775 15.5491 8.13475 15.7546 8.13475 15.9998C8.13475 16.2448 8.21758 16.4503 8.38325 16.6163C8.54908 16.7823 8.75458 16.8652 8.99975 16.8652ZM11.9998 16.8652C12.2448 16.8652 12.4502 16.7824 12.6163 16.6168C12.7823 16.4509 12.8652 16.2454 12.8652 16.0003C12.8652 15.7553 12.7824 15.5498 12.6168 15.3837C12.4509 15.2177 12.2454 15.1348 12.0003 15.1348C11.7553 15.1348 11.5498 15.2176 11.3837 15.3832C11.2177 15.5491 11.1348 15.7546 11.1348 15.9998C11.1348 16.2448 11.2176 16.4503 11.3833 16.6163C11.5491 16.7823 11.7546 16.8652 11.9998 16.8652ZM14.9998 16.8652C15.2448 16.8652 15.4503 16.7824 15.6163 16.6168C15.7823 16.4509 15.8652 16.2454 15.8652 16.0003C15.8652 15.7553 15.7824 15.5498 15.6167 15.3837C15.4509 15.2177 15.2454 15.1348 15.0003 15.1348C14.7553 15.1348 14.5498 15.2176 14.3837 15.3832C14.2177 15.5491 14.1348 15.7546 14.1348 15.9998C14.1348 16.2448 14.2176 16.4503 14.3833 16.6163C14.5491 16.7823 14.7546 16.8652 14.9998 16.8652ZM10.95 13.6442L16.2288 8.35L15.175 7.28075L10.9315 11.5308L8.8095 9.40575L7.75575 10.45L10.95 13.6442ZM12.0017 21.5C10.6877 21.5 9.45267 21.2507 8.2965 20.752C7.14033 20.2533 6.13467 19.5766 5.2795 18.7218C4.42433 17.8669 3.74725 16.8617 3.24825 15.706C2.74942 14.5503 2.5 13.3156 2.5 12.0017C2.5 10.6877 2.74933 9.45267 3.248 8.2965C3.74667 7.14033 4.42342 6.13467 5.27825 5.2795C6.13308 4.42433 7.13833 3.74725 8.294 3.24825C9.44967 2.74942 10.6844 2.5 11.9983 2.5C13.3123 2.5 14.5473 2.74933 15.7035 3.248C16.8597 3.74667 17.8653 4.42342 18.7205 5.27825C19.5757 6.13308 20.2528 7.13833 20.7518 8.294C21.2506 9.44967 21.5 10.6844 21.5 11.9983C21.5 13.3123 21.2507 14.5473 20.752 15.7035C20.2533 16.8597 19.5766 17.8653 18.7218 18.7205C17.8669 19.5757 16.8617 20.2528 15.706 20.7518C14.5503 21.2506 13.3156 21.5 12.0017 21.5ZM12 20C14.2333 20 16.125 19.225 17.675 17.675C19.225 16.125 20 14.2333 20 12C20 9.76667 19.225 7.875 17.675 6.325C16.125 4.775 14.2333 4 12 4C9.76667 4 7.875 4.775 6.325 6.325C4.775 7.875 4 9.76667 4 12C4 14.2333 4.775 16.125 6.325 17.675C7.875 19.225 9.76667 20 12 20Z" fill="#1C1B1F"/>
</g>
</svg>
