<svg width="147" height="59" viewBox="0 0 147 59" fill="none" xmlns="http://www.w3.org/2000/svg">
<path d="M37.6665 41.3095C37.6665 44.4931 35.8646 45.9234 33.6418 45.9234C31.4191 45.9234 29.6172 44.4931 29.6172 41.3095C29.6172 39.9532 30.4009 38.03 31.2912 36.3298C32.5107 34.001 33.6418 31.9736 33.6418 31.9736C33.6418 31.9736 34.7729 34.001 35.9924 36.3298C36.8827 38.03 37.6665 39.9532 37.6665 41.3095Z" fill="#0038C9"/>
<path d="M29.6016 22.6364C29.6016 19.4527 31.4035 18.0225 33.6262 18.0225C35.8489 18.0225 37.6508 19.4527 37.6508 22.6364C37.6508 23.9926 36.8671 25.9159 35.9768 27.6161C34.7573 29.9449 33.6262 31.9723 33.6262 31.9723C33.6262 31.9723 32.4951 29.9449 31.2756 27.6161C30.3853 25.9159 29.6016 23.9926 29.6016 22.6364Z" fill="#6E95F9"/>
<path d="M27.8861 40.2778C25.2388 41.8697 23.1487 40.9594 22.0373 38.9545C20.9259 36.9496 21.2142 34.6093 23.8614 33.0174C24.9891 32.3393 26.9802 32.0846 28.8391 32.0375C31.3852 31.9731 33.6365 31.9797 33.6365 31.9797C33.6365 31.9797 32.5163 34.0136 31.1897 36.278C30.2211 37.9311 29.0138 39.5996 27.8861 40.2778Z" fill="#164CD6"/>
<path d="M39.3833 23.6678C42.0304 22.076 44.1207 22.9862 45.232 24.991C46.3433 26.9959 46.055 29.3363 43.4078 30.9282C42.2801 31.6063 40.2892 31.8611 38.4303 31.9081C35.8841 31.9725 33.6328 31.9659 33.6328 31.9659C33.6328 31.9659 34.753 29.932 36.0796 27.6676C37.0482 26.0145 38.2554 24.3459 39.3833 23.6678Z" fill="#8BABFF"/>
<path d="M23.8575 30.9399C21.2103 29.3481 20.922 27.0077 22.0334 25.0028C23.1448 22.9979 25.2349 22.0877 27.8822 23.6795C29.0099 24.3577 30.2172 26.0262 31.1858 27.6794C32.5124 29.9437 33.6326 31.9777 33.6326 31.9777C33.6326 31.9777 31.3812 31.9842 28.8352 31.9198C26.9763 31.8728 24.9852 31.618 23.8575 30.9399Z" fill="#3D6BE1"/>
<path d="M43.4118 33.0028C46.059 34.5946 46.3473 36.935 45.2359 38.9399C44.1245 40.9448 42.0343 41.8551 39.3871 40.2632C38.2594 39.585 37.0521 37.9165 36.0835 36.2633C34.7569 33.999 33.6367 31.965 33.6367 31.965C33.6367 31.965 35.888 31.9585 38.4341 32.0229C40.2929 32.0699 42.2841 32.3247 43.4118 33.0028Z" fill="#AEC4FF"/>
<path d="M115.904 26.2988H118.98L126.888 37.9053H123.834L115.904 26.2988ZM123.583 26.2988H126.614L118.707 37.9053H115.676L123.583 26.2988Z" fill="#181819"/>
<path d="M110.702 38.1446C109.639 38.1446 108.659 37.8756 107.763 37.3376C106.882 36.7997 106.183 36.0718 105.666 35.154C105.165 34.2204 104.914 33.1919 104.914 32.0685C104.914 30.9608 105.165 29.9481 105.666 29.0304C106.183 28.1126 106.882 27.3926 107.763 26.8705C108.644 26.3325 109.609 26.0635 110.657 26.0635C111.644 26.0635 112.548 26.3166 113.369 26.823C114.204 27.3135 114.865 27.9939 115.351 28.8642C115.837 29.7187 116.081 30.676 116.081 31.7362C116.081 32.0843 116.065 32.4166 116.035 32.733H106.236V30.8105H113.391C113.361 30.3358 113.209 29.9086 112.936 29.5288C112.677 29.1332 112.336 28.8326 111.91 28.6269C111.5 28.4053 111.052 28.2946 110.566 28.2946C109.928 28.2946 109.358 28.4528 108.857 28.7693C108.355 29.0699 107.968 29.513 107.694 30.0984C107.421 30.6681 107.284 31.3564 107.284 32.1634C107.284 32.8913 107.428 33.54 107.717 34.1097C108.006 34.6635 108.401 35.0986 108.902 35.4151C109.419 35.7316 110.011 35.8898 110.68 35.8898C111.394 35.8898 112.001 35.7316 112.503 35.4151C113.004 35.0828 113.315 34.6398 113.437 34.0859H115.944C115.761 35.3202 115.184 36.3091 114.212 37.0528C113.24 37.7806 112.07 38.1446 110.702 38.1446Z" fill="#181819"/>
<path d="M96.9536 38.1449C95.9814 38.1449 95.085 37.8758 94.2646 37.3379C93.4442 36.7999 92.7986 36.0641 92.3275 35.1305C91.8566 34.1969 91.6211 33.1843 91.6211 32.0924C91.6211 31.0006 91.8566 29.9958 92.3275 29.0781C92.7986 28.1445 93.4442 27.4087 94.2646 26.8707C95.085 26.3327 95.9814 26.0637 96.9536 26.0637C97.9412 26.0637 98.7921 26.309 99.506 26.7995C100.235 27.29 100.79 27.9942 101.17 28.9119C101.549 29.8139 101.739 30.874 101.739 32.0924C101.739 33.3267 101.549 34.4026 101.17 35.3204C100.79 36.2223 100.235 36.9186 99.506 37.4091C98.7921 37.8995 97.9412 38.1449 96.9536 38.1449ZM97.5006 35.629C98.1387 35.629 98.716 35.4786 99.2325 35.178C99.7492 34.8615 100.152 34.4343 100.44 33.8963C100.744 33.3583 100.896 32.757 100.896 32.0924C100.896 31.4279 100.744 30.8345 100.44 30.3123C100.152 29.7743 99.7492 29.355 99.2325 29.0543C98.716 28.7379 98.1387 28.5796 97.5006 28.5796C96.8778 28.5796 96.3081 28.7379 95.7914 29.0543C95.2749 29.3708 94.8647 29.798 94.5608 30.336C94.2722 30.874 94.1279 31.4595 94.1279 32.0924C94.1279 32.7412 94.2722 33.3346 94.5608 33.8726C94.8647 34.4106 95.2749 34.8378 95.7914 35.1543C96.3081 35.4707 96.8778 35.629 97.5006 35.629ZM100.896 21.293H103.448V37.9075H100.896V21.293Z" fill="#181819"/>
<path d="M82.3186 37.9073H79.7891V26.3008H82.3186V37.9073ZM87.7651 31.6175C87.7651 30.6997 87.5144 29.9719 87.0131 29.4339C86.5269 28.88 85.8813 28.6031 85.076 28.6031C84.2405 28.6031 83.572 28.88 83.0706 29.4339C82.5693 29.9719 82.3186 30.6997 82.3186 31.6175H81.5438C81.5438 30.5099 81.711 29.5367 82.0451 28.6981C82.3946 27.8436 82.8807 27.1948 83.5036 26.7518C84.1417 26.2929 84.8709 26.0635 85.6913 26.0635C86.6333 26.0635 87.4537 26.2771 88.1525 26.7043C88.8513 27.1157 89.3831 27.717 89.7477 28.5082C90.1275 29.2994 90.3174 30.225 90.3174 31.2852V37.9073H87.7651V31.6175Z" fill="#181819"/>
<path d="M77.6403 26.301V37.9074H75.1107V26.301H77.6403ZM76.3869 24.3072C75.9311 24.3072 75.5437 24.1411 75.2247 23.8088C74.9056 23.4765 74.7461 23.0809 74.7461 22.622C74.7461 22.1631 74.9056 21.7675 75.2247 21.4353C75.5437 21.0871 75.9311 20.9131 76.3869 20.9131C76.8427 20.9131 77.2301 21.0871 77.5491 21.4353C77.8681 21.7675 78.0277 22.1631 78.0277 22.622C78.0277 23.0809 77.8681 23.4765 77.5491 23.8088C77.2301 24.1411 76.8427 24.3072 76.3869 24.3072Z" fill="#181819"/>
<path d="M72.9836 37.9073H70.4312V26.3008H72.9836V37.9073ZM66.4888 38.1446C65.5164 38.1446 64.6201 37.8756 63.7997 37.3376C62.9793 36.7997 62.3336 36.0639 61.8627 35.1303C61.3916 34.1967 61.1562 33.184 61.1562 32.0922C61.1562 31.0004 61.3916 29.9956 61.8627 29.0778C62.3336 28.1442 62.9793 27.4085 63.7997 26.8705C64.6201 26.3325 65.5164 26.0635 66.4888 26.0635C67.4762 26.0635 68.327 26.3087 69.0411 26.7993C69.7704 27.2898 70.3248 27.9939 70.7047 28.9117C71.0845 29.8136 71.2744 30.8738 71.2744 32.0922C71.2744 33.3264 71.0845 34.4024 70.7047 35.3202C70.3248 36.2221 69.7704 36.9184 69.0411 37.4088C68.327 37.8993 67.4762 38.1446 66.4888 38.1446ZM67.0357 35.6287C67.6738 35.6287 68.251 35.4784 68.7677 35.1778C69.2842 34.8613 69.6867 34.434 69.9755 33.8961C70.2792 33.3581 70.4312 32.7568 70.4312 32.0922C70.4312 31.4276 70.2792 30.8342 69.9755 30.3121C69.6867 29.7741 69.2842 29.3547 68.7677 29.0541C68.251 28.7376 67.6738 28.5794 67.0357 28.5794C66.4128 28.5794 65.8431 28.7376 65.3266 29.0541C64.8099 29.3706 64.3997 29.7978 64.096 30.3358C63.8072 30.8738 63.663 31.4593 63.663 32.0922C63.663 32.741 63.8072 33.3343 64.096 33.8723C64.3997 34.4103 64.8099 34.8375 65.3266 35.154C65.8431 35.4705 66.4128 35.6287 67.0357 35.6287Z" fill="#181819"/>
<path d="M54.6016 26.3008H57.1311V27.9148C57.4501 27.3452 57.868 26.8942 58.3845 26.5619C58.9163 26.2296 59.5011 26.0635 60.1392 26.0635C60.4583 26.0635 60.8077 26.1109 61.1875 26.2059V28.6269C60.7469 28.5161 60.3748 28.4607 60.0708 28.4607C59.5088 28.4607 59.0074 28.5873 58.5668 28.8405C58.1262 29.0937 57.7768 29.4655 57.5185 29.956C57.2602 30.4466 57.1311 31.032 57.1311 31.7124V37.9073H54.6016V26.3008Z" fill="#181819"/>
</svg>
