<svg width="107" height="28" viewBox="0 0 107 28" fill="none" xmlns="http://www.w3.org/2000/svg">
<path d="M17.6665 23.3095C17.6665 26.4931 15.8646 27.9234 13.6418 27.9234C11.4191 27.9234 9.61719 26.4931 9.61719 23.3095C9.61719 21.9532 10.4009 20.03 11.2912 18.3298C12.5107 16.001 13.6418 13.9736 13.6418 13.9736C13.6418 13.9736 14.7729 16.001 15.9924 18.3298C16.8827 20.03 17.6665 21.9532 17.6665 23.3095Z" fill="#0038C9"/>
<path d="M9.60156 4.63637C9.60156 1.45267 11.4035 0.0224611 13.6262 0.0224609C15.8489 0.0224608 17.6508 1.45267 17.6508 4.63637C17.6508 5.99261 16.8671 7.91591 15.9768 9.61609C14.7573 11.9449 13.6262 13.9723 13.6262 13.9723C13.6262 13.9723 12.4951 11.9449 11.2756 9.61609C10.3853 7.91591 9.60156 5.99261 9.60156 4.63637Z" fill="#6E95F9"/>
<path d="M7.88606 22.2778C5.23883 23.8697 3.14868 22.9594 2.0373 20.9545C0.925939 18.9496 1.21421 16.6093 3.86143 15.0174C4.98913 14.3393 6.98021 14.0846 8.83905 14.0375C11.3852 13.9731 13.6365 13.9797 13.6365 13.9797C13.6365 13.9797 12.5163 16.0136 11.1896 18.278C10.2211 19.9311 9.01376 21.5996 7.88606 22.2778Z" fill="#164CD6"/>
<path d="M19.3833 5.66781C22.0304 4.07596 24.1207 4.98615 25.232 6.99104C26.3433 8.99594 26.055 11.3363 23.4078 12.9282C22.2801 13.6063 20.2892 13.8611 18.4303 13.9081C15.8841 13.9725 13.6328 13.9659 13.6328 13.9659C13.6328 13.9659 14.753 11.932 16.0796 9.66764C17.0482 8.01449 18.2554 6.34595 19.3833 5.66781Z" fill="#8BABFF"/>
<path d="M3.85752 12.9399C1.2103 11.3481 0.922031 9.00766 2.03341 7.00277C3.14478 4.99785 5.23493 4.08769 7.88216 5.67953C9.00986 6.35765 10.2172 8.02619 11.1858 9.67936C12.5124 11.9437 13.6326 13.9777 13.6326 13.9777C13.6326 13.9777 11.3812 13.9842 8.83515 13.9198C6.97629 13.8728 4.98522 13.618 3.85752 12.9399Z" fill="#3D6BE1"/>
<path d="M23.4118 15.0028C26.059 16.5946 26.3473 18.935 25.2359 20.9399C24.1245 22.9448 22.0343 23.8551 19.3871 22.2632C18.2594 21.585 17.0521 19.9165 16.0835 18.2633C14.7569 15.999 13.6367 13.965 13.6367 13.965C13.6367 13.965 15.888 13.9585 18.4341 14.0229C20.2929 14.0699 22.2841 14.3247 23.4118 15.0028Z" fill="#AEC4FF"/>
<path d="M95.9037 8.29883H98.9801L106.888 19.9053H103.834L95.9037 8.29883ZM103.583 8.29883H106.614L98.7067 19.9053H95.6758L103.583 8.29883Z" fill="#181819"/>
<path d="M90.7024 20.1446C89.639 20.1446 88.6591 19.8756 87.7626 19.3376C86.8815 18.7997 86.1826 18.0718 85.6661 17.154C85.1647 16.2204 84.9141 15.1919 84.9141 14.0685C84.9141 12.9608 85.1647 11.9481 85.6661 11.0304C86.1826 10.1126 86.8815 9.39264 87.7626 8.87047C88.6438 8.33248 89.6085 8.06348 90.6568 8.06348C91.6444 8.06348 92.5483 8.31664 93.3687 8.823C94.2042 9.31352 94.8651 9.99394 95.3513 10.8642C95.8375 11.7187 96.0805 12.676 96.0805 13.7362C96.0805 14.0843 96.0654 14.4166 96.0349 14.733H86.2358V12.8105H93.3915C93.361 12.3358 93.2091 11.9086 92.9357 11.5288C92.6773 11.1332 92.3355 10.8326 91.9102 10.6269C91.5 10.4053 91.0519 10.2946 90.5657 10.2946C89.9276 10.2946 89.3579 10.4528 88.8565 10.7693C88.3552 11.0699 87.9677 11.513 87.6943 12.0984C87.4208 12.6681 87.2841 13.3564 87.2841 14.1634C87.2841 14.8913 87.4285 15.54 87.7171 16.1097C88.0057 16.6635 88.4007 17.0986 88.9021 17.4151C89.4186 17.7316 90.0111 17.8898 90.6796 17.8898C91.3937 17.8898 92.0013 17.7316 92.5027 17.4151C93.004 17.0828 93.3154 16.6398 93.437 16.0859H95.9438C95.7615 17.3202 95.1841 18.3091 94.2119 19.0528C93.2396 19.7806 92.0697 20.1446 90.7024 20.1446Z" fill="#181819"/>
<path d="M76.9536 20.1449C75.9814 20.1449 75.085 19.8758 74.2646 19.3379C73.4442 18.7999 72.7986 18.0641 72.3275 17.1305C71.8566 16.1969 71.6211 15.1843 71.6211 14.0924C71.6211 13.0006 71.8566 11.9958 72.3275 11.0781C72.7986 10.1445 73.4442 9.40871 74.2646 8.87072C75.085 8.33271 75.9814 8.06372 76.9536 8.06372C77.9412 8.06372 78.7921 8.30897 79.506 8.79951C80.2352 9.29003 80.7898 9.99417 81.1696 10.9119C81.5495 11.8139 81.7393 12.874 81.7393 14.0924C81.7393 15.3267 81.5495 16.4026 81.1696 17.3204C80.7898 18.2223 80.2352 18.9186 79.506 19.4091C78.7921 19.8995 77.9412 20.1449 76.9536 20.1449ZM77.5006 17.629C78.1387 17.629 78.716 17.4786 79.2325 17.178C79.7492 16.8615 80.1517 16.4343 80.4403 15.8963C80.7442 15.3583 80.8961 14.757 80.8961 14.0924C80.8961 13.4279 80.7442 12.8345 80.4403 12.3123C80.1517 11.7743 79.7492 11.355 79.2325 11.0543C78.716 10.7379 78.1387 10.5796 77.5006 10.5796C76.8778 10.5796 76.3081 10.7379 75.7914 11.0543C75.2749 11.3708 74.8647 11.798 74.5608 12.336C74.2722 12.874 74.1279 13.4595 74.1279 14.0924C74.1279 14.7412 74.2722 15.3346 74.5608 15.8726C74.8647 16.4106 75.2749 16.8378 75.7914 17.1543C76.3081 17.4707 76.8778 17.629 77.5006 17.629ZM80.8961 3.29297H83.4484V19.9075H80.8961V3.29297Z" fill="#181819"/>
<path d="M62.3186 19.9073H59.7891V8.30083H62.3186V19.9073ZM67.7651 13.6175C67.7651 12.6997 67.5144 11.9719 67.0131 11.4339C66.5269 10.88 65.8813 10.6031 65.076 10.6031C64.2405 10.6031 63.572 10.88 63.0706 11.4339C62.5693 11.9719 62.3186 12.6997 62.3186 13.6175H61.5438C61.5438 12.5099 61.711 11.5367 62.0451 10.6981C62.3946 9.84361 62.8807 9.19484 63.5036 8.75179C64.1417 8.29291 64.8709 8.06348 65.6913 8.06348C66.6333 8.06348 67.4537 8.27709 68.1525 8.70432C68.8513 9.11574 69.3831 9.71702 69.7477 10.5082C70.1275 11.2994 70.3174 12.225 70.3174 13.2852V19.9073H67.7651V13.6175Z" fill="#181819"/>
<path d="M57.6403 8.30095V19.9074H55.1107V8.30095H57.6403ZM56.3869 6.30721C55.9311 6.30721 55.5437 6.14106 55.2247 5.80877C54.9056 5.47648 54.7461 5.0809 54.7461 4.62201C54.7461 4.16313 54.9056 3.76755 55.2247 3.43526C55.5437 3.08715 55.9311 2.91309 56.3869 2.91309C56.8427 2.91309 57.2301 3.08715 57.5491 3.43526C57.8681 3.76755 58.0277 4.16313 58.0277 4.62201C58.0277 5.0809 57.8681 5.47648 57.5491 5.80877C57.2301 6.14106 56.8427 6.30721 56.3869 6.30721Z" fill="#181819"/>
<path d="M52.9836 19.9073H50.4312V8.30083H52.9836V19.9073ZM46.4888 20.1446C45.5164 20.1446 44.6201 19.8756 43.7997 19.3376C42.9793 18.7997 42.3336 18.0639 41.8627 17.1303C41.3916 16.1967 41.1562 15.184 41.1562 14.0922C41.1562 13.0004 41.3916 11.9956 41.8627 11.0778C42.3336 10.1442 42.9793 9.40846 43.7997 8.87047C44.6201 8.33248 45.5164 8.06348 46.4888 8.06348C47.4762 8.06348 48.327 8.30875 49.0411 8.79927C49.7704 9.28978 50.3248 9.99394 50.7047 10.9117C51.0845 11.8136 51.2744 12.8738 51.2744 14.0922C51.2744 15.3264 51.0845 16.4024 50.7047 17.3202C50.3248 18.2221 49.7704 18.9184 49.0411 19.4088C48.327 19.8993 47.4762 20.1446 46.4888 20.1446ZM47.0357 17.6287C47.6738 17.6287 48.251 17.4784 48.7677 17.1778C49.2842 16.8613 49.6867 16.434 49.9755 15.8961C50.2792 15.3581 50.4312 14.7568 50.4312 14.0922C50.4312 13.4276 50.2792 12.8342 49.9755 12.3121C49.6867 11.7741 49.2842 11.3547 48.7677 11.0541C48.251 10.7376 47.6738 10.5794 47.0357 10.5794C46.4128 10.5794 45.8431 10.7376 45.3266 11.0541C44.8099 11.3706 44.3997 11.7978 44.096 12.3358C43.8072 12.8738 43.663 13.4593 43.663 14.0922C43.663 14.741 43.8072 15.3343 44.096 15.8723C44.3997 16.4103 44.8099 16.8375 45.3266 17.154C45.8431 17.4705 46.4128 17.6287 47.0357 17.6287Z" fill="#181819"/>
<path d="M34.6016 8.30083H37.1311V9.91481C37.4501 9.34517 37.868 8.89421 38.3845 8.56191C38.9163 8.22962 39.5011 8.06348 40.1392 8.06348C40.4583 8.06348 40.8077 8.11095 41.1875 8.20589V10.6269C40.7469 10.5161 40.3748 10.4607 40.0708 10.4607C39.5088 10.4607 39.0074 10.5873 38.5668 10.8405C38.1262 11.0937 37.7768 11.4655 37.5185 11.956C37.2602 12.4466 37.1311 13.032 37.1311 13.7124V19.9073H34.6016V8.30083Z" fill="#181819"/>
</svg>
