<svg width="52" height="55" viewBox="0 0 52 55" fill="none" xmlns="http://www.w3.org/2000/svg">
<path d="M34.6719 14.1081L46.2237 5.63672" stroke="#FFCCD5" stroke-width="2" stroke-miterlimit="10"/>
<path d="M20.8086 7.94727L30.8202 14.1083" stroke="#FFCCD5" stroke-width="2" stroke-miterlimit="10"/>
<path d="M5.40625 14.8784L16.188 7.94727" stroke="#FFCCD5" stroke-width="2" stroke-miterlimit="10"/>
<path d="M3.79721 18.529C5.12849 18.529 6.2077 17.4498 6.2077 16.1185C6.2077 14.7872 5.12849 13.708 3.79721 13.708C2.46593 13.708 1.38672 14.7872 1.38672 16.1185C1.38672 17.4498 2.46593 18.529 3.79721 18.529Z" stroke="#E62058" stroke-width="2" stroke-linecap="round" stroke-linejoin="round"/>
<path d="M18.43 9.2868C19.7613 9.2868 20.8405 8.20759 20.8405 6.87631C20.8405 5.54503 19.7613 4.46582 18.43 4.46582C17.0987 4.46582 16.0195 5.54503 16.0195 6.87631C16.0195 8.20759 17.0987 9.2868 18.43 9.2868Z" stroke="#E62058" stroke-width="2" stroke-linecap="round" stroke-linejoin="round"/>
<path d="M47.6956 6.20672C49.0269 6.20672 50.1061 5.12751 50.1061 3.79623C50.1061 2.46496 49.0269 1.38574 47.6956 1.38574C46.3644 1.38574 45.2852 2.46496 45.2852 3.79623C45.2852 5.12751 46.3644 6.20672 47.6956 6.20672Z" stroke="#E62058" stroke-width="2" stroke-linecap="round" stroke-linejoin="round"/>
<path d="M33.0628 17.7585C34.3941 17.7585 35.4733 16.6793 35.4733 15.348C35.4733 14.0167 34.3941 12.9375 33.0628 12.9375C31.7316 12.9375 30.6523 14.0167 30.6523 15.348C30.6523 16.6793 31.7316 17.7585 33.0628 17.7585Z" stroke="#E62058" stroke-width="2" stroke-linecap="round" stroke-linejoin="round"/>
<path d="M17.8171 15.2627L38.1946 26.984L30.7167 31.3121L10.0234 19.4984L17.8171 15.2627Z" stroke="#7A7A7A" stroke-width="2" stroke-linecap="round" stroke-linejoin="round"/>
<path d="M10.0231 19.498L7.83594 29.5944L28.1749 41.385L30.7163 31.3118" stroke="#7A7A7A" stroke-width="2" stroke-linecap="round" stroke-linejoin="round"/>
<path d="M38.1976 26.9844L40.6928 34.1234L28.1783 41.3857L24.4047 43.5421L21.8633 53.6153L46.8846 39.0907L44.3894 31.9517L40.8315 34.1311" stroke="#7A7A7A" stroke-width="2" stroke-linecap="round" stroke-linejoin="round"/>
<path d="M31.8828 39.2366L34.4319 46.4141L36.9733 36.2793" stroke="#7A7A7A" stroke-width="2" stroke-linecap="round" stroke-linejoin="round"/>
<path d="M7.83946 29.5947L4.02734 31.7819L24.4048 43.5417" stroke="#7A7A7A" stroke-width="2" stroke-linecap="round" stroke-linejoin="round"/>
<path d="M21.8624 53.6143L1.52344 41.8237L4.02634 31.7812" stroke="#7A7A7A" stroke-width="2" stroke-linecap="round" stroke-linejoin="round"/>
</svg>
