<svg width="18" height="19" viewBox="0 0 18 19" fill="none" xmlns="http://www.w3.org/2000/svg">
<path d="M13.8842 18.3845C12.9217 18.3845 12.0978 18.0418 11.4125 17.3565C10.7272 16.671 10.3845 15.847 10.3845 14.8845C10.3845 13.922 10.7272 13.0981 11.4125 12.4128C12.0978 11.7274 12.9217 11.3848 13.8842 11.3848C14.8467 11.3848 15.6707 11.7274 16.3562 12.4128C17.0416 13.0981 17.3842 13.922 17.3842 14.8845C17.3842 15.847 17.0416 16.671 16.3562 17.3565C15.6707 18.0418 14.8467 18.3845 13.8842 18.3845ZM13.8842 16.8845C14.4342 16.8845 14.9051 16.6887 15.2967 16.297C15.6884 15.9053 15.8842 15.4345 15.8842 14.8845C15.8842 14.3345 15.6884 13.8637 15.2967 13.472C14.9051 13.0803 14.4342 12.8845 13.8842 12.8845C13.3342 12.8845 12.8634 13.0803 12.4717 13.472C12.0801 13.8637 11.8842 14.3345 11.8842 14.8845C11.8842 15.4345 12.0801 15.9053 12.4717 16.297C12.8634 16.6887 13.3342 16.8845 13.8842 16.8845ZM4.11523 15.3845C3.15273 15.3845 2.32873 15.0418 1.64323 14.3565C0.957901 13.671 0.615234 12.847 0.615234 11.8845C0.615234 10.922 0.957901 10.0981 1.64323 9.41276C2.32873 8.72743 3.15273 8.38476 4.11523 8.38476C5.07773 8.38476 5.90165 8.72743 6.58698 9.41276C7.27232 10.0981 7.61498 10.922 7.61498 11.8845C7.61498 12.847 7.27232 13.671 6.58698 14.3565C5.90165 15.0418 5.07773 15.3845 4.11523 15.3845ZM4.11523 13.8845C4.66523 13.8845 5.13607 13.6887 5.52773 13.297C5.9194 12.9053 6.11523 12.4345 6.11523 11.8845C6.11523 11.3345 5.9194 10.8637 5.52773 10.472C5.13607 10.0803 4.66523 9.88451 4.11523 9.88451C3.56523 9.88451 3.0944 10.0803 2.70273 10.472C2.31107 10.8637 2.11523 11.3345 2.11523 11.8845C2.11523 12.4345 2.31107 12.9053 2.70273 13.297C3.0944 13.6887 3.56523 13.8845 4.11523 13.8845ZM7.99973 7.69226C7.03723 7.69226 6.21332 7.34959 5.52798 6.66426C4.84248 5.97876 4.49973 5.15476 4.49973 4.19226C4.49973 3.22976 4.84248 2.40584 5.52798 1.72051C6.21332 1.03501 7.03723 0.692261 7.99973 0.692261C8.96223 0.692261 9.78615 1.03501 10.4715 1.72051C11.157 2.40584 11.4997 3.22976 11.4997 4.19226C11.4997 5.15476 11.157 5.97876 10.4715 6.66426C9.78615 7.34959 8.96223 7.69226 7.99973 7.69226ZM7.99973 6.19226C8.54973 6.19226 9.02057 5.99643 9.41223 5.60476C9.8039 5.21309 9.99973 4.74226 9.99973 4.19226C9.99973 3.64226 9.8039 3.17143 9.41223 2.77976C9.02057 2.38809 8.54973 2.19226 7.99973 2.19226C7.44973 2.19226 6.9789 2.38809 6.58723 2.77976C6.19557 3.17143 5.99973 3.64226 5.99973 4.19226C5.99973 4.74226 6.19557 5.21309 6.58723 5.60476C6.9789 5.99643 7.44973 6.19226 7.99973 6.19226Z" fill="#1C1B1F"/>
</svg>
