<svg width="52" height="52" viewBox="0 0 52 52" fill="none" xmlns="http://www.w3.org/2000/svg">
<path d="M3.5179 19.7781C4.71131 19.7781 5.67875 18.7919 5.67875 17.5754C5.67875 16.359 4.71131 15.3728 3.5179 15.3728C2.3245 15.3728 1.35706 16.359 1.35706 17.5754C1.35706 18.7919 2.3245 19.7781 3.5179 19.7781Z" stroke="#FFCCD5" stroke-width="2" stroke-miterlimit="10"/>
<path d="M10.1356 23.5926H8.01049L4.7406 19.4207" stroke="#FFCCD5" stroke-width="2" stroke-miterlimit="10"/>
<path d="M3.51778 29.107C4.71118 29.107 5.67863 28.1208 5.67863 26.9043C5.67863 25.6878 4.71118 24.7017 3.51778 24.7017C2.32438 24.7017 1.35693 25.6878 1.35693 26.9043C1.35693 28.1208 2.32438 29.107 3.51778 29.107Z" stroke="#FFCCD5" stroke-width="2" stroke-miterlimit="10"/>
<path d="M10.1368 26.9041H5.68628" stroke="#FFCCD5" stroke-width="2" stroke-miterlimit="10"/>
<path d="M3.51766 38.4365C4.71106 38.4365 5.67851 37.4504 5.67851 36.2339C5.67851 35.0174 4.71106 34.0312 3.51766 34.0312C2.32426 34.0312 1.35681 35.0174 1.35681 36.2339C1.35681 37.4504 2.32426 38.4365 3.51766 38.4365Z" stroke="#FFCCD5" stroke-width="2" stroke-miterlimit="10"/>
<path d="M10.1354 30.2161H8.01037L4.74048 34.388" stroke="#FFCCD5" stroke-width="2" stroke-miterlimit="10"/>
<path d="M48.4732 19.7783C49.6666 19.7783 50.6341 18.7922 50.6341 17.5757C50.6341 16.3592 49.6666 15.373 48.4732 15.373C47.2798 15.373 46.3124 16.3592 46.3124 17.5757C46.3124 18.7922 47.2798 19.7783 48.4732 19.7783Z" stroke="#FFCCD5" stroke-width="2" stroke-miterlimit="10"/>
<path d="M41.3673 23.5926H43.9789L47.256 19.4207" stroke="#FFCCD5" stroke-width="2" stroke-miterlimit="10"/>
<path d="M48.4733 38.4365C49.6667 38.4365 50.6342 37.4504 50.6342 36.2339C50.6342 35.0174 49.6667 34.0312 48.4733 34.0312C47.2799 34.0312 46.3125 35.0174 46.3125 36.2339C46.3125 37.4504 47.2799 38.4365 48.4733 38.4365Z" stroke="#FFCCD5" stroke-width="2" stroke-miterlimit="10"/>
<path d="M41.3673 30.2161H43.9789L47.256 34.388" stroke="#FFCCD5" stroke-width="2" stroke-miterlimit="10"/>
<path d="M48.4733 29.107C49.6667 29.107 50.6342 28.1208 50.6342 26.9043C50.6342 25.6878 49.6667 24.7017 48.4733 24.7017C47.2799 24.7017 46.3125 25.6878 46.3125 26.9043C46.3125 28.1208 47.2799 29.107 48.4733 29.107Z" stroke="#FFCCD5" stroke-width="2" stroke-miterlimit="10"/>
<path d="M41.3674 26.9041H46.3116" stroke="#FFCCD5" stroke-width="2" stroke-miterlimit="10"/>
<path d="M16.815 1H41.5216V51H10.3396V8.70812L16.815 1Z" stroke="#7A7A7A" stroke-width="2" stroke-miterlimit="10"/>
<path d="M10.3396 8.70812H16.815V1" stroke="#7A7A7A" stroke-width="2" stroke-miterlimit="10"/>
<path d="M22.0508 15.2563V30.4779" stroke="#E62058" stroke-width="2" stroke-linecap="round" stroke-linejoin="round"/>
<path d="M18.7445 18.626L22.0502 15.2563L25.363 18.626" stroke="#E62058" stroke-width="2" stroke-linecap="round" stroke-linejoin="round"/>
<path d="M30.6633 38.5529V23.324" stroke="#E62058" stroke-width="2" stroke-linecap="round" stroke-linejoin="round"/>
<path d="M33.9793 35.1758L30.6665 38.5527L27.3608 35.1758" stroke="#E62058" stroke-width="2" stroke-linecap="round" stroke-linejoin="round"/>
</svg>
