<svg width="75" height="57" viewBox="0 0 75 57" fill="none" xmlns="http://www.w3.org/2000/svg">
<g clip-path="url(#clip0_2035_5522)">
<path fill-rule="evenodd" clip-rule="evenodd" d="M37.5034 0C53.2754 0 66.062 12.7601 66.062 28.5007C66.062 44.2399 53.2754 57 37.5034 57C21.73 57 8.94336 44.2399 8.94336 28.5007C8.94336 12.7601 21.73 0 37.5034 0Z" fill="#1470B8"/>
<path d="M36.0698 12.9676V4.97448C34.5347 6.32519 33.1299 7.66858 31.8525 9.00613C30.5884 10.3305 29.4473 11.6505 28.4307 12.9676H36.0698ZM57.8975 44.0806H50.5352C48.0112 47.7102 44.834 50.9233 41.4751 53.7869L41.7651 53.7416C48.0742 52.7184 54.0317 49.1603 57.8975 44.0806ZM33.5386 53.784C30.1826 50.9233 27.0024 47.7073 24.4829 44.0806H17.1367C21.0215 49.1852 26.9336 52.7081 33.2661 53.7402L33.5386 53.784ZM17.1074 12.9676H24.9062C26.0796 11.2924 27.436 9.61132 28.9771 7.92586C30.4082 6.36027 32.0005 4.78883 33.7554 3.21301L33.3408 3.27441C27.0054 4.2582 20.9922 7.85715 17.1074 12.9676ZM41.2715 3.23494C44.5278 6.14977 47.5967 9.37596 50.0942 12.9676H57.8813C53.8472 7.67297 47.8442 4.22019 41.2715 3.23494ZM38.9307 4.97448V12.9676H46.5698C45.5532 11.6505 44.4136 10.3305 43.1494 9.00613C41.8721 7.66858 40.4658 6.32519 38.9307 4.97448ZM38.9307 44.0806V52.1921C41.8589 49.7655 44.6406 47.0758 46.9902 44.0806H38.9307ZM36.0698 52.1936V44.0806H28.0088C30.3467 47.0831 33.1372 49.7743 36.0698 52.1936Z" fill="#BBDEFB"/>
<path d="M5.8916 13.2161H69.1084C72.3442 13.2161 75 15.8664 75 19.0955V37.9527C75 41.1731 72.3354 43.8321 69.1084 43.8321H5.8916C2.6499 43.8321 0 41.1877 0 37.9527V19.0955C0 15.8576 2.64697 13.2161 5.8916 13.2161Z" fill="#1470B8"/>
<path fill-rule="evenodd" clip-rule="evenodd" d="M5.89111 15.8342H69.1079C70.9053 15.8342 72.376 17.3077 72.376 19.0955V37.9527C72.376 39.7405 70.8994 41.214 69.1079 41.214H5.89111C4.09961 41.214 2.62305 39.7464 2.62305 37.9527V19.0955C2.62305 17.3019 4.09521 15.8342 5.89111 15.8342Z" fill="white"/>
<path d="M56.2397 25.4733L55.6699 22.2091C57.5127 21.6551 59.3496 21.3774 61.1792 21.3774C61.9116 21.3774 62.5225 21.3993 63.0132 21.4432C63.5039 21.487 64.0122 21.5966 64.5381 21.7706C65.0654 21.946 65.4829 22.1872 65.7905 22.4942C66.4922 23.1959 66.8438 24.2688 66.8438 25.7145C66.8438 27.1603 66.4336 28.2274 65.6148 28.913C64.7944 29.6 63.0674 30.3894 60.4336 31.2796V31.8936H66.624V35.399H55.3623V32.6596C55.3623 31.8424 55.5161 31.0603 55.8223 30.3163C56.0127 29.8924 56.4741 29.3807 57.2066 28.7829C57.6006 28.4466 58.1323 28.1251 58.7974 27.8181C59.4639 27.5111 60.0923 27.2231 60.6856 26.9527C61.2788 26.6823 61.7578 26.4601 62.124 26.2846V25.102C61.4649 25.029 60.8584 24.9924 60.3018 24.9924C58.9556 24.9924 57.6006 25.1517 56.2397 25.4733ZM21.5405 21.7034H26.1108L23.9678 35.3434H18.2593L17.2529 30.3236H16.9907L16.0063 35.3434H10.2993L8.15625 21.7034H12.7266L13.7549 29.3208H13.8853L15.46 21.7034H18.8071L20.3584 29.3208H20.4902L21.5405 21.7034ZM36.1157 30.1935H31.7417V32.0836H37.1001V35.3434H27.3677V21.7034H36.9902L36.4438 24.9646H31.7417V27.0287H36.1157V30.1935ZM39.123 35.3434V21.7034H46.2085C47.521 21.7034 48.457 21.9592 49.0181 22.4679C49.5806 22.9766 49.8604 23.7192 49.8604 24.6942C49.8604 25.6692 49.6816 26.4206 49.3242 26.9527C48.9683 27.4833 48.4893 27.8283 47.8931 27.9891V28.1207C49.6567 28.4262 50.5386 29.6263 50.5386 31.7211C50.5386 32.813 50.2471 33.6887 49.6641 34.3509C49.0811 35.0131 48.1831 35.3434 46.9732 35.3434H39.123ZM45.2022 29.9099H43.2642V32.1362H45.1802C45.7925 32.1362 46.0986 31.7649 46.0986 31.0223C46.0986 30.2812 45.7998 29.9099 45.2022 29.9099ZM44.874 24.6942H43.2642V26.7232H44.8521C45.4058 26.7232 45.6826 26.3855 45.6826 25.7087C45.6826 25.0319 45.4131 24.6942 44.874 24.6942Z" fill="#1F3647"/>
</g>
<defs>
<clipPath id="clip0_2035_5522">
<rect width="75" height="57" fill="white"/>
</clipPath>
</defs>
</svg>
